<?xml version="1.0" encoding="UTF-8"?><svg id="a" xmlns="http://www.w3.org/2000/svg" viewBox="0 0 547.63 375.35"><defs><style>.b{fill:#aed5b2;}</style></defs><path class="b" d="M147.21,93.56c-.05-.63-.11-1.42-.47-2.72-1.14-4.11-3.07-6.79-4.5-8.31-.13-.14-.27-.28-.41-.42-.51-.53-.92-.94-1.32-1.69-.5-.91-.66-1.68-.8-2.42l-.05-.26c-.42-2.04-1.41-6.82-4.65-10.17-.5-.51-.94-.88-1.29-1.17-.6-.5-.71-.61-.84-.96-.13-.34-.14-.61-.14-1.18,0-.58-.02-1.29-.21-2.22-.29-1.42-.89-2.77-1.78-4.01-4.14-9.35-13.53-15.83-23.7-16.48l-1.95-4.24c.82-.53,1.13-1.64,.68-2.62s-1.5-1.46-2.43-1.18l-3.12-6.78c-.96-2.08-3.43-2.99-5.51-2.03l-12.74,5.87c-2.08,.96-2.99,3.43-2.03,5.51l3.17,6.88c-.78,.7-1.11,1.69-.73,2.51s1.34,1.21,2.38,1.07l2,4.34c-6.11,8.15-7.28,19.49-2.87,28.72,.37,1.49,1.01,2.82,1.89,3.96,.58,.75,1.12,1.22,1.55,1.6,.43,.38,.63,.56,.8,.88,.18,.33,.19,.48,.18,1.26,0,.46-.01,1.03,.05,1.74,.44,4.64,3.43,8.49,4.71,10.14l.17,.21c.47,.59,.95,1.21,1.32,2.18,.3,.79,.35,1.37,.42,2.1,.02,.19,.04,.39,.06,.58,.23,2.07,1.01,5.28,3.4,8.82,.75,1.12,1.32,1.67,1.77,2.12,.41,.41,.7,.7,1.19,1.49,1.21,1.98,1.58,3.8,1.71,4.49l.03,.13c.78,3.8,5.16,13.32,13.39,29.1l.16,.31,.25,.24c.2,.19,.41,.42,.65,.66,1.44,1.5,3.85,4.01,7.41,3.81,6.91-.38,13.62-1.95,19.98-4.71l.19-.09c6.18-3.03,11.74-7.11,16.51-12.12,2.46-2.58,2.12-6.04,1.91-8.11-.03-.33-.06-.64-.08-.92l-.02-.35-.13-.33c-6.65-16.51-11.04-26.02-13.43-29.08l-.08-.11c-.43-.55-1.58-2.01-2.3-4.22-.29-.88-.32-1.3-.36-1.87ZM96.42,28.58l3.08,6.68-12.59,5.8-3.08-6.68,12.59-5.8Zm46.25,63.39c.25,.9,.28,1.36,.32,1.9,.04,.56,.09,1.17,.33,2.08l-16.05,7.4c-1.06,.49-1.53,1.75-1.04,2.81s1.75,1.53,2.81,1.04l15.89-7.32c.68,1.2,1.32,2.02,1.62,2.39l.07,.09c1.44,1.85,4.82,8.18,12.72,27.75,.02,.23,.04,.48,.07,.74,.2,2.04,.27,3.68-.76,4.77-4.43,4.64-9.58,8.43-15.27,11.21l-.09,.04c-5.86,2.53-12.08,3.99-18.49,4.34-1.5,.08-2.71-1.04-4.12-2.52-.18-.19-.35-.37-.52-.53-9.76-18.72-12.37-25.4-12.84-27.7l-.02-.11c-.1-.51-.34-1.68-.9-3.13l2.99-1.38c1.06-.49,1.53-1.75,1.04-2.81s-1.75-1.53-2.81-1.04l-3.24,1.49c-.44-.59-.81-.96-1.15-1.3-.38-.38-.72-.71-1.24-1.48-1.9-2.82-2.52-5.32-2.7-6.93-.02-.17-.03-.33-.05-.5-.04-.38-.08-.81-.16-1.28l3.24-1.49c1.06-.49,1.53-1.75,1.04-2.81s-1.75-1.53-2.81-1.04l-3.01,1.39c-.33-.51-.65-.93-.93-1.28l-.15-.19c-1.05-1.36-3.52-4.53-3.84-7.95-.05-.48-.04-.89-.04-1.28,0-.37,0-.77-.03-1.19l2.61-1.2c1.06-.49,1.52-1.74,1.03-2.8h0c-.49-1.07-1.74-1.53-2.8-1.05l-2.77,1.28c-.16-.15-.31-.28-.46-.42-.36-.31-.67-.59-1-1.02-.55-.71-.95-1.57-1.17-2.55l-.06-.25-.13-.26c-3.99-8.18-2.75-18.38,3.08-25.38l.86-1.03-3.04-6.6,12.59-5.8,3.04,6.6,1.34,.02c9.11,.11,17.66,5.8,21.28,14.1l.13,.32,.15,.2c.6,.8,1,1.66,1.18,2.55,.11,.54,.12,.95,.12,1.43,0,.54,.02,1.13,.18,1.82l-15.32,7.06c-1.06,.49-1.53,1.75-1.04,2.81s1.75,1.53,2.81,1.04l15.93-7.34c.29,.24,.58,.49,.9,.81,2.38,2.46,3.2,6.4,3.55,8.08l.05,.24c.1,.52,.24,1.16,.48,1.89l-15.84,7.3c-1.06,.49-1.53,1.75-1.04,2.81s1.75,1.53,2.81,1.04l16.21-7.47c.22,.24,.43,.46,.62,.66,.12,.12,.23,.24,.35,.36,1.1,1.18,2.6,3.27,3.51,6.55Z"/><path class="b" d="M444.73,255.39c-.51-1.25-1.47-2.22-2.7-2.74l-20.13-8.51c-5.84-2.47-12.3-2.51-18.2-.12-5.89,2.39-10.5,6.93-12.97,12.77l-27.34,64.7c-.52,1.24-.53,2.61-.03,3.85,.51,1.25,1.47,2.22,2.7,2.74l6.14,2.6h0c.64,.27,1.3,.4,1.95,.4,1.96,0,3.83-1.16,4.64-3.07l27.34-64.7c1.51-3.58,5.65-5.26,9.23-3.75l20.13,8.51c1.24,.52,2.61,.53,3.85,.03,1.25-.51,2.22-1.47,2.74-2.7l2.6-6.15c.52-1.24,.53-2.61,.03-3.85Zm-39.76-8.23c1.19-.48,2.41-.85,3.65-1.1l.4,10.21c-.34,.13-.67,.27-1,.43l-7.57-7.01c1.37-1.02,2.88-1.87,4.51-2.53Zm-7.06,4.78l7.31,6.78c-.55,.56-1.05,1.18-1.47,1.86l-8.91-4.49c.85-1.52,1.88-2.91,3.07-4.15Zm-22.22,74.75c-.35,.84-1.32,1.23-2.16,.88l-6.15-2.6c-.41-.17-.72-.49-.89-.9s-.16-.86,0-1.26l26.9-63.65,8.92,4.49-26.64,63.04Zm36.69-71.07l-.39-9.96c1.27-.04,2.54,.03,3.79,.23l-1.19,9.91c-.74-.14-1.48-.2-2.21-.18Zm29.2,2.3l-2.6,6.15c-.17,.41-.49,.72-.9,.89-.41,.17-.86,.16-1.26,0l-18.96-8.01,1.22-10.23c.5,.17,.99,.35,1.48,.55l20.13,8.51c.41,.17,.72,.49,.89,.9s.16,.86,0,1.26Z"/><path class="b" d="M268.19,254.62c8.99,3.04,19.23-.41,24.38-8.84,5.31-8.69,3.45-19.78-3.91-26.33,9.06,3.23,19.48-.2,24.69-8.73,5.97-9.77,2.88-22.58-6.89-28.55-5.35-3.27-11.6-3.82-17.15-2.05l-.04-.13c-4.66,1.57-9.73,1-13.92-1.56-4.08-2.49-6.88-6.63-7.68-11.35l-.14,.02c-.88-5.87-4.25-11.33-9.7-14.66-9.77-5.97-22.58-2.88-28.55,6.89-5.31,8.69-3.45,19.78,3.91,26.33-9.06-3.23-19.48,.2-24.69,8.73s-3.4,20.11,4.23,26.62c-8.99-3.04-19.23,.41-24.38,8.84-5.97,9.77-2.88,22.58,6.89,28.55,5.43,3.32,11.8,3.83,17.41,1.96l.02,.05c4.61-1.5,9.63-.91,13.76,1.61,4.38,2.67,7.22,7.13,7.81,12.24h.07c1.05,5.56,4.36,10.68,9.57,13.86,9.77,5.97,22.58,2.88,28.55-6.89,5.39-8.82,3.4-20.11-4.23-26.62Zm20.78-11.04c-4.76,7.79-14.96,10.25-22.75,5.49s-10.25-14.96-5.49-22.75c4.76-7.79,14.97-10.25,22.75-5.49,7.79,4.76,10.25,14.96,5.49,22.75Zm15.3-57.82c7.79,4.76,10.25,14.96,5.49,22.75s-14.97,10.25-22.75,5.49-10.25-14.97-5.49-22.75,14.96-10.25,22.75-5.49Zm-31.12-3.74c2.51,1.53,5.28,2.49,8.12,2.87-.94,.9-1.8,1.9-2.57,2.99l-13.29-8.12c.62-1.19,1.12-2.41,1.49-3.66,1.63,2.36,3.75,4.39,6.25,5.92Zm2.63,11.75c-1.62-2.33-3.72-4.33-6.23-5.87-2.49-1.52-5.25-2.48-8.07-2.86,.9-.87,1.72-1.84,2.46-2.89l13.29,8.12c-.59,1.14-1.08,2.31-1.44,3.5Zm-8.43-2.27c4.38,2.67,7.22,7.13,7.81,12.24h.07c.84,4.41,3.1,8.54,6.59,11.65-4.36-1.56-9.04-1.57-13.3-.21l-.04-.13c-4.66,1.57-9.73,1-13.92-1.56s-6.88-6.63-7.68-11.35l-.14,.02c-.71-4.71-3.02-9.16-6.72-12.45,4.45,1.59,9.23,1.57,13.56,.13l.02,.05c4.61-1.5,9.63-.91,13.76,1.61Zm-9.45,31.44l-13.29-8.12c.62-1.19,1.12-2.41,1.49-3.66,1.63,2.36,3.75,4.39,6.25,5.92s5.28,2.49,8.12,2.87c-.94,.9-1.8,1.9-2.57,2.99Zm-2.91,5.89c-1.62-2.33-3.72-4.34-6.23-5.87s-5.25-2.48-8.07-2.86c.9-.87,1.72-1.84,2.46-2.89l13.29,8.12c-.59,1.14-1.08,2.31-1.44,3.5Zm-22.12-67.31c4.76-7.79,14.96-10.25,22.75-5.49,7.79,4.76,10.25,14.96,5.49,22.75s-14.97,10.25-22.75,5.49c-7.79-4.76-10.25-14.97-5.49-22.75Zm-20.79,35.06c4.76-7.79,14.96-10.25,22.75-5.49,7.79,4.76,10.25,14.96,5.49,22.75-4.76,7.79-14.96,10.25-22.75,5.49-7.79-4.76-10.25-14.96-5.49-22.75Zm-14.66,58.2c-7.79-4.76-10.25-14.96-5.49-22.75s14.96-10.25,22.75-5.49c7.79,4.76,10.25,14.96,5.49,22.75s-14.96,10.25-22.75,5.49Zm31.18,3.63c-2.5-1.52-5.25-2.48-8.07-2.86,.9-.87,1.72-1.84,2.46-2.89l13.29,8.12c-.59,1.14-1.08,2.31-1.44,3.5-1.62-2.33-3.72-4.34-6.23-5.87Zm9.14-.03l-13.29-8.12c.62-1.19,1.12-2.41,1.49-3.66,1.63,2.36,3.75,4.39,6.25,5.92s5.28,2.49,8.12,2.87c-.94,.9-1.8,1.9-2.57,2.99Zm-3.34-9.46c-4.08-2.49-6.88-6.63-7.68-11.35l-.14,.02c-.73-4.84-3.15-9.4-7.03-12.72,4.36,1.47,9.01,1.42,13.23,.01l.02,.05c4.61-1.5,9.63-.91,13.76,1.61,4.38,2.67,7.22,7.13,7.81,12.24h.07c.86,4.54,3.22,8.78,6.89,11.92-4.27-1.44-8.81-1.41-12.96-.09l-.04-.13c-4.66,1.57-9.73,1-13.92-1.56Zm11.66,35.58c-7.79-4.76-10.25-14.96-5.49-22.75,4.76-7.79,14.96-10.25,22.75-5.49,7.79,4.76,10.25,14.96,5.49,22.75-4.76,7.79-14.96,10.25-22.75,5.49Z"/><g><path class="b" d="M460.41,16.84l-7.16-2.18c-3.09-.94-6.44-.5-9.18,1.21l-19.69,12.28c-1.9,1.18-4.22,1.49-6.36,.84l-26.43-8.05c-3.35-1.02-6.88-1.31-10.35-.88l-.56-2.48,.27-.06c.73-.16,1.36-.6,1.76-1.24,.4-.64,.53-1.39,.37-2.12l-1.64-7.34c-.16-.73-.6-1.36-1.24-1.76-.63-.4-1.39-.53-2.12-.37l-28.15,6.31c-1.51,.34-2.47,1.85-2.13,3.36l1.64,7.34c.16,.73,.6,1.36,1.24,1.76,.22,.14,.45,.25,.69,.32,.46,.14,.95,.16,1.43,.05l.27-.06,.55,2.45c-5.14,1.8-9.2,5.95-10.82,11.23l-29.51,96.24c-2.68,8.81,2.3,18.16,11.11,20.84l86.06,26.23c8.81,2.68,18.16-2.3,20.84-11.11l40.22-131.97c2.68-8.81-2.3-18.16-11.11-20.84Zm-108.08,4.02l-1.56-6.98,27.79-6.23,1.56,6.98-13.9,3.11-13.81,3.09h0l-.09,.02Zm14.55-.19l10.88-2.44,.53,2.35-21.77,4.86-.52-2.33,10.88-2.44Zm61.55,148.11c-2.2,7.23-9.87,11.31-17.1,9.11l-86.06-26.23c-7.23-2.2-11.31-9.87-9.11-17.1l29.51-96.24c1.38-4.51,4.92-8.03,9.38-9.43l25.51-5.72c3.38-.59,6.87-.39,10.16,.61l26.43,8.05c2.97,.91,6.19,.48,8.82-1.16l19.69-12.28c2.01-1.25,4.46-1.57,6.72-.88l7.16,2.18c7.23,2.2,11.31,9.87,9.11,17.1l-40.22,131.97Z"/><path class="b" d="M440.93,72.79c.73-.39,1.01-1.3,.62-2.03s-1.3-1.01-2.03-.62l-23.57,12.56-42.58-12.98-12.56-23.57c-.39-.73-1.3-1.01-2.03-.62s-1.01,1.3-.62,2.03l12.56,23.57-12.98,42.58-23.57,12.56c-.73,.39-1.01,1.3-.62,2.03s1.3,1.01,2.03,.62l23.57-12.56,42.58,12.98,12.56,23.57c.39,.73,1.3,1.01,2.03,.62s1.01-1.3,.62-2.03l-12.56-23.57,12.98-42.58,23.57-12.56Zm-27.31,14.55l-11.23,36.84-.62,2.03-2.03-.62-36.84-11.23-2.03-.62,.62-2.03,11.23-36.84,.62-2.03,2.03,.62,36.84,11.23,2.03,.62-.62,2.03Z"/></g><path class="b" d="M543.13,0c-2.49,0-4.5,2.01-4.5,4.5V99.14c-6.21,7.25-14.61,12.42-25,15.39-17.74,5.07-37.31,2.36-53.7-7.43-15.12-9.03-35.4-20.96-43.42-25.67-2.81-1.65-5.4-2.96-7.93-4.01-58.03-24.07-120.28,17.28-137.98,30.53-3.34,2.5-6.92,4.27-10.62,5.24-53.3,14.04-109.57-17.34-111.63-18.51-27.58-17.22-69.04-35.07-110.14-22.45-12.96,3.98-22.62,9.99-29,14.93V4.5C9.21,2.01,7.19,0,4.71,0S.21,2.01,.21,4.5V95.43c-.11,.12-.18,.21-.21,.25l.21,.17V370.85c0,2.49,2.01,4.5,4.5,4.5H543.13c2.49,0,4.5-2.01,4.5-4.5V4.5C547.63,2.01,545.62,0,543.13,0Zm-9,366.35H13.71c-2.49,0-4.5-2.01-4.5-4.5V99.05c4.43-4.28,15.28-13.31,32.13-18.37,29.88-8.97,65.26-1.48,102.31,21.68l.13,.08c2.46,1.42,60.81,34.64,118.49,19.46,4.83-1.27,9.44-3.54,13.72-6.74,16.73-12.53,75.5-51.67,129.14-29.42,2.15,.89,4.38,2.02,6.83,3.46,8.01,4.7,28.27,16.62,43.36,25.64,12.37,7.39,26.37,11.2,40.3,11.2,6.91,0,13.81-.94,20.49-2.85,8.71-2.49,16.24-6.35,22.53-11.51v250.17c0,2.49-2.01,4.5-4.5,4.5Z"/><path class="b" d="M70.55,284.65c-4.82,0-8.74-3.92-8.74-8.74s3.92-8.74,8.74-8.74,8.74,3.92,8.74,8.74-3.92,8.74-8.74,8.74Zm0-14.48c-3.17,0-5.74,2.58-5.74,5.74s2.58,5.74,5.74,5.74,5.74-2.58,5.74-5.74-2.58-5.74-5.74-5.74Z"/><path class="b" d="M56.69,178.27c-4.82,0-8.74-3.92-8.74-8.74s3.92-8.74,8.74-8.74,8.74,3.92,8.74,8.74-3.92,8.74-8.74,8.74Zm0-14.48c-3.17,0-5.74,2.58-5.74,5.74s2.58,5.74,5.74,5.74,5.74-2.58,5.74-5.74-2.58-5.74-5.74-5.74Z"/><path class="b" d="M195.85,317.48c-4.82,0-8.74-3.92-8.74-8.74s3.92-8.74,8.74-8.74,8.74,3.92,8.74,8.74-3.92,8.74-8.74,8.74Zm0-14.48c-3.17,0-5.74,2.58-5.74,5.74s2.58,5.74,5.74,5.74,5.74-2.58,5.74-5.74-2.58-5.74-5.74-5.74Z"/><path class="b" d="M287.62,148.44c-4.82,0-8.74-3.92-8.74-8.74s3.92-8.74,8.74-8.74,8.74,3.92,8.74,8.74-3.92,8.74-8.74,8.74Zm0-14.48c-3.17,0-5.74,2.58-5.74,5.74s2.58,5.74,5.74,5.74,5.74-2.58,5.74-5.74-2.58-5.74-5.74-5.74Z"/><path class="b" d="M55.28,317.27c-6.46,0-11.72-5.26-11.72-11.72s5.26-11.72,11.72-11.72,11.72,5.26,11.72,11.72-5.26,11.72-11.72,11.72Zm0-20.45c-4.81,0-8.72,3.91-8.72,8.72s3.91,8.72,8.72,8.72,8.72-3.91,8.72-8.72-3.91-8.72-8.72-8.72Z"/><path class="b" d="M478.09,201.57c-5.7,0-10.34-4.64-10.34-10.34s4.64-10.34,10.34-10.34,10.34,4.64,10.34,10.34-4.64,10.34-10.34,10.34Zm0-17.68c-4.05,0-7.34,3.29-7.34,7.34s3.29,7.34,7.34,7.34,7.34-3.29,7.34-7.34-3.29-7.34-7.34-7.34Z"/><path class="b" d="M484.44,328.54c-5.7,0-10.34-4.64-10.34-10.34s4.64-10.34,10.34-10.34,10.34,4.64,10.34,10.34-4.64,10.34-10.34,10.34Zm0-17.68c-4.05,0-7.34,3.29-7.34,7.34s3.29,7.34,7.34,7.34,7.34-3.29,7.34-7.34-3.29-7.34-7.34-7.34Z"/></svg>