<?xml version="1.0" encoding="UTF-8"?><svg id="a" xmlns="http://www.w3.org/2000/svg" viewBox="0 0 340.46 239.87"><defs><style>.b{fill:#a8d8b6;}</style></defs><path class="b" d="M239.84,147.91c.07,.02,.14,.04,.2,.08l.96,.77c.19,.15,.24,.42,.13,.63l-.61,1.14,.58,1.38,1.08-3.14-1.04-1.85c-.1,.05-.19,.1-.29,.14-.6,.28-.94,.47-1.01,.85Z"/><path class="b" d="M243.23,145.31c.94-.25,1.97-.51,2.99-.24,.85-1.25,1.33-1.37,2.85-.87,.15,.05,.27,.17,.32,.33,.05,.15,.02,.32-.08,.45l-.91,1.2,.8,.63,1.62-1.97-.26-.47c-.13-.24-.05-.55,.19-.68,.24-.13,.54-.05,.68,.19l.27,.49,2.79-.19-.25-1.13c-.04-.2,.04-.4,.2-.52s.38-.12,.55-.01l1.44,.91,.49-.8c-.43-.88-.16-1.71,.08-2.45,.08-.24,.16-.48,.21-.72l.64-3.06c.17-.55,.42-1.03,.66-1.49,.22-.42,.44-.85,.59-1.28,.17-.5,.02-1.23-.11-1.73-.14-.54-.35-1.06-.57-1.61-.06,.03-.13,.06-.2,.06l-1.49,.1,.39,3.12c.02,.12-.01,.24-.08,.34-.3,.44-.54,.99-.8,1.57-.69,1.55-1.54,3.47-4.05,4.26-.05,.02-.1,.02-.15,.02-.08,0-.17-.02-.24-.06-.12-.06-.21-.18-.24-.31h0l-1.88,3.33c-.09,.15-.24,.25-.42,.25-.12,0-.27,.02-.44,.03-.52,.05-1.24,.11-1.96,.02-1.2-.15-2.04,.13-2.84,.95-.53,.53-1.12,.98-1.76,1.46-.06,.05-.13,.1-.19,.15,.03,0,.06-.02,.08-.03,.36-.06,.72-.16,1.07-.25Z"/><path class="b" d="M246.42,146.38l-2.42,1.14,.19,.72h.56l.05-.62c.02-.26,.24-.46,.5-.46h1.1l.5-.66c-.11-.09-.22-.17-.33-.24-.04,.04-.08,.08-.14,.1Z"/><path class="b" d="M247.15,145.46c.11,.07,.22,.17,.34,.26l.59-.78c-.42-.09-.6,.03-.93,.52Z"/><path class="b" d="M258.2,124.7l-.46-.31c-1.09,1.44-1.63,2.46-.65,3.74,.24-.21,.36-.56,.15-1.25-.02-.07-.03-.14-.02-.21-.03-.23,.11-.46,.34-.54l1.99-.63c.14-.05,.3-.02,.43,.06l1.47,.98,.97-1.93c.12-.23,.39-.33,.63-.24,.97,.38,1.63,.18,2.29-.72l-.45-.98-.4,.27c-.09,.06-.2,.09-.31,.08-1.79-.11-2.79-1.27-3.76-2.39-.24-.27-.48-.55-.74-.82,0,.07-.01,.14-.01,.21,0,.33,0,.67,0,1,.01,.63,.02,1.27-.05,1.92-.05,.44-.28,.82-.48,1.17-.08,.13-.16,.27-.22,.4-.06,.13-.18,.23-.32,.26-.14,.04-.29,.01-.41-.07Z"/><path class="b" d="M237.07,217.57c-.14-.19-.14-.45,.01-.63l.84-1-.15-.23c-.08,.06-.16,.1-.26,.15-.17,.08-.35,.15-.55,.22l-.93,1.59h1.1l-.07-.1Z"/><path class="b" d="M273.47,239.06c-1.59-1.4-2.95-3.09-4.17-5.17-.12-.2-.2-.41-.27-.63-.03-.08-.06-.16-.09-.25-.05-.13-.05-.27,.01-.4,.06-.12,.17-.22,.3-.26l.8-.26c-.31-.78-.94-1.15-1.92-1.51-.95-.35-1.87-1.11-2.28-1.89-.82-1.54-2.22-2.53-4.3-3.02-.65-.15-1.27-.35-1.89-.57l.02,2.18c.03,2.8,.07,5.6,.08,8.4,0,.35-.07,.68-.15,.99,.78-.13,1.74-.23,2.47,.58l.09-.06-.55-1.3c-.1-.24,0-.52,.24-.64l1.22-.6v-1.15c0-.14,.06-.28,.17-.38s.25-.14,.4-.12c3.35,.45,4.96,2.83,6.24,4.75,.19,.29,.38,.56,.57,.83l3.9,1.28c-.19-.18-.39-.36-.6-.54l-.31-.27Z"/><path class="b" d="M258.66,224.77s0-.02,0-.03c-.82-.32-1.62-.67-2.41-1.02-.61-.27-1.22-.54-1.83-.79-.8-.33-1.17-.37-1.67,.05-.41,.35-.87,.62-1.31,.88-.12,.07-.23,.14-.34,.2-.19,1.03-.44,1.54-.84,1.8-.47,.3-.98,.16-1.58,0-.14-.04-.28-.08-.44-.12-.12-.03-.22-.1-.29-.2l-.9-1.3-1.63,.19c-.16,.02-.31-.05-.42-.16-.01,.01-.02,.03-.04,.05l-.36,.31c.57,.5,.79,1.22,.92,1.92,.08-.25,.19-.61,.34-1.14,.04-.16,.17-.28,.32-.34,.16-.05,.33-.02,.46,.08,.05,.04,.11,.07,.17,.11,.2,.12,.44,.26,.55,.54,.52,1.3,1.54,1.78,3.02,2.13,1.59,.38,3.12,1.35,4.54,2.91,.44,.48,.6,1.15,.74,1.74,.05,.22,.11,.44,.17,.64,.06,.18,.02,.38-.12,.52-.26,.26-.56,.46-.83,.64-.51,.34-.83,.56-.86,1.02l1.23-.46c0-.18,.11-.34,.27-.43,.16-.08,.35-.08,.5,.02l2.66,1.7c.04-.18,.07-.36,.07-.52-.01-2.8-.05-5.6-.08-8.4l-.03-2.52Z"/><path class="b" d="M245.61,222.45c.19-.15,.45-.15,.64,0l.53,.45v-1.59l-.6-.72c-.26,0-.51-.02-.75-.03-.62-.03-1.16-.05-1.64,.06-.48,.11-.95,.36-1.49,.65-.02,.01-.05,.03-.07,.04l2.58,1.79,.79-.64Z"/><path class="b" d="M236.57,219.99c.12,.18,.29,.36,.47,.56,.04-.07,.05-.13,.05-.18,0-.16-.17-.35-.35-.53-.12,.09-.16,.13-.17,.15Z"/><path class="b" d="M223.3,238.59c-.3-.19-.66-.23-1.06-.14,.06,.49,.31,.73,1.62,.89-.11-.33-.31-.58-.57-.75Z"/><polygon class="b" points="291.44 238.56 292.14 238.51 292.14 238.31 291.31 238.25 291.44 238.56"/><path class="b" d="M223.79,236.38c.63,.26,1.25,.3,1.95,.12l-1.62-.53-.32,.41Z"/><path class="b" d="M239.33,225.15c-.96-.07-1.74-.13-2.39,.57l.2,.24c1.14-.88,2.42-.95,3.79-.23,.04,.02,.1,.02,.19,.02l-.46-.59c-.44,.05-.88,.01-1.32-.02Z"/><path class="b" d="M220.55,236.33c.1,.04,.2,.07,.28,.09l-.26-.18v.09Z"/><path class="b" d="M230.04,217.76c.62-.48,.98-.83,1.02-1.27-.91,1.01-2.05,1.46-3.95,1.11,.47,.11,.92,.23,1.36,.38,.62,.21,1.09,.15,1.57-.22Z"/><polygon class="b" points="234.26 225.95 234.63 226.33 234.92 225.87 234.37 225.87 234.26 225.95"/><path class="b" d="M234.29,236.2c-.21,.02-.44,.04-.67,0l-3.51,2.4-.12,.85,4.88-3.19c-.1-.11-.26-.09-.58-.06Z"/><path class="b" d="M224.35,217.25c-.48-.02-.68,.02-.84,.34,.29-.17,.6-.31,.95-.33-.04,0-.08,0-.12-.01Z"/><path class="b" d="M224.66,222.26c-.09,.08-.21,.13-.33,.13-.04,0-.09,0-.13-.02-.16-.04-.29-.17-.35-.33-.12-.38-.4-.69-.7-1.03-.13-.14-.26-.3-.39-.47l-.06,.17c-.37,1.09-.75,2.17-1.11,3.26-.09,.26-.17,.52-.26,.83l-.03,.09c1.51,.82,1.46,2.3,1.41,3.51,0,.27-.02,.54-.01,.8,0,.1,0,.2,0,.31-.01,.27-.02,.4,.05,.48,.62-.75,.58-1.65,.54-2.68-.01-.29-.02-.58-.02-.86,0-.12,.05-.22,.11-.3-.18-.11-.27-.33-.22-.54l.33-1.24c.05-.19,.2-.33,.39-.36,.19-.04,.38,.04,.5,.19,.46,.6,.79,1.23,1.05,1.98,.17,.47,.31,.96,.44,1.45l.1,.34,.94-.38-1.62-3.95c-.07-.16-.04-.35,.06-.49l1.28-1.73-.74-.25-1.21,1.09Z"/><path class="b" d="M33.47,95.02l2.96,2.42,2.18-1.52c.18-.13,.42-.12,.6,.02l2.44,1.95c.59-.39,1.22-.69,1.83-.97,.88-.4,1.71-.77,2.4-1.43,.64-.62,2.15-.3,2.78,.04,.7,.38,1.05,.55,1.51,.35,.49-1.11,1.34-1.61,2.42-1.45,.44-.43,.47-.86,.13-1.55-.2-.41-.2-.87-.19-1.27,0-.15,0-.31,0-.46,0,0,0-.01,0-.02-.02,0-.04-.01-.07-.02-.15-.04-.28-.14-.34-.28-.06-.14-.06-.3,.01-.44l1.84-3.51c.13-.24,.42-.34,.66-.22l3.09,1.52c.5-.36,.58-.88,.65-1.65,0-.1,.02-.21,.03-.31-.33-.23-.66-.47-.99-.71-.11-.08-.19-.16-.25-.23-.83-.86-.84-2.05-.07-2.9,1.38-1.53,3.75-1.93,5.64-.95,.24,.13,.5,.22,.76,.32,.07,.03,.14,.05,.21,.08,.22-.34,.56-.66,1.1-.9,.12-.05,.24-.18,.38-.32,.15-.16,.33-.33,.55-.46,.28-.17,.57-.3,.86-.43h0l-1.6-1.6-.11,.12c-.06,.07-.14,.12-.23,.14l-2.33,.7c-1.67,.5-3.07,.92-4.47,1.37-.63,.2-1.68,.54-2.56-.38-.06-.06-.12-.13-.17-.2-.04-.05-.1-.13-.13-.15-2.21-.39-2.12-2.07-2.05-3.56,.04-.75-.07-1.45-.19-2.19-.09-.58-.18-1.18-.21-1.79-.03-.71,.28-1.54,.74-2.01,.42-.43,.77-.9,1.15-1.4,.18-.23,.35-.47,.53-.7,.94-1.18,2.04-2.19,3.2-3.27,.41-.37,.82-.75,1.23-1.15l-.25-.88-1.76-.87-2.6,.78c-.83,.69-1.2,1.71-1.07,2.95,.05,.44-.16,1-.49,1.34-.27,.28-.53,.58-.78,.89-.83,.98-1.68,1.99-3.13,2.43-.24,.07-.54,.51-.76,.83l-.18,.26c-.38,.53-.73,1.09-1.15,1.75-.18,.28-.36,.57-.57,.89v3.32c.19,.15,.44,.34,.72,.51,.9,.54,1.75,2.1,1.96,3.16,.11,.55,.05,.98-.17,1.27l-.1,.14c-.73,.98-1.54,2.08-3.13,2.35v.1c-.07,.36-.12,.73-.11,1.09,.01,1.29-.02,2.66-.63,4.06-.64,1.47-1.75,2.35-3.08,2.44l-1.94,2.35c-.1,.12-.24,.18-.38,.18-.11,0-.23-.04-.32-.11-.21-.18-.24-.49-.07-.7l.05-.06c-.05-.08-.1-.15-.16-.22-.17-.23-.36-.5-.46-.82-.04-.15-.08-.3-.12-.45,0,.05,0,.1-.03,.15l-.18,.42c-.14,.33-.28,.66-.41,1-.05,.14-.07,.28-.11,.48-.02,.13-.05,.29-.09,.47-.04,.18-.17,.33-.35,.38-.05,.01-.09,.02-.14,.02-.13,0-.26-.05-.36-.15l-1.11-1.14c-.16,.33-.33,.67-.55,1-.09,.14-.25,.22-.41,.22h0c-.17,0-.32-.09-.41-.23l-.9-1.39c-.14,.38-.22,.78-.22,1.22Z"/><path class="b" d="M95.29,130.85c.14,.77,.26,1.43,.56,1.97,.32,.59,.83,1.1,1.38,1.64,.11,.11,.21,.21,.32,.32l.66-.96c.14-.21,.42-.28,.65-.16,.9,.48,.99,1.31,1.06,1.91,.04,.36,.07,.56,.16,.68l1.18-3.17c.05-.13,.15-.24,.28-.29l.89-.35c-.13-.09-.26-.18-.39-.27-.08-.06-.18-.12-.27-.17-.28-.17-.59-.37-.8-.68-.32-.48-.62-.97-.91-1.46-.05-.08-.09-.15-.14-.23l-.62,.93c-.1,.14-.25,.22-.42,.22-.09,0-.19-.03-.27-.08l-1.51-.99h0c.15,.2,.32,.42,.41,.69,.07,.2,0,.43-.16,.56-.89,.71-1.58,.26-2.06-.11Z"/><path class="b" d="M144.24,137.08c-1.01-.17-1.63-.79-1.83-1.81-1.71,.02-3.35-.32-4.98-.71-.14-.03-.26-.12-.33-.25-.07-.13-.08-.28-.03-.41l.46-1.23-.31-1.1-2.17,1.38c.11,1.12-.81,1.47-1.45,1.71-.24,.09-.48,.18-.67,.3l.87,.62c.08,.06,.14,.14,.18,.23,.53,1.44,.13,2.76-.35,3.79,.4,.04,.8,0,1.18-.22,.62-.36,1.22-.79,1.81-1.2,.27-.19,.54-.38,.81-.57,.23-.15,.54-.1,.69,.13,.16,.23,.1,.54-.13,.69-.27,.18-.53,.37-.8,.56-.6,.42-1.22,.86-1.88,1.25-1.27,.74-2.53,.25-3.54-.15l-.22-.09c-1.65-.64-2.54-.4-3.53,.95-.65,.88-1.37,1.71-2.06,2.51-.31,.36-.62,.71-.92,1.08-.1,.12-.24,.18-.38,.18-.1,0-.21-.03-.3-.1-.91-.67-1.38-.67-1.82-.4-.05,.61-.23,1.15-.55,1.61-.91,1.28-.74,2.52-.55,3.96,.04,.3,.08,.6,.11,.9,.05,.55,.13,1.1,.21,1.61l.04,.26,1.67,.1c.17,.01,.32,.1,.4,.25,.08,.15,.09,.32,.01,.47l-1.29,2.58,.05,.02c.3,.14,.6,.27,.89,.41,.21,.09,.42,.21,.62,.32,.4,.22,.78,.43,1.09,.43h.05c1.16,0,2.35-.21,3.57-.44,.41-.08,.86-.4,1.1-.78,.12-.19,.18-.38,.15-.51-.31-1.27,.46-1.81,1.03-2.21l.16-.11c.16-.11,.36-.13,.53-.04,.36,.2,.49,.11,.88-.32,.16-.17,.32-.36,.53-.48,.05-.03,.11-.05,.18-.06l1.7-.26c-.16-1.41,.52-2.46,1.12-3.4,.33-.51,.65-1,.8-1.5,.05-.17,.19-.3,.36-.34,.13-.03,.25-.05,.36-.07h.08c.44-.81,.87-1.61,1.25-2.33l.18-.33-.72-.72c-.13-.13-.18-.31-.13-.49,.24-.87,.66-1.54,1.15-2.11-.07-.06-.13-.14-.15-.23-.05-.2-.1-.4-.14-.61-.1-.44-.2-.86-.34-1.27-.15-.43-.34-.85-.54-1.29-.09-.2-.18-.4-.27-.6-.11-.25,0-.55,.26-.66,.25-.11,.55,0,.66,.26,.08,.19,.17,.39,.26,.58,.2,.44,.41,.9,.58,1.38,.16,.46,.26,.92,.37,1.37,.02,.09,.04,.18,.06,.27,.14-.14,.28-.27,.42-.41,.3-.28,.59-.56,.87-.86,.09-.09,.2-.15,.33-.16l2.31-.17c.01-.12,.04-.24,.07-.37,.04-.18,0-.44-.04-.71,0-.03,0-.06-.01-.09Z"/><path class="b" d="M99.68,109.33c-.12,.08-.27,.1-.4,.06-.14-.04-.25-.13-.32-.26l-.7-1.37c-.74,.95-1.09,1.93-1.15,3.15-.06,1.13,.24,1.77,1,2.14,1.83,.87,2.65,2.38,3.21,3.95,1.55-1.01,3.43-1.34,5.85-1.01,.12,.02,.23,.07,.31,.16,1.16,1.3,1.55,2.74,1.15,4.27-.02,.08-.06,.16-.12,.22-.69,.73-1.52,.47-2.12,.28-.58-.18-.81-.22-1.01-.02l.17,.46c.05,.13,.04,.28-.02,.4-.06,.13-.18,.22-.31,.26l-1.44,.39c.8,2.1,2.17,3.61,4.17,4.59,.14,.07,.23,.19,.26,.33h.01c.05-.05,.11-.09,.19-.12l1.08-.36c.21-.07,.44,0,.57,.18l.43,.6c.27,.37,.52,.73,.77,1.08,.33,.48,.75,.74,1.25,.84v-1.48c0-2.01,0-4.02,0-6.04,0-.29,.04-.59,.07-.88l.04-.36c.02-.22,.19-.38,.39-.43,.05-.04,.1-.08,.16-.1,.11-.04,.22-.1,.34-.16,.31-.16,.66-.33,1.05-.33,.36,0,.73-.08,1.13-.17,.9-.2,1.93-.43,3.02,.32,.32,.22,.65,.43,.98,.63,1.29,.81,2.63,1.64,3.32,3.24l.85,.07c.93,.07,1.83,.14,2.74,.2,.17,.01,.36-.01,.55-.03,.44-.04,.93-.09,1.33,.15,.71,.43,1.36,1.12,1.74,1.84,.52,.99,.96,2.02,1.38,3.01,.12,.29,.24,.57,.36,.86l.91-.07c.18-.01,.35,.07,.45,.22,.1,.14,.11,.31,.05,.47l.43,.44c.08-.1,.16-.2,.24-.3,.4-.51,.82-1.04,1.31-1.51,.88-.85,1.78-1.66,2.73-2.51,.4-.35,.8-.71,1.21-1.08,.17-.16,.43-.17,.63-.04,1.3,.93,2.23,.33,3.62-.77l.37-.29c.16-.13,.39-.14,.56-.03,.24,.14,.46,.3,.68,.45,.41,.28,.76,.53,1.1,.6,.44,.1,.93,.07,1.44,.05,.37-.02,.75-.03,1.11,0,.38,.02,.76,0,1.17-.02,.99-.05,2.12-.11,3.15,.57,.16,.11,.31,.23,.46,.36l.1,.08c.05-.11,.11-.21,.16-.32,.27-.53,.55-1.08,.92-1.58l-.67-1.1c-.09-.14-.1-.32-.03-.47,.02-.04,.04-.07,.07-.1l-.21-1.89c-.01-.12,.02-.24,.08-.33,.61-.91,1.6-1.06,2.29-1.1h.19c.72-.04,.91-.08,.95-.71,.04-.62,.29-1.19,.53-1.74,.15-.35,.29-.68,.38-1.01,.13-.49,.29-.99,.74-1.23,.44-.24,.96-.12,1.37,0,1.06,.35,2.27-.14,2.8-.82l-.38-1.91c-.04-.19,.04-.39,.2-.51l2.17-1.54c-.36-.99-.55-1.33-1.19-1.28-1.76,.14-2.71-.95-3.34-1.92-.12-.18-.25-.35-.39-.51-.15-.18-.3-.37-.43-.57-.22-.33-.39-.4-1-.19-.55,.19-1.14,.25-1.66,.29-.2,.02-.4,.04-.58,.06-.15,.02-.3-.03-.41-.13l-1.2-1.13-1.03,1.24c-.1,.13-.27,.2-.43,.18-.16-.01-.31-.11-.39-.25-.43-.76-.82-1.52-1.21-2.27-1.29-2.49-2.52-4.84-4.7-6.75-.95-.27-1.72,.38-2.76,1.39-.15,.14-.29,.28-.43,.41-.15,.14-.38,.17-.57,.08-.45-.23-.88-.47-1.29-.71-.94-.52-1.82-1.02-2.74-1.32-.72-.24-1.44-.55-1.72-1.47-.22-.71-.64-1.04-1.55-1.23-1.35-.28-2.56,.17-3.83,.65-.27,.1-.55,.21-.83,.3-.71,.24-1.4,.51-2.1,.78-2.22,.86-4.51,1.75-7.05,1.79-.1,0-.26,.06-.45,.13-.01,0-.03,.01-.04,.02l.46,1.97s.07,0,.1,0c.27-.03,.52,.17,.55,.45,.03,.27-.17,.52-.45,.55-.14,.01-.31,.01-.48,.01-.11,0-.28,0-.38,0-.42,.64-.78,1.33-1.13,2-.06,.12-.13,.25-.19,.37l1.62,1.07c.17,.11,.25,.31,.22,.51-.35,1.93-1.57,2.08-2.71,2.07-1.16-.01-2.18-.28-3.12-.82-.72-.41-1.31-.14-2.21,.36-1.69,.93-3.1,.83-4.36-.27-.49-.43-1.09-.84-1.83-1.26-1.05-.6-2.52-.66-3.93-.16-1.43,.51-2.56,1.5-3.01,2.66-.04,.1-.02,.31,0,.5,.01,.14,.02,.29,.02,.44,0,.17-.09,.33-.23,.42l-1.12,.73Z"/><path class="b" d="M92.7,127.46c-.14,.05-.3,.03-.42-.04l-.37-.22c-.28-.17-.58-.35-.88-.52l-.38-.23c-.71-.43-1.32-.8-2.15-.61-.51,.11-1.01-.14-1.49-.38h-.02c.07,.06,.15,.14,.23,.21,.95,.94,2.1,2.09,1.5,4.02,.02,.01,.04,.02,.05,.03,.97-.8,1.89-.1,2.46,.33,.1,.07,.2,.14,.28,.19l2.59-.49c.02-.11,.05-.22,.14-.29,.13-.12,.32-.16,.49-.11,.46,.14,.81,.42,1.09,.64,.22,.17,.36,.27,.47,.32-.26-.34-.61-.82-.44-1.48-1.32-1.6-2.16-1.71-3.14-1.36Z"/><path class="b" d="M109.73,138.78l1.69-1.31c.08-.06,.18-.1,.28-.1,.21-.01,.41,0,.61,0,.35,0,.65,.01,.87-.08,1.25-.5,2.27-.07,3.09,.41,.79,.47,1.59,.92,2.39,1.38,.88,.5,1.76,1.01,2.64,1.52,.35,.21,.67,.59,.81,.97,.2,.56,.33,1.08,.4,1.57,.76-.25,1.47,.02,2.07,.4,.21-.25,.43-.5,.64-.74,.68-.79,1.39-1.61,2.02-2.45,.89-1.21,1.83-1.73,3.03-1.67-.04-.89-.25-1.06-1.27-1.27-.54-.11-1.1-.36-1.52-.69l-.19-.15c-.86-.67-1.75-1.37-2.5-2.2-.81-.89-1.71-1.95-2.21-3.15-.27-.65-.53-.67-1.24-.62-.04,0-.19,.08-.3,.15-.13,.07-.28,.15-.47,.24-.13,.06-.29,.06-.43,0s-.24-.18-.27-.33c-.08-.3-.13-.6-.17-.89-.08-.51-.16-.99-.37-1.22-.34-.36-.88-.61-1.46-.87-.2-.09-.39-.18-.59-.27-.19,.12-.38,.22-.58,.33-.83,.47-1.55,.87-1.79,1.85-.15,.61-1.03,.91-1.32,.96-1.31,.24-2.4-.2-3.14-1.26-.24-.35-.49-.7-.76-1.07l-.22-.31-.48,.16,2.22,2.59c.14,.16,.16,.4,.05,.59l-.21,.35c-.09,.15-.25,.24-.43,.24h-2.49l-.39,.56,2.33,3.28c.13,.19,.12,.44-.02,.61-.62,.74-.49,1.55-.29,2.48Z"/><path class="b" d="M141.91,139.68s.06,0,.09,.01c1.03,.2,1.71,.28,2.36-.28-.02-.05-.03-.11-.05-.16l-2.12,.16c-.09,.09-.18,.18-.27,.27Z"/><path class="b" d="M132.42,130.96s-.05-.05-.07-.08l-.66,.05c-.21,.01-.41-.1-.5-.3-.17-.39-.34-.79-.51-1.2-.41-.98-.84-1.99-1.34-2.94-.3-.57-.82-1.12-1.38-1.46-.12-.07-.45-.04-.71-.01-.24,.02-.49,.05-.71,.03-.91-.06-1.82-.13-2.75-.2l-1.16-.09c-.2-.01-.37-.14-.43-.33-.54-1.48-1.75-2.24-3.04-3.04-.34-.21-.68-.43-1.02-.66-.73-.5-1.43-.35-2.24-.17-.43,.1-.87,.19-1.34,.19-.16,0-.38,.11-.6,.22-.13,.06-.25,.12-.38,.18,0,.04,0,.08-.01,.11-.03,.25-.07,.51-.07,.76,0,2.01,0,4.02,0,6.03v1.46c.2-.06,.4-.18,.44-.24,.31-1.35,1.34-1.92,2.25-2.43,.26-.14,.51-.29,.75-.45,.16-.11,.35-.12,.52-.03,.26,.14,.53,.26,.8,.38,.64,.29,1.3,.59,1.78,1.1,.41,.45,.52,1.07,.62,1.73l.03,.18c.18-.1,.36-.17,.56-.18,.71-.05,1.67-.11,2.23,1.23,.44,1.05,1.28,2.03,2.03,2.86,.69,.76,1.55,1.43,2.38,2.08l.19,.15c.3,.24,.71,.42,1.11,.5,1.55,.32,2.03,.87,2.07,2.41,.21,.06,.43,.13,.66,.22l.23,.09c.17,.07,.34,.13,.51,.19,.44-.89,.81-1.93,.45-3.05l-1.23-.88c-.21-.15-.27-.45-.13-.67,.37-.59,1.01-.83,1.52-1.03,.78-.3,.9-.38,.76-.89-.02-.06,0-.12,.01-.18l-1.63-1.68Z"/><polygon class="b" points="110.03 130.85 107.98 128.46 107.58 128.8 108.24 130.85 110.03 130.85"/><path class="b" d="M260,113.65c-.03,.57-.05,1.15-.08,1.72l.16-.13c.17-.14,.41-.15,.59-.03l.78,.52c.08-.26-.06-.41-.51-.9-.27-.29-.7-.76-.94-1.35,0,.05,0,.11,0,.16Z"/><path class="b" d="M82.89,116.42l-.42-.28c-.35,.12-.69,.23-1.04,.34-.85,.27-1.73,.55-2.54,.9-.31,.13-.59,.4-.92,.72-.17,.17-.35,.34-.55,.5-.07,.06-.15,.09-.23,.11l-.7,.13c.72,.72,1.35,1.04,2.26,.96,.03,0,.07,0,.1,0,.39,0,.73,.22,1.04,.42,.11,.07,.22,.15,.33,.2,.08,.04,.13,.09,.18,.16,.05,.01,.11,.03,.16,.05l.34-.5c.4-.58,.81-1.19,1.17-1.8,.04-.07,.05-.25,.05-.41-.1-.06-.17-.16-.21-.28-.05-.19,0-.4,.16-.52l.82-.67Z"/><path class="b" d="M73.58,102.56c-.08,.1-.19,.17-.33,.19-.18,.02-.36,.06-.55,.1-.45,.09-.92,.18-1.41,.12q-1.09-.14-1.38,.76l-.08,.27c-.16,.58-.39,1.37-1.39,1.67-.15,.04-.31,.01-.44-.08l-.18-.14c-.11-.09-.23-.18-.35-.26-1.19-.8-2.12-1.32-3.36-.72-.55,.27-1.32-.05-1.65-.25-.71-.44-1.48-.5-2.28-.52-.38-.01-.73-.08-1.1-.15-.09-.02-.18-.04-.27-.05l-.68,.56c0,.35-.07,.71-.26,1.08l.61,1.52c.08,.21,.02,.44-.16,.58-2.21,1.73-3.04,3.76-2.57,6.19,.89-.6,2.03-.87,3.55-.24,.35,.14,.72,.26,1.11,.39l.3,.1,1.17-1.24c.11-.12,.27-.18,.43-.15l1.01,.14,1.27-.63c.2-.1,.44-.05,.59,.11l.59,.64c.43,.46,.85,.91,1.27,1.37,.69,.76,1.36,1.53,2.04,2.29l.61,.68c1.53-.65,2.17,.33,2.56,.93,.04,.07,.09,.14,.13,.21l2.01,.15c.05,0,.1,.02,.14,.04,.18-.07,.37-.03,.51,.1,.06-.16,.2-.29,.38-.32l1.46-.27c.14-.12,.27-.25,.4-.37,.36-.35,.74-.71,1.21-.91,.86-.37,1.76-.66,2.63-.94,.23-.07,.46-.15,.69-.22,.02-.11,.09-.2,.17-.27,.15-.48,.44-.92,1.2-1.18,.51-.17,.99-.49,1.5-.83l.17-.11c-.03-.08-.05-.17-.03-.25l.49-2.34c-.76-1.17-1.64-1.62-2.85-1.47-.39,.05-.83-.13-1.08-.34-1.11-.89-1.96-1.13-2.94-.82-.13,.04-.27,.03-.39-.03-.12-.06-.21-.17-.25-.3-.36-1.21-1.14-1.94-2.54-2.39-.22-.07-.36-.28-.35-.5l.08-1.39-1.42-.5Z"/><path class="b" d="M36.66,81.98c.08-.44,.15-.86,.3-1.26,.11-.3,.28-.58,.44-.85,.2-.34,.39-.66,.42-.94,.03-.35-.15-.77-.33-1.19-.09-.21-.18-.42-.24-.63-.07-.23,.02-.48,.24-.59l.81-.44-1.42-1.12c-.12-.1-.19-.24-.19-.39,0-.39,0-.81,0-1.23,.01-1.04,.02-2.13-.03-3.22-.07-1.47,.48-2.34,1.78-2.8,.57-.21,1.11-.54,1.68-.9,.06-.04,.13-.08,.19-.12-.02-.05-.03-.1-.03-.16,0-.15-.01-.31-.02-.46-.03-.4-.05-.81,.06-1.23,.29-1.03,.63-2.06,.97-3.05l.39-1.16c.05-.15,.17-.27,.33-.32,.06-.02,.11-.03,.18-.02l1.96-2.75c-.29-1.35,.42-2.4,1.04-3.32l.13-.19c.23-.34,.91-.94,1.48-.78,.29,.08,.5,.09,.6,.02,.22-.15,.29-.86,.32-1.1,.02-.15,.1-.29,.23-.37,.13-.08,.29-.1,.44-.04l1.72,.65,.48-1.33c.04-.11,.12-.2,.22-.26l2.04-1.19c.16-.1,.37-.09,.53,.02,.06,.04,.13,.08,.2,.11,.23,.12,.53,.28,.7,.57,.49,.8,1.26,.95,2.29,1.07,.1,.01,.21,.01,.31,.02,.29,0,.61,.02,.92,.17,.73,.36,1.21,.2,1.61-.54,.22-.41,.39-.87,.56-1.35,.03-.09,.07-.19,.1-.28-.11-.09-.19-.22-.2-.37,0-.16,.06-.31,.18-.42l2.5-2.07c.11-.09,.25-.13,.39-.11,1.42,.21,2.75,.52,3.39,1.99,.06,.15,.18,.3,.31,.46,.16-.11,.33-.21,.5-.32l-1.16-.87c-.14-.11-.22-.28-.2-.46,.02-.18,.13-.33,.3-.4l2.41-1.05-1.64-1.14-1.94,1.16c-.24,.14-.54,.07-.69-.17-.07-.11-.08-.25-.06-.37l-.42-1.08-1.11,1.39s-.07,.06-.12,.09l.09,.3c.07,.27-.08,.54-.35,.61-.04,.01-.09,.02-.13,.02-.22,0-.42-.15-.48-.37l-.11-.38c-.09-.32-.19-.65-.25-.98-.05-.24-.04-.48-.03-.69,0-.05,0-.09,0-.14-.85,.74-1.13,1.68-1.28,2.84-.03,.27-.29,.46-.56,.43-.27-.03-.47-.28-.43-.56,.13-1.06,.38-2.16,1.22-3.09l-.26-.13-1.44,1.41c.04,.1,.04,.21,0,.32-.06,.18-.21,.32-.4,.35l-.76,.13-.57,1.75c-.05,.16-.18,.28-.34,.33-.16,.04-.34,0-.46-.11l-1.2-1.06-.9,1.22c-.12,.17-.34,.24-.54,.18-.88-.26-1.35-.32-1.78,.19-.1,.11-.21,.18-.39,.18-.15,0-.29-.07-.38-.19l-.63-.78-.69,.14-.38,1.25c-.04,.12-.11,.22-.22,.28-.48,.29-1,.26-1.45,.24-.53-.03-.86-.03-1.12,.25l1.16,.86c.12,.09,.2,.23,.2,.39,0,.15-.06,.3-.18,.4-1.34,1.13-1.63,1.04-3.96-.26-.69,.42-.83,.66-.77,1.42l2.08-.14c.17,0,.34,.07,.44,.21,.1,.14,.12,.32,.06,.48-.07,.18-.12,.34-.17,.47-.09,.28-.17,.49-.34,.68l-.61,.65c-.89,.96-1.81,1.94-2.79,2.84-.73,.67-1.15,1.2-1.34,2.14-.18,.87-.66,1.64-1.12,2.38-.19,.3-.37,.59-.54,.89l-.29,.55c-.29,.55-.59,1.11-.94,1.64-.47,.7-.93,1.24-1.41,1.66l-.15,.13c-.23,.2-.44,.38-.64,.57,.06,0,.12,0,.18,.02,.15,.06,.26,.18,.3,.33l.28,.98c.03,.11,.02,.23-.02,.34-.09,.2-.36,.83-.94,.98-.09,.02-.18,.04-.27,.04-.23,0-.48-.1-.73-.25-.07,.02-.14,.02-.2,0-.89-.17-1.26,.25-1.88,1.06-.2,.26-.4,.52-.63,.76-.66,.68-1.56,1.08-2.43,1.48-.34,.15-.68,.31-1,.47-.48,.25-.97,.5-1.45,.73l-.33,.16c0,.33,0,.67,0,1-.03,1.51-.06,2.82,1.14,3.8,.19,.15,.24,.41,.13,.62l-.85,1.6,.81,.21c.13,.03,.24,.12,.31,.23,.07,.12,.08,.26,.05,.39l-.57,2.01,1.82,1.48c1.32,.19,2.46-.36,3.52-1.68,.43-.53,.94-.98,1.43-1.41,.17-.15,.33-.3,.5-.45-.01-.04-.02-.09-.03-.13-.03-.11-.05-.21-.08-.31-.09-.26,.05-.54,.32-.63,.26-.09,.54,.05,.63,.32,.04,.13,.08,.26,.11,.4,.05,.2,.1,.41,.17,.5,.15,.17,.27,.35,.39,.53l.92-.41c.02-.13,.04-.25,.06-.38Z"/><path class="b" d="M260.02,103.19c.24,.79,.51,1.69-.16,2.72-.09,.14-.04,.57,0,.88,.02,.16,.04,.32,.05,.47,.02,.36,.06,.72,.1,1.08,.06,.6,.13,1.21,.12,1.83,0,.46-.02,.93-.04,1.39,.22-.66,.48-1.3,.76-1.97,.15-.36,.31-.72,.46-1.09,.05-.13,.16-.24,.3-.29,.14-.05,.28-.04,.41,.03l1.15,.64c0-.1,.01-.18,0-.22-.91-.94-1.05-2.18-1.17-3.27-.05-.43-.1-.84-.19-1.24-.25-1.11-.54-2.42-.72-3.76-.11-.76-.17-1.53-.23-2.3-.04-.47-.08-.95-.13-1.42-.12,.32-.25,.63-.45,.92-1.05,1.58-.9,3.23-.36,5.24l.11,.36Z"/><path class="b" d="M65.81,49.09c-.15-.19-.31-.4-.42-.65-.38-.87-1.08-1.15-2.4-1.37l-1.87,1.55c.04,.11,.05,.25,0,.37-.08,.21-.16,.42-.24,.64-.18,.49-.36,1.01-.62,1.49-.65,1.2-1.72,1.55-2.93,.96-.11-.05-.31-.06-.5-.07-.14,0-.27,0-.41-.02-.95-.12-2.24-.27-3.02-1.54-.04-.06-.21-.15-.32-.21h0l-.26,.15,1.29,1.62c2.3,.66,3.21,1.47,2.77,4.39l.77,.94c.14,.17,.15,.42,.02,.6-.53,.75-.34,1.54-.12,2.45,.04,.16,.07,.33,.11,.49h0l2.14,1.05c.13,.06,.22,.18,.26,.31l.39,1.38c.05,.18,0,.37-.13,.49-.49,.48-.98,.93-1.46,1.37-1.14,1.05-2.21,2.04-3.1,3.15-.18,.22-.35,.45-.52,.68-.38,.5-.76,1.02-1.23,1.5-.27,.27-.47,.85-.45,1.28,.02,.55,.1,1.09,.19,1.67,.12,.76,.24,1.54,.2,2.33-.08,1.66-.06,2.37,1.32,2.62,.31,.06,.5,.3,.65,.48,.04,.04,.07,.09,.11,.13,.39,.4,.77,.37,1.53,.12,1.4-.45,2.81-.87,4.49-1.37l2.2-.66,5.89-6.51-2.4-1.88c-.18-.14-.24-.39-.15-.6l.62-1.38-.16-.25c-.23-.34-.44-.67-.67-.99-.56-.78-1.01-1.68-.58-2.98,.54-1.66,.37-2.92-.56-3.96-.29-.33-.41-.76-.52-1.13-.04-.14-.08-.29-.13-.42-.06-.16-.03-.34,.07-.48l1.13-1.47-2.08-1.69c-.17-.14-.23-.38-.14-.59,.21-.47,.39-.94,.31-1.24-.31-1.16,.25-2.15,.96-2.77Z"/><path class="b" d="M34.76,68.62l-.05-.16-.4,.25s-.04,.02-.06,.03c.18,.13,.27,.15,.3,.13,0,0,.08-.02,.21-.26Z"/><path class="b" d="M39.82,92.75c.04,.15,.17,.33,.3,.51h0l1.37-1.65c.09-.11,.24-.18,.38-.18,1.39,0,2.1-1.16,2.4-1.85,.53-1.21,.56-2.46,.55-3.65,0-.43,.06-.86,.11-1.24,.02-.16,.04-.31,.06-.46,.03-.24,.22-.43,.46-.44,1.41-.11,2.09-1.03,2.81-2l.1-.14s.06-.22-.04-.6c-.22-.9-.93-2.06-1.47-2.38-.32-.19-.62-.42-.83-.59l-.17-.13c-.13-.09-.21-.24-.21-.4v-3.71c0-.1,.03-.19,.08-.27,.24-.37,.45-.7,.64-1.01,.43-.68,.79-1.25,1.18-1.79l.17-.24c.34-.5,.72-1.06,1.3-1.23,1.17-.35,1.89-1.2,2.65-2.11,.27-.32,.54-.64,.82-.94,.12-.13,.23-.4,.21-.54-.17-1.64,.35-2.98,1.51-3.9,.05-.04,.11-.07,.17-.09l2.25-.67c-.03-.14-.06-.28-.09-.42-.21-.91-.45-1.92,.08-2.93l-.69-.84c-.09-.11-.13-.26-.11-.4,.45-2.67-.16-2.98-2.17-3.53-.1-.03-.19-.09-.26-.17l-1.49-1.86-.49,.29-.59,1.63c-.05,.13-.14,.23-.26,.28-.12,.06-.26,.06-.39,.01l-1.61-.61c-.09,.48-.27,.92-.66,1.19-.37,.25-.84,.28-1.44,.11,0,.03-.27,.21-.37,.37l-.13,.2c-.62,.91-1.15,1.7-.85,2.72,.04,.15,.02,.31-.07,.43l-2.34,3.29c-.07,.09-.16,.16-.27,.19l-.23,.7c-.33,.98-.67,2-.95,3-.07,.25-.05,.56-.03,.89,0,.08,.01,.16,.02,.25l.14,.09c.15,.09,.24,.26,.24,.43,0,.18-.1,.34-.25,.42-.25,.15-.5,.3-.75,.46-.59,.37-1.19,.75-1.87,.99-.88,.32-1.16,.78-1.12,1.82,.05,1.12,.04,2.21,.03,3.27,0,.34,0,.66,0,.98l1.82,1.44c.13,.1,.2,.27,.19,.43s-.11,.32-.26,.4l-1.09,.6c.02,.06,.05,.11,.07,.17,.21,.5,.45,1.06,.4,1.64-.04,.52-.3,.96-.55,1.39-.14,.24-.28,.47-.36,.69-.12,.31-.18,.66-.25,1.07-.04,.21-.07,.43-.12,.66-.03,.16-.14,.29-.29,.36l-1.03,.46c.39,.71,.71,1.45,1,2.18,.29,.71,.56,1.39,.91,2.03,.71,1.3,1.08,2.67,1.44,3.99,.08,.31,.17,.62,.26,.93Z"/><path class="b" d="M216.98,236.49c.09,.3,.39,.4,1.52,.65-.01-.21-.06-.36-.16-.45-.14-.14-.5-.28-1.37-.2Z"/><path class="b" d="M35.07,93.76h0l-.26-.07,.17,.26c.03-.06,.06-.13,.09-.19Z"/><path class="b" d="M37.13,93.96c.01-.06,.03-.11,.05-.16,.1-.27,.21-.54,.33-.81-.5-.09-.79,.01-1.04,.33,.03,.02,.06,.03,.09,.06l.57,.58Z"/><path class="b" d="M267.38,26.49c.79,.27,1.64,.38,2.54,.5,.25,.03,.51,.07,.76,.1,.04-.02,.09-.06,.12-.08l.08-.06c.45-.3,.9-.6,1.35-.91-.88-.41-1.86-.57-2.89-.74-.81-.14-1.65-.28-2.51-.54l-.6,.6c.11,.12,.21,.24,.31,.35,.31,.37,.58,.68,.84,.77Z"/><path class="b" d="M42.13,14.3c-.34,.23-.82,.55-1.5,.43l-.54,.92,.63-.06c.59-.06,1.03,.05,1.36,.32,.24,.2,.37,.49,.45,.84,.17,.05,.34,.12,.52,.21,.25,.13,.34,.43,.21,.67-.13,.25-.43,.34-.67,.21-.72-.38-1.31-.19-2.08,.23,.74,.92,1.12,.95,2.45,.56,.13-.04,.27-.02,.39,.04,.12,.07,.2,.18,.24,.31l.45,1.77h.24c.11-.2,.23-.38,.33-.55,.34-.54,.63-1,.88-1.49,.06-.12,.1-.32,.14-.51,.08-.39,.18-.83,.54-1.07,.97-.63,1.12-1.5,1.05-2.78,0-.12,.03-.24,.11-.34,1.15-1.44,2.49-1.98,4-1.59l.32-.2c-.53-.38-1.11-.66-1.67-.93-1.12-.54-2.27-1.1-2.86-2.36l-1.05,.26c-.14,.03-.3,0-.42-.08-.12-.09-.19-.23-.2-.37l-.06-.95-.16-.07c-.37-.16-.76-.33-1.15-.51-.03,.16-.06,.31-.05,.43,.04,.73,.1,1.45,.16,2.17l.07,.81c0,.08,0,.15-.03,.22,.05,.07,.09,.15,.15,.21,.18,.21,.16,.52-.04,.71-.01,.01-.03,.02-.04,.02,.09,.05,.16,.11,.21,.2l.74,1.49c.08,.16,.07,.35-.03,.5-.1,.15-.27,.23-.45,.22-.32-.02-.61-.05-.87-.07-.51-.05-.92-.08-1.32-.07-.11,0-.27,.1-.44,.22Z"/><path class="b" d="M36.87,9.58c.15,.18,.16,.44,.02,.63l-1.07,1.42,2.67,2.42,.17-.17c.36-.37,.7-.72,1.06-1.03,.35-.31,.73-.59,1.11-.88l.47-.35s.01,0,.02-.01c0-.09,.01-.19,.03-.29,.05-.27,.32-.45,.58-.4,.27,.05,.45,.31,.4,.58-.1,.52,.16,.96,.49,1.43l.85-1.02s.07-.05,.1-.07c-.05-.03-.1-.06-.14-.1-.46-.52-.78-1.13-1.08-1.71-.42-.81-.82-1.57-1.56-2.03-.38,.19-.4,.49-.34,1.2l.02,.27c.02,.28-.2,.51-.47,.53-.27,.03-.51-.2-.53-.47l-.02-.25c-.02-.24-.03-.53,0-.82l-.19-.06c-.37-.11-.74-.23-1.11-.34-.35-.1-.7-.2-1.07-.3l-.36-.1c-1.02,.48-1.56,.89-1.7,1.27-.03,.09-.06,.21-.02,.41,.36-.2,1.03-.5,1.68,.25Z"/><path class="b" d="M53.52,13.9v-.31l-1.26-.38c-.05-.02-.1-.05-.14-.08l-.2,.12-.3,1.12c.68,.1,1.3-.05,1.91-.47Z"/><path class="b" d="M43.95,13.14h0Z"/><path class="b" d="M41.57,13.47c.09-.06,.19-.12,.28-.18-.12-.19-.24-.39-.33-.6l-.1,.08c-.36,.27-.71,.53-1.04,.82-.02,.02-.04,.04-.07,.06,.09-.01,.18-.01,.27,.02,.41,.17,.61,.05,.99-.21Z"/><path class="b" d="M33,132.3c-.54,.05-.72,.14-.78,.21-.06,.09-.09,.36,.13,1.17,.07,.25,.11,.52,.14,.78,.03,.22,.06,.44,.12,.65,.01,.05,.03,.1,.06,.16,.59-.91,.57-1.08,.41-2.35-.02-.18-.05-.39-.08-.62Z"/><path class="b" d="M4.99,102.41l1.18-.61-.58-3.79s0-.02,0-.04c-.15-.03-.3-.05-.44-.08-.65-.11-1.33-.23-1.98-.29-.57-.05-1.14-.04-1.81-.03-.21,0-.44,0-.67,.01l-.65,1.61,1.31,.21c.16,.03,.3,.13,.37,.27,.07,.15,.07,.32-.01,.46l-1.71,3.12c.69,.71,1.37,1.03,1.77,.82,1.04-.55,2.09-1.09,3.22-1.68Z"/><path class="b" d="M7.89,90.17c.07,.53-.25,.93-.48,1.22-.19,.24-.27,.36-.27,.45l1.19-.27c.13-.03,.27,0,.39,.07,.11,.07,.19,.19,.22,.33l.32,1.66c.02,.13,0,.26-.08,.37l-.56,.84c.14,.42,.46,.54,1.01,.65l1.11-.97c.15-.13,.37-.16,.55-.07,.18,.09,.29,.27,.28,.47l-.07,1.47h0l.78,.48c.18,.11,.27,.31,.24,.52-.05,.28-.04,.58-.04,.87,.02,.74,.04,1.85-1.44,2.03l-.96,.1,.59,1.02c.12,.21,.08,.47-.11,.63l-1.93,1.66,1.89,.6c.08-.08,.18-.14,.29-.16l1.35-.17c.16-.21,.46-.26,.67-.11,.23,.15,.29,.46,.14,.69l-.11,.16h0v.02s-.04,.02-.05,.03c0,.08-.02,.16-.06,.24l-.41,.68c-.09,.15-.26,.24-.43,.24-.06,0-.12-.01-.19-.04l-.79-.32s-.07-.04-.11-.07c-.2,.19-.4,.37-.6,.55-.5,.46-1.03,.94-1.49,1.44-.07,.08-.13,.18-.19,.28,.89-.23,1.66-.46,2.19-1.24,.29-.44,.93-.45,1.49-.46h.19c.24-.01,.46,.07,.63,.13,.08,.03,.19,.07,.24,.07,.84,.02,1.68,.02,2.53,.01h.94c.09,0,.17,.02,.24,.06l1.38-1.04-.51-.45c-.21-.18-.22-.5-.04-.7l1.82-2.08c-.52-.71-1.16-.68-1.94-.66-.16,0-.32,.01-.48,.01-.22,0-.42-.15-.48-.36-.07-.23-.13-.47-.19-.7-.41-1.5-.79-2.91-2.03-3.9-.33-.26-.44-.67-.54-1.03-.03-.12-.07-.24-.11-.35-.08-.2-.14-.4-.21-.6-.21-.66-.36-1.09-.8-1.37l-1.32,.49c-.19,.07-.4,.02-.53-.12-.39-.4-.82-.94-.78-1.58,.05-.67,.61-1.19,1.15-1.6,.83-.64,1.28-1.32,1.41-2.16h-2.72c-.19,0-.36-.11-.45-.28-.43-.87,.03-1.58,.41-2.14,.15-.23,.29-.45,.38-.66l-1.81-.5-.41,1.94c-.03,.15-.13,.28-.27,.35-.69,.33-.85,.63-.9,.83-.14,.47,.12,1.21,.78,2.27,.04,.06,.06,.13,.07,.2Z"/><path class="b" d="M6.19,97.05s.06,.01,.09,.02l.58-.64c-.03-.07-.06-.13-.1-.2-.15-.33-.3-.63-.49-.87-.48-.6-1.11-.6-1.58,0-.28,.35-.5,.77-.72,1.22-.02,.03-.03,.06-.05,.09,.47,.06,.94,.14,1.39,.22,.29,.05,.58,.1,.88,.15Z"/><path class="b" d="M323.87,41.04c.57-.32,1.24-.36,1.88-.4,.35-.02,.68-.04,.98-.1,.22-.05,.46-.17,.71-.3-.7-.92-2.08-1.6-2.78-1.45-.3,.31-.66,.58-1.02,.85-.62,.47-1.21,.91-1.46,1.61,.62,.12,1.1,.13,1.69-.21Z"/><path class="b" d="M137.27,130.35c.13-.08,.3-.1,.45-.04,.15,.06,.26,.18,.3,.33l.41,1.47c.06,0,.12,0,.18,0,1.26,.02,1.92-.03,2.16-1.05-.5-1.07-1.48-1.08-2.9-.98-.23,.02-.46-.14-.52-.37l-.23-.86c-.36,.33-.72,.66-1.07,1.01-.44,.42-.82,.9-1.22,1.41-.11,.13-.21,.27-.32,.4l.26,.27,2.5-1.59Z"/><path class="b" d="M259.15,24.14l-.06,.04c.03,.05,.03,.09,.06,.14,0-.07,0-.12,0-.18Z"/><path class="b" d="M33.01,127.9c-.36,.19-.56,.37-.62,.55-.06,.2,.02,.51,.25,.94,.38-.42,.5-.9,.37-1.48Z"/><path class="b" d="M253.51,27.02l.16-.57c.06-.22,.26-.36,.48-.36h4.75l.06-.19c-.4-.23-.54-.65-.64-.93-.07-.22-.13-.42-.27-.52-.13-.1-.2-.25-.19-.41,0-.16,.09-.31,.22-.4l.9-.59c-.04-.09-.1-.17-.16-.22-.21-.19-.6-.28-1.15-.24l-.75,1.25c-.13,.23-.42,.31-.66,.19-.29-.15-.59-.3-.89-.45-.66-.33-1.34-.67-1.99-1.05-.29-.17-.59-.26-.86-.26-.22,0-.44,.05-.63,.17-.54,.31-.87,.99-.88,1.83-.01,.91,.32,1.72,.9,2.23,.44,.38,.99,.57,1.6,.54Z"/><path class="b" d="M50.18,6.5c.15-.1,.33-.11,.49-.03,.1,.05,.18,.13,.23,.23l2.37,.14c.28,.02,.49,.25,.47,.53-.02,.28-.27,.49-.53,.47l-1.19-.07s-.02,.04-.03,.06l-.35,.62,3.09,.3c.09,0,.17,.04,.24,.09l1.7,1.23,1.12-1.39c.09-.11,.25-.21,.39-.22,.95-.06,1.66-.63,2.42-1.23,.24-.19,.48-.39,.74-.57-1.65-1.17-3.06-1.33-4.98-.62-.21,.08-.45,0-.58-.18l-.54-.77-.73,.81c-.12,.13-.31,.19-.48,.16l-3.83-.82c-.19,.11-.4,.2-.61,.3-.56,.27-1.1,.52-1.44,1.01l.94,.67,1.08-.71Z"/><path class="b" d="M53.32,15.25l-1.15,2.14h0l1.44-.73c.14-.07,.31-.07,.46,0,.19,.1,.38,.22,.56,.35,.62,.42,.88,.54,1.33,.24,.56-.39,.84-.69,.92-1.03l-1.64-1.07h-1.16c-.16,0-.29-.08-.39-.19-.11,.06-.22,.11-.33,.15,0,.05-.02,.09-.04,.14Z"/><path class="b" d="M186.63,14.3c1.86-1.56,4.12-1.44,6.31-1.33,1.16,.06,1.91-.31,2.44-1.25l-2.25-2.06-1.23,.37c-.13,.04-.28,.02-.4-.05-.12-.07-.21-.19-.24-.32l-.21-.94c-.1-.06-.21-.08-.35-.07-.27,.02-.54,.18-.73,.43-.57,.75-1.09,1.58-1.59,2.37-.23,.36-.45,.71-.69,1.07l-1.14,1.73,.07,.05Z"/><path class="b" d="M176.93,4.11c.33-.11,.63,.04,.85,.14,.06,.03,.12,.06,.18,.08,.11,.04,.19,.11,.24,.19,.08,0,.16-.01,.24,0l.19-.71c.04-.15,.15-.28,.3-.34,.15-.06,.31-.04,.45,.04l.96,.6,1.33-1.92c-.23-.21-.44-.42-.65-.64-.75-.76-1.4-1.43-2.42-1.56l-.54,1.07c-.04,.08-.09,.14-.16,.19-.52,.36-1.12,.22-1.59,.1-.67-.16-.91-.19-1.12,.31l.12,.62c.03,.15,0,.3-.11,.42l-.74,.88c.75,.89,1.2,.95,2.46,.52Z"/><path class="b" d="M180.39,5.28s-.1,.06-.15,.09c-.19,.12-.44,.27-.73,.29-.24,0-.52-.04-.75-.08-.12-.02-.29-.05-.39-.06-.47,.49-.87,1.06-1.26,1.62-.08,.12-.17,.24-.25,.35,.11,.15,.21,.29,.32,.43,.34,.47,.63,.87,.97,1.16,.26,.22,.7,.33,1.13,.44l.34,.09c.61,.17,1.36,.38,2.08,.46,.41,.05,.83,.04,1.27,.02,.28,0,.57-.01,.85,0,.51,.01,1.02,.04,1.53,.06l-.27-.92c-.05-.17,0-.35,.11-.48l.88-.95c.1-.82,.04-1.33-.17-1.51-.39-.35-1.75,0-2.19,.12-.16,.04-.33,0-.45-.11-.8-.69-1.62-1.05-2.5-1.09-.11,.07-.24,.1-.37,.08Z"/><path class="b" d="M225.46,189.62s-.06-.06-.08-.1c-.78-1.21-1.44-2.77,.34-4.16-.04,.03-.02-.06,0-.12,.03-.12,.05-.26,.12-.39,.4-.9,.21-1.83,.01-2.81-.04-.18-.07-.37-.11-.55l-1.64-.26c-.01,.16-.03,.32-.04,.47-.07,.75-.13,1.45-.13,2.15,0,.75,0,1.74-.98,2.25l1.63,3.89c.37,.04,.52,0,.89-.38Z"/><path class="b" d="M231.11,193.65l-.35,.2,.52,1.44c.24-.16,.49-.39,.5-.65,.01-.27-.23-.62-.68-.99Z"/><path class="b" d="M224.02,191.54c-.11-.01-.16,0-.18,0,.01,0,.02,.05,.05,.13,.23,.52,.54,1,.87,1.52l.02,.03c.17-.51-.13-.92-.66-1.57l-.09-.11Z"/><path class="b" d="M228.49,191.19l-.13-.75-1.79-.48,.2,.53c.75,0,1.26,.33,1.72,.7Z"/><path class="b" d="M204.98,219.3c.95,1.27,1.56,2.67,1.88,4.29,.03,.15,.09,.46,.14,.52,.08,.04,.5,.04,.94,.04,.14,0,.31,.06,.41,.17l1.33,1.48c1.54-.77,3.18-1.15,4.8,.46l1.49,.15c.03-.1,.06-.19,.09-.28,.14-.44,.27-.83,.36-1.22l.04-.17c.08-.34,.17-.75,.09-.96-.42-.99-.23-1.8,.56-2.4,.87-.66,1.13-1.59,1.26-2.78,.04-.4,.2-.77,.35-1.12,.06-.15,.13-.29,.18-.45,.05-.13,.14-.23,.27-.29,.12-.05,.26-.06,.39,0l.76,.31c-.06-.27-.25-.51-.54-.85-.3-.35-.64-.75-.75-1.27-.13-.63-.45-1.26-.76-1.87-.14-.29-.29-.57-.41-.85-.05-.12-.06-.26,0-.39l.44-1.1c-.4-.8-1-.75-1.9-.56-.06,.24-.12,.48-.18,.72-.19,.77-.37,1.49-.64,2.19-.26,.67-.63,1.29-.99,1.89-.12,.2-.23,.39-.34,.59-.51,.89-.86,1.44-1.44,1.58-.55,.12-1.09-.17-1.87-.7-.21,.07-.42,.22-.65,.37-.51,.34-1.2,.8-2.09,.5-.17,.18-.42,.35-.78,.47-.14,.05-.3,.03-.43-.05l-2.12-1.31c-.62,.97-.58,1.95,.13,2.9Z"/><path class="b" d="M221.81,197.12c-.1,.2-.21,.39-.32,.57l.45-.39-.13-.18Z"/><path class="b" d="M228.4,197.04c-.07-.02-.13-.06-.18-.11l-.13,.16c.01,.07,.01,.14,0,.21l-.52,1.92,.17,.16,.9-1.62c.07-.12,.17-.2,.3-.24,0-.06-.01-.11-.03-.16-.08-.17-.31-.27-.49-.33Z"/><path class="b" d="M226.6,195.72v1.03l.53-.27c.07-.03,.13-.05,.2-.05l.48-.6-1.22-.11Z"/><path class="b" d="M224.46,170.27c.25-.91,.42-1.84,.6-2.82,.04-.23,.09-.47,.13-.7-.29,.07-.48,.32-.77,.72-.09,.12-.18,.25-.27,.37-.99,1.23-1.11,2.48-.35,4.09,.26-.56,.51-1.1,.66-1.65Z"/><path class="b" d="M233.11,201.59c0-.73-.12-1.15-.42-1.42l-1.26,.9c-1.07,1.14-1.38,1.29-2.51,.78-.38,.46-.94,.69-1.44,.9-.86,.35-1.29,.57-1.26,1.38l.19,.41c.75-1.83,1.51-2.1,3.6-1.35,.24,.09,.38,.35,.31,.6l-.32,1.25,.88,1.34,.53,.05,.23-.31-.34-.94c-.06-.17-.03-.35,.09-.49l.51-.61-.07-.06c-.21-.19-.22-.5-.03-.71,.19-.21,.5-.22,.71-.03l.69,.63c.26-.39,.3-.72,.1-1.13-.19-.38-.18-.81-.18-1.19Z"/><path class="b" d="M40.14,138.91l-.61,.4c.54,.51,1.2,.74,1.88,.99,.33,.12,.67,.24,1,.4v-1.76h-2.14s-.1,0-.14-.02Z"/><path class="b" d="M200.01,224.93s-.12-.05-.26-.08c0,0,.02,0,.03,.02,.08,0,.16,.02,.23,.06Z"/><path class="b" d="M155.18,200.78c-.06,.23-.12,.47-.18,.7-.21,.78-.42,1.58-.56,2.38-.21,1.2,.56,1.91,1.46,2.72,1.15-.43,1.43-.91,1.22-1.99-.29-1.5-.94-2.78-1.94-3.81Z"/><path class="b" d="M74.4,145.46c-.2,.01-.42,0-.65-.06-.02,.03-.23,.21-.4,.36,.35,.11,.59,.13,.75,.06,.11-.05,.21-.17,.31-.36Z"/><path class="b" d="M198.54,222.91c.07,.4,.17,.67,.41,.87,.04-.38,.02-.63-.07-.73-.04-.05-.14-.1-.34-.14Z"/><path class="b" d="M208.56,216.34c.38,.1,.68-.08,1.16-.4,.35-.23,.74-.5,1.22-.57,.12-.02,.25,0,.36,.08,.4,.27,1.07,.73,1.27,.68,.2-.05,.59-.73,.8-1.1,.12-.2,.24-.4,.36-.6,.35-.59,.68-1.14,.91-1.74,.25-.65,.42-1.34,.6-2.07v-.02l-1.45,.45s-.1,.02-.15,.02c-.08,0-.17-.02-.25-.06l-.48-.27c-.05,.07-.09,.15-.14,.22l-.1,.16c-.27,.43-.5,.88-.76,1.4-.12,.24-.25,.48-.38,.74-.09,.18-.28,.28-.48,.26l-1.27-.1c-.63,.18-1.31,.62-1.24,2.2v.19c.02,.15,.04,.33,.02,.52Z"/><path class="b" d="M206.83,216.33c-.18-.22-.35-.34-.47-.34-.04,0-.1,.03-.15,.07l1.03,.64c-.14-.1-.28-.21-.41-.36Z"/><path class="b" d="M215.33,209.53c.07-.02,.14-.02,.21-.02,.07-.14,.18-.26,.34-.29l.22-.04c.83-.17,2.17-.43,2.96,.9l.79-.1-.28-.47c-.08-.13-.09-.28-.04-.42s.15-.25,.29-.3l1.07-.43c-1.19-.85-2.26-1.9-3.43-3.12-.07,.11-.15,.22-.22,.33-.37,.55-.69,1.03-.92,1.53-.61,1.32-1.48,2.24-2.71,2.88l.1,.05,1.64-.51Z"/><path class="b" d="M210.83,235.11c-.09-.08-.19-.16-.29-.23-.25-.19-.53-.41-.74-.7-.7-.99-1.58-1.15-2.86-.54-1.29,.62-2.45,.48-3.55-.44-.2-.16-.43-.3-.65-.43-1.72-1.01-1.86-1.09-3.74-.11,1.32,1.39,3.07,2.09,5.46,2.19,.75,.03,1.57,.06,2.08,.51,.46,.41,.97,.54,1.65,.42,.41-.07,.81-.11,1.21-.11,1.52,0,2.91,.48,4.14,.97l.69-.31c-1.01-1.01-1.4-1.1-3.07-1.1-.12,0-.24-.04-.33-.12Z"/><path class="b" d="M206.5,178.15l-.85-.15-2.25,1.41,1.01,1.45,1.56-.68-.12-.7c-.02-.12,0-.23,.06-.33l.58-1Z"/><path class="b" d="M104.49,39.51c.18,.85,.48,1.4,.94,1.69,.52,.32,1.29,.35,2.36,.07,.04-.01,.08-.02,.12-.02,.21,0,.4,.13,.47,.34,.02,.07,.06,.15,.09,.23,.1,.23,.22,.51,.2,.83-.03,.35,.04,.62,.19,.79,.22,.25,.61,.31,.91,.32,.81,.03,1.61-.04,2.45-.12,.08,0,.16-.01,.24-.02-1.68-1.96-2.46-4.84-1.69-6.93,.31-.85,.92-1.56,1.51-2.24,.19-.22,.38-.45,.56-.67,.58-.74,1.24-1.45,1.82-2.07l.16-.17c.42-.44,.75-.79,.84-1.36,.1-.61,.9-1.32,1.51-1.34,.67-.02,1.07-.36,1.53-.94,2.55-3.23,6.22-3.98,9.47-4.28,.27-.02,.58-.19,.89-.35l.27-.14c1.21-.63,2.47-1.28,3.67-1.97,.13-.07,.26-.26,.39-.44-.57-.64-1.3-1.04-2.02-1.09-.61-.05-1.14,.15-1.55,.57-1.5,1.51-3.27,1.7-4.98,1.89-.33,.04-.66,.07-.99,.12-.35,.05-.7,.08-1.05,.12-1.53,.16-2.98,.3-4.06,1.52-.26,.29-.64,.37-.98,.45-.1,.02-.21,.04-.3,.07-.11,.04-.23,.06-.35,.08-.13,.03-.28,.06-.34,.1l-.45,.32c-1.59,1.13-3.1,2.19-4.14,3.84-.66,1.03-1.46,1.99-2.23,2.91-.29,.35-.58,.69-.87,1.05l.25,.74c.07,.22-.01,.46-.21,.58-1.8,1.12-2.62,2.24-2.72,3.74-.01,.2-.14,.37-.32,.44-.18,.07-.39,.02-.53-.12l-.06-.06-1.3,1.13,.15,.15c.07,.07,.12,.16,.13,.25Z"/><path class="b" d="M80.32,141.06l1.97-.63c.14-.04,.29-.02,.42,.05,.34,.21,1.52,.85,2.47,.1,1.18-.93,2.39-1.11,3.7-.56l1.32-1.1c.17-.14,.41-.15,.59-.03,.78,.51,.85,.5,2.11,.36-.22-.52-.45-1.06-.53-1.65-.1-.73-.08-1.46-.06-2.18,0-.3,.02-.59,.02-.89,0-.08,.02-.15,.06-.22-.26-.18-.54-.32-.84-.37-.24-.04-.42-.25-.42-.49v-2.25c-.08-.05-.3-.19-.52-.35-.75-.57-.97-.66-1.38-.2-.29,.33-.66,.11-.91-.03l-.15-.08s-.02-.01-.03-.02c-1.26,.61-2.82,1.19-4.95,1.07-1.72-.1-3.25-.5-4.97-1.29-.52-.24-.93-.52-1.22-.83-.69-.72-1.46-.83-2.42-.36-.56,.27-1.1,.57-1.65,.87-.49,.27-.98,.54-1.48,.79-.4,.2-.86,.34-1.35,.41-.57,.08-1.13,.14-1.7,.2,.11,.16,.12,.38,.01,.55-1.18,1.84-2.8,1.53-4.1,1.28-.38-.07-.74-.12-1.09-.15l-.43,1.44,1.04,.37c.23,.08,.37,.32,.33,.57l-.46,2.36c.12,.23,.23,.48,.34,.74,.43,1,.85,1.94,2.14,2.27,.51,.13,.92,.5,1.32,.85,.13,.12,.27,.24,.41,.36h.69l.02-.03c.32-.67,.79-1.67,2.23-1.57,.1,0,.19,.04,.27,.1l2.26,1.75,1.17-.13,1.3-1.37c.15-.16,.4-.2,.59-.1,.91,.47,1.69,.3,2.46-.57,.1-.12,.25-.18,.41-.17,.16,.01,.3,.09,.38,.22l.61,.92Z"/><path class="b" d="M79.3,145.83c.09,.1,.22,.21,.35,.31,.37,.31,.76,.63,.66,1.08-.09,.44-.38,.79-.64,1.1-.11,.13-.22,.27-.32,.41-.07,.1-.11,.22-.16,.33-.09,.22-.2,.46-.39,.67,.02,.06,.03,.13,.03,.19v.21c.05,.02,.12,.05,.17,.09l.98,.79c.49-.37,.98-.74,1.46-1.11,1.35-1.04,2.75-2.11,4.21-3.02,1.07-.66,1.52-1.44,1.51-2.62,0-1.16,0-2.44,.87-3.47-.78-.2-1.48,0-2.23,.58-.94,.74-2.21,.77-3.42,.09l-1.91,.61c-1.27,.62-1.77,1.91-1.3,3.49,.05,.18,.11,.26,.13,.28Z"/><path class="b" d="M199.31,194.22c.98-1.44,1.36-2.65,1.22-3.86-.08,0-.16-.02-.23-.07l-.91-.61-.84,.56c-.21,.14-.49,.1-.65-.09l-.45-.52-3.43,.51c-.98,.9-1.1,1.45-.65,2.79,.1,.29,.07,.59,.05,.84,0,.09-.01,.18-.01,.27,0,.02,0,.04-.01,.06,.33,.45,.61,.98,.81,1.59,.25,.74,.65,1.09,1.43,1.23,.38,.07,.71,.15,.98,.26,.26-.28,.53-.55,.8-.83,.7-.7,1.36-1.37,1.88-2.13Z"/><path class="b" d="M62.92,132.03c.34-1.07,1.25-1.48,2.04-1.79-.16-.3-.3-.57-.48-.79-.02-.02-.02-.04-.04-.07h0l-1.59-.07c-.09,.13-.2,.29-.31,.45-.14,.21-.28,.42-.46,.68,.04,.07,.06,.15,.06,.23v.73c.27,.17,.53,.37,.76,.61,0,0,0,0,.01,0Z"/><path class="b" d="M191.57,175.09c-.59,.06-1.16,0-1.73-.16l-.46,1.57c.04,.06,.07,.12,.08,.19,.02,.02,.04,.04,.06,.06,.12,.21,.26,.41,.39,.61,.33,.51,.67,1.04,.94,1.61,.19,.39,.18,.83,.18,1.22v.29c.01,.32,.01,.64,.01,.97,.58-.48,1.44-1.19,2.55-.46l.93-.47c.14-.07,.3-.07,.44,0,1.33,.64,1.87,1.84,2.19,2.81,.27,.81,.61,1.53,1.02,2.16,.73,1.11,.73,2.23-.01,3.42l.23,.27,.75-.5c.17-.11,.39-.11,.55,0l.87,.58s.09-.08,.12-.11c0-.18,.02-.36,.03-.54,.07-1.24,.13-2.3-.71-3.23-1.4-1.55-2.76-3.18-4.08-4.75l-.25-.3c-.26-.31-.46-.64-.66-.96-.08-.13-.16-.26-.24-.38-.13-.2-.1-.46,.06-.63,.07-.07,.12-.13,.17-.18,.12-.13,.26-.3,.51-.33,.74-.07,.85-.25,.86-.27,.03-.07,.01-.31-.28-.78-.53-.87-.83-1.02-2.05-.58-.24,.08-.5-.02-.61-.24l-1.51-2.94s-.06,.05-.06,.05c-.03,.06,.05,.31,.09,.45,.11,.35,.26,.84,0,1.31-.08,.14-.22,.24-.39,.26Z"/><path class="b" d="M76.16,156.44c-.17-.45-.4-.88-.67-1.38-.06-.12-.13-.25-.19-.37l-1.22-.14-.76,.57c0,.15,0,.3,.01,.45,.02,.6,.03,1.22,.11,1.82,.03,.21,.2,.49,.29,.54,1.44,.61,1.39,1.75,1.32,2.63l1.07-1.48s.04-.04,.06-.06c.01-.26,.05-.52,.17-.79,.27-.62,.09-1.07-.15-1.7l-.04-.09Z"/><path class="b" d="M62.19,128.52c.1-.14,.25-.23,.43-.21l1.36,.06c-.07-.45,.03-.91,.32-1.43,.16-.29,.21-.68,.26-1.1,.02-.15,.04-.31,.06-.45-.36-.77-.68-1.18-1.03-1.31-.35-.13-.85-.03-1.63,.33l-.18,.08c-.88,.41-1.88,.87-3.12,.34-.13-.05-.45,.01-.77,.08-.24,.05-.51,.1-.8,.14-.18,.03-.38-.06-.48-.23l-.22-.35c-.09-.14-.19-.3-.29-.46-.19,.12-.24,.22-.25,.25-.02,.08,.04,.19,.09,.27,.71,1.05,.73,2.13,.08,3.23l1.18,1.6,3.92,.73,.09-.14c.19-.29,.34-.51,.49-.73,.16-.23,.32-.45,.41-.59l.07-.1Z"/><path class="b" d="M145.18,131.05l1.83,.7,1.65-1.53c.13-.12,.31-.16,.48-.11,.43,.13,.77-.11,1.32-.54,.31-.24,.63-.49,1.02-.67,.79-.35,1.3-.89,1.7-1.51-.02-.01-.03-.01-.05-.03l-.2-.16c-.12-.1-.24-.2-.37-.29-.76-.5-1.63-.46-2.55-.41-.42,.02-.85,.04-1.29,.02-.33-.02-.67,0-1,0-.56,.02-1.13,.05-1.7-.07-.54-.12-.99-.43-1.46-.76-.11-.08-.22-.15-.33-.23l-.08,.07c-1.18,.93-2.64,2.08-4.48,1.02-.31,.28-.62,.56-.93,.83-.28,.25-.54,.48-.81,.72,0,.02,.02,.03,.03,.05l.24,.9c1.28-.08,2.83-.01,3.55,1.76,.04,.09,.04,.18,.03,.27-.37,2.04-1.99,2.02-3.18,2.01h-.15l-.23,.6c1.44,.33,2.89,.59,4.4,.54l1.96-3.01c.13-.2,.38-.28,.6-.19Z"/><path class="b" d="M78.27,148.66c.07-.17,.15-.33,.24-.48,.11-.17,.25-.34,.39-.5,.16-.19,.31-.37,.38-.53-.04-.03-.08-.07-.12-.11l-.07,.08c-.49,.61-.96,1.19-1.14,2.01,.05-.03,.09-.05,.11-.08,.08-.08,.14-.23,.21-.39Z"/><path class="b" d="M77.78,150.53c-.36,.37-.55,.67-.52,1.01,.14-.08,.29-.13,.46-.14l.05-.87Z"/><path class="b" d="M56.28,138.39l-.26,.04c-.24,.04-.48,.07-.71,.08-.72,.03-.85,.18-.87,.21-.02,.03-.09,.19,.15,.77,.32,.77,.95,1.47,1.45,1.99,.03,.02,.13,.03,.23,.04l-.44-.61c-.08-.1-.11-.24-.09-.36l.11-.78c.02-.11,.07-.21,.14-.28,.23-.24,.48-.45,.72-.65-.09-.09-.18-.17-.26-.26-.06-.06-.12-.12-.17-.18Z"/><path class="b" d="M49.79,122.5c.14-.44,.06-.63-.19-.8-.54,.35-1.14,.25-1.6,.17l-.23-.04c-1.15-.17-2.09-.28-2.95-.34l.76,3.21s0,.04,0,.06c.41,.26,.83,.51,1.25,.75,.48,.27,.96,.55,1.44,.86,0-.01,0-.03,.02-.04l1.62-2.37c-.2-.57-.23-1.04-.1-1.46Z"/><path class="b" d="M51.93,127.21c.72,.88,1.34,.7,2.48,.3,.24-.08,.48-.16,.73-.24,.47-.77,.48-1.46-.01-2.2-.3-.45-.29-.83-.23-1.07,.06-.22,.23-.53,.63-.8-.1-.11-.19-.2-.24-.24-1.31,.25-1.83-.64-2.25-1.36-.1-.18-.22-.33-.33-.49-.37-.5-.83-1.12-.67-2.04,0,0,0-.03-.01-.05-.37,.08-.78,.1-1.22,.04-.13-.02-.27-.01-.44,0h-.12l-.5,.58,.42,1.12s.01,.09,.02,.13c.64,.46,.85,1.09,.58,1.91-.07,.23-.02,.57,.17,1.02,.06,.16,.05,.33-.05,.48l-1.77,2.58s-.03,.03-.05,.04c.3,.24,.58,.49,.85,.78,.03,.03,.05,.06,.07,.09l1.34-.72c.21-.11,.47-.06,.62,.12Z"/><path class="b" d="M44.03,120.8c.18-.13,.49-.34,.85-.31,.89,.06,1.86,.17,3.04,.35l.25,.04c.49,.09,.73,.11,.94-.05l-.34-.89-.91,.08s-.03,0-.04,0c-.09,0-.19-.03-.27-.08l-2.6-1.63s-.05,.05-.08,.07c-.06,.05-.14,.12-.16,.15-.45,1.08-1.13,1.61-1.88,1.85,.02,1.39,.49,2.49,1.51,3.44l-.58-2.45c-.05-.23,.06-.46,.27-.57Z"/><path class="b" d="M197.57,171.29c-.75,.76-1.68,1.11-2.86,1.09-.45,.01-.93,.12-1.44,.26-.13,.03-.25,.06-.38,.09l1.23,2.4c1.34-.39,2.09-.07,2.83,1.14,.28,.46,.62,1.14,.32,1.75-.27,.54-.9,.72-1.43,.79l.02,.03c.18,.29,.36,.59,.57,.84l.25,.3c1.31,1.56,2.67,3.18,4.06,4.72,1.12,1.24,1.03,2.69,.96,3.96-.01,.2-.02,.4-.03,.6,0,.2-.1,.37-.22,.51,.43,2.11-.54,3.87-1.32,5.01-.57,.84-1.29,1.57-1.99,2.28-.24,.24-.47,.48-.7,.72h.01c.3,.52,.2,1.15-.09,2.06-.06,.2-.11,.4-.15,.61,1.25-.62,1.89-1.76,2.47-2.97,.07-.15,.21-.25,.37-.28l.46-.08c.25-.04,.45-.08,.64-.1,1.22-.12,2.7-1.6,2.78-2.78,.24-3.63-.62-6.66-2.65-9.26-.25-.33-.5-.65-.75-.98-.57-.74-1.15-1.51-1.76-2.23-.76-.9-.94-2.05-.51-3.24,.3-.83,.78-1.59,1.24-2.32,.19-.3,.38-.6,.55-.9,.1-.17,.2-.33,.27-.46l-1.25-2.74-1.5-.83Z"/><path class="b" d="M54.74,128.46c-.5,.18-1.05,.37-1.61,.38,0,.15-.01,.31-.03,.46-.04,.49-.09,.96,.05,1.29,.05,.11,.09,.23,.12,.34,.02,0,.04-.01,.05-.02,.33-.15,.69-.31,1.1-.33,.66-.02,1.21-.29,1.82-.85l-1.05-1.42c-.15,.05-.3,.1-.46,.16Z"/><path class="b" d="M236.17,128.97c-.13,.13-.31,.17-.49,.12l-1.51-.43-1.68,1.68c-.39,.38-.78,.76-1.14,1.17-.22,.24-.4,.53-.59,.83-.03,.04-.06,.09-.09,.13,.35,.25,.7,.58,1.04,1.01,.09,.11,.12,.26,.1,.4l-.49,2.8c.56,.16,1.07,.13,1.66,.09,.73-.06,1.22-.42,1.78-.83,.18-.13,.36-.25,.55-.37-.47-.79-.7-1.7-.94-2.7-.05-.19,.02-.41,.18-.53,.21-.15,.41-.32,.62-.49,.53-.43,1.07-.87,1.71-1.21,.56-.3,.79-.6,1-1.28,.33-1.1,.89-2.19,1.57-3.13l-.26-.21-2.99,2.95Z"/><path class="b" d="M54.46,131.57c-.21,0-.46,.12-.72,.24-.1,.04-.2,.08-.3,.12-.03,.7-.38,1.33-1.07,1.9-.09,.08-.19,.2-.33,.4-.03,.03-.05,.07-.08,.11l.92,.95c.11-.06,.25-.08,.38-.05,.17,.05,.31,.19,.35,.36l.29,1.14c1.59-.62,2.55,.38,3.28,1.12,.09,.09,.18,.18,.28,.27,.14-.15,.25-.31,.32-.46,.13-.32,.08-.39-.45-.73-.33-.2-.7-.43-.89-.85-.08-.16-.17-.33-.26-.5-.21-.41-.43-.82-.6-1.25-.03-.08-.07-.16-.12-.24-.21-.4-.7-1.35,.52-2.02,.16-.09,.34-.08,.5,0l.86,.51s.04-.08,.06-.12c.35-.73,.82-1.62,2.01-1.73l-2.31-.43c-.83,.82-1.63,1.2-2.6,1.23Z"/><path class="b" d="M52.24,130.99c-.24-.56-.19-1.18-.13-1.77,.02-.2,.03-.39,.04-.58-.24-.11-.47-.25-.7-.48l-.88,.47c.58,.99,.8,2.1,.62,3.22-.12,.69-.01,1.1,.35,1.43,.06-.07,.13-.14,.2-.2,.77-.64,.9-1.18,.51-2.08Z"/><path class="b" d="M77.48,157.25q1.23,.66,2.13-.57c.18-.24,.46-.28,.64-.3,.04,0,.07,0,.11-.02,.02,0,.05,0,.07,0l1.13-1.05-.33-.63c-.05-.09-.05-.19-.04-.28-.12-.07-.21-.18-.24-.32l-.32-1.44c-.04-.18,.02-.37,.17-.49,.14-.12,.34-.15,.51-.08,1.38,.58,1.99,.21,2.46-.52l-.19-1.97s0-.04,0-.06c-.51,.38-1.02,.77-1.55,1.17-.59,.45-1.18,.91-1.78,1.35-.09,.07-.19,.1-.3,.1-.11,0-.22-.04-.31-.11l-.92-.73-.03,.55c0,.06-.02,.13-.05,.18,.05,.11,.1,.22,.14,.36,.08,.26-.06,.54-.33,.63-.05,.02-.1,.02-.15,.02-.21,0-.41-.14-.48-.35-.05-.16-.09-.24-.12-.28-.02,.03-.11,.09-.24,.23-.1,.1-.22,.15-.35,.16l-.99,1.36c.08,.15,.16,.3,.23,.44,.27,.51,.52,.98,.71,1.49,.15,.38,.29,.76,.36,1.17,0,0,.02,0,.03,0Z"/><path class="b" d="M234.36,137.38l.24,1.75c.02,.14-.03,.29-.12,.4l-.54,.61,.56,.75c.15,.2,.13,.48-.05,.66-.74,.71-.67,1.5-.6,2.4,.02,.21,.03,.43,.04,.65l1.23-.18,.76-.86c.09-.11,.23-.17,.38-.17q1.48,0,1.67-1.36c.03-.18,.08-.34,.13-.5,.05-.14,.09-.28,.09-.37v-.11c-.11-1.66-.22-3.23-1.59-4.16-.24-.17-.45-.35-.63-.54-.2,.12-.39,.25-.57,.39-.3,.22-.61,.45-.98,.63Z"/><path class="b" d="M113.01,174.46c.12,1.78-.8,3.32-2.53,4.22-.52,.27-1,.59-1.51,.93-.56,.37-1.14,.76-1.76,1.06-.05,.02-.1,.05-.15,.07l1.42,3.91,1.05-.39c.08-.03,.17-.04,.26-.02l1,.17,4.47-4.63,.51-2.41c.04-.18,.17-.32,.34-.38,1.68-.52,2.3-1.8,2.96-3.15l.11-.23c-.73-1.71-2.12-2.57-3.73-3.55-.39-.24-.78-.48-1.17-.74l-1.81,3.51c.31,.43,.5,.97,.54,1.62Z"/><path class="b" d="M157.16,159.75c.36,.18,.71,.4,1.05,.62,.97,.6,1.88,1.18,3.07,.95,.65-.12,1.42,.44,1.77,.87,1.13,1.42,2.59,1.46,4.37,1.28l-.28-2.25c-.15,0-.3-.02-.44-.02-.62-.03-1.21-.06-1.8-.15-1.29-.2-2.26-.95-3.19-1.67l-1.84-1.41c-.14-.11-.2-.27-.18-.44-.18,.09-.4,.08-.56-.07l-2.02-1.79c-1.55,.41-2.3,1.28-2.33,2.69,.18,.11,.36,.22,.54,.33,.6,.36,1.22,.74,1.86,1.06Z"/><path class="b" d="M92.5,183.54c.97-.23,1.99-.16,2.97-.09l.64,.04c.68,.04,1.34,.13,2.04,.23,.19,.03,.38,.05,.58,.08,1.04-2.08,2.88-3.17,5.59-3.35,.8-.05,1.67-.29,2.44-.67,.56-.28,1.09-.63,1.65-1,.51-.34,1.04-.69,1.61-.99,1.36-.71,2.09-1.89,1.99-3.26-.04-.57-.2-1-.5-1.3-1.71,.45-4-.19-5.25-1.49-.72-.76-1.06-1.59-1.22-2.41-.07-.02-.13-.05-.18-.1l-1.58-1.42c-.15-.13-.2-.34-.14-.53l.04-.11c-.76-.58-.59-1.41-.48-1.93,.04-.19,.07-.37,.08-.53-.43-.44-.84-.92-1.23-1.39l-.43-.5c-.55-.64-1.04-1.32-1.56-2.03-.16-.22-.33-.46-.51-.69-.06-.02-.13-.05-.18-.1l-1.79-1.61-.28,.1c-.43,.14-.85,.29-1.28,.42-.33,.1-.65,.16-.95,.16-.58,0-1.1-.2-1.57-.6-.44-.38-.91-.73-1.38-1.08-.21-.16-.42-.31-.63-.47-.01-.01-.02-.03-.03-.04-.11-.02-.22-.07-.29-.17l-1.44-1.8c-.04-.05-.07-.11-.09-.17-.14-.07-.27-.15-.41-.22-.5-.25-1.02-.51-1.46-.89-.94-.83-1.8-1.24-2.75-1.36-.67,.93-1.56,1.28-2.71,1.03l.13,.59c.01,.06,0,.11,0,.17,.08,.05,.15,.11,.19,.19l.5,.97c.1,.2,.06,.44-.1,.6l-2.18,2.03c-.1,.09-.22,.13-.34,.13-.04,0-.07-.01-.1-.02-.46,.53-.83,.77-1.29,.77-.34,0-.73-.14-1.23-.38-.03,.1-.06,.2-.11,.31-.35,.81,.35,1.79,.67,2.17,.61,.75,.97,1.49,1.35,2.31,.13,.29,.39,.56,.66,.85,.11,.12,.22,.24,.32,.36,.9,1.05,1.32,2.06,1.29,3.1-.02,.74,.26,1.3,.94,1.88,1.37,1.17,2.02,2.67,1.98,4.6-.04,1.73,.62,2.96,2.01,3.77,.36,.21,.88,.55,1.14,1.04,.61,1.16,1.2,2.33,1.78,3.5,.33,.67,.67,1.34,1.01,2.01,.13,.25,.27,.48,.41,.72,.32-.61,.83-1.2,1.68-1.4Z"/><path class="b" d="M168.21,168.98l-.18-.9c-.15-.03-.28-.13-.35-.27-.08-.17-.07-.37,.05-.52l.88-1.2-.78-1.57s-.09-.03-.13-.07c0,0,0-.01-.02-.02-.47,.05-.98,.11-1.51,.11-1.33,0-2.76-.32-3.89-1.74-.23-.29-.69-.52-.81-.51-1.58,.29-2.75-.44-3.78-1.09-.32-.2-.65-.4-.98-.57-.67-.34-1.31-.73-1.92-1.1-.26-.16-.52-.31-.77-.46-.15-.09-.24-.24-.25-.41-.05-1.25,.35-2.24,1.13-2.95l-.47-.38c-.71-.57-1.42-1.14-2.13-1.7-.56-.44-1.13-.98-1.19-1.68-.06-.69,.42-1.31,.88-1.82,.16-.18,.31-.41,.49-.69,.02-.04,.05-.08,.08-.12l-.93-.66c-.17-.12-.25-.33-.2-.53l.35-1.39c-1.07-.93-1.61-1.99-1.67-3.22l-.46,.08-.15,1.55c-.02,.18-.13,.33-.29,.41-1.15,.53-2.45,1.13-4.02,.36-.29-.14-.54-.18-.67-.09-.17,.1-.27,.41-.27,.83,0,.16,0,.31,0,.47,0,.29,0,.59-.01,.88-.05,.68,.14,1.13,.63,1.49,.3,.22,.52,.5,.74,.77,.09,.11,.17,.21,.26,.31,.13,.15,.17,.36,.08,.54-.04,.08-.08,.15-.11,.21-.09,2.34-1.37,4.03-2.6,5.67-.22,.29-.43,.58-.65,.87-.56,.78-1.07,1.6-1.54,2.37l-.19,.31c-.95,1.57-1.26,1.69-3,.94-.54,.26-1.09,.58-1.18,.88-.07,.25,.12,.69,.61,1.42,.54,.8,1.03,1.71,1.59,2.96,.17,.37,.09,.76,.04,1.08-.02,.09-.03,.18-.04,.25-.01,.18-.12,.33-.27,.41l-1.78,.9c-.14,.07-.31,.07-.44,0l-1.03-.5-.73,.86,.8,1.54,1.85,.57s.07,.04,.1,.05c.19-.05,.41,.03,.53,.2,.16,.23,.1,.54-.13,.69l-1.36,.93c.26,.28,.49,.58,.72,.88,.5,.67,.98,1.3,1.76,1.58l1.95-2.48c-.08-.11-.16-.22-.22-.36-.1-.26,.03-.55,.29-.64,.26-.1,.55,.03,.64,.29,.06,.17,.24,.33,.42,.51,.4,.38,1.01,.96,.67,1.99-.48,1.45-.13,2.84,.23,4.32,.24,.99,.5,2.02,.49,3.08-.02,2.54,.77,5.01,2.46,7.78,.24,.38,.34,.73,.3,1.03-.18,1.51,.55,2.73,1.31,4.02l.34,.58c.59,1.03,.84,2,.77,3.06-.07,1.17,.57,1.99,1.42,2.98,.27-.32,.57-.6,.87-.87,.68-.63,1.27-1.18,1.39-2.09,.03-.24,.16-.58,.41-.79,.77-.64,.87-1.49,.93-2.53,.05-.82,.19-1.63,.34-2.41,.13-.71,.26-1.44,.31-2.16,.05-.68-.04-1.37-.13-2.18-.05-.4-.1-.81-.14-1.26-.01-.16,.05-.32,.18-.43l3.37-2.79v-.54c0-.15,.07-.29,.19-.39l.82-.66c.86-.69,1.7-1.38,2.54-2.06l.11-.09c.07-.05,.18-.14,.21-.18,.44-1.38,1.43-2.24,2.4-3.08,.52-.45,1.01-.87,1.41-1.37,.06-.08,.13-.15,.2-.22,.06-.06,.15-.15,.17-.19,.34-1.49,1.29-2.25,2.87-2.33,.11,0,.36-.22,.52-.37,.08-.07,.15-.12,.23-.19-.18-.31-.3-.7-.39-1.22-.16-.99-.36-1.97-.57-2.95Z"/><path class="b" d="M171.57,167.32c-.22,.05-.53-.04-.63-.25-.09-.19-.18-.38-.27-.57-.47-1.02-.85-1.72-1.69-1.91l.67,1.34c.08,.17,.07,.37-.04,.52l-.7,.94s.03,.07,.04,.11l.26,1.28c.2,.99,.41,1.99,.57,2.99,.17,1.01,.29,1.26,1.29,1.26l.57-1.94c.04-.15,.16-.28,.31-.33,.14-.05,.29-.03,.41,.04-.13-.18-.14-.43,.01-.61l2.15-2.61c-.78-.69-1.66-.55-2.94-.26Z"/><path class="b" d="M152.46,146.04c.06-.03,.11-.06,.17-.08,.74-.35,1.38-.66,1.58-1.4l-1.4-1.5-1.74,.3c.02,1.02,.46,1.89,1.38,2.67,0,0,0,.01,.01,.02Z"/><path class="b" d="M191.04,208.23c-.51-.34-.74-.88-.93-1.31-.22-.51-.33-.71-.6-.71,.31,.96,.4,1.97,.46,3.05,.02,.29,.16,.61,.32,.95,.13,.28,.26,.57,.34,.88,.43,1.65,1.66,2.64,2.96,3.69,.34,.27,.68,.55,1,.83,.09,.08,.37,.11,.61,.13,.03-.73-.13-.93-1.09-1.92-.12-.13-.17-.31-.12-.49,.67-2.36,.06-4.35-1.88-6.22l-.32,.87c-.05,.14-.17,.25-.32,.3-.05,.02-.1,.02-.15,.02-.1,0-.19-.03-.28-.08Z"/><path class="b" d="M176.44,169.9l.19-.76c.05-.21,.24-.37,.46-.38,1.04-.06,1.26-.53,1.32-1.5,.04-.62,.27-1.22,.48-1.76,.12-.3,.24-.53,.37-.76,.14-.24,.27-.48,.33-.7,.42-1.65,1.39-2.5,2.89-2.53,.28,0,.38-.04,.46-.66,.03-.23,.02-.48,.02-.74,0-.1,0-.2,0-.29-.05,0-.1-.02-.16-.03-.25-.04-.5-.08-.76-.13-.23-.05-.4-.25-.4-.49v-1.37c-.16,0-.32,0-.48-.01-.6-.02-1.16-.04-1.5,.15-.35,.19-.71,.36-1.08,.53-1.22,.57-2.38,1.11-2.99,2.56-.02,.04-.04,.07-.07,.1,.11,.71-.03,1.35-.43,1.83-.42,.5-1.06,.77-1.83,.77-.13,0-.27,0-.41-.02-.45-.05-.92-.03-1.29-.02-.16,0-.3,.01-.42,.01-1.8-.35-2.05-1.46-2.08-2.44-.21,.04-.42,.06-.64,.08-.08,0-.15,.02-.23,.03l.27,2.16h.06c1.92,0,2.56,1.4,3.08,2.55l.08,.19c1.33-.28,2.72-.44,3.9,.96,.16,.18,.16,.45,0,.64l-2.15,2.6,.08,.08,1.47-1.17c.16-.12,.37-.14,.55-.05l.35,.19c.19,.1,.29,.31,.26,.52l-.37,2.23,.08,.1s.07-.08,.11-.12c0-.04,0-.09,0-.13,0-.13,.02-.26,.04-.37,.14-.61,.29-1.22,.44-1.84Z"/><path class="b" d="M185.2,184.63c-.91-1.21-1.44-2.46-1.52-3.63,0-.06,0-.12,.02-.17l.75-2.62c.07-.23,.27-.39,.52-.36,.73,.06,1.29-.21,1.84-.88,.27-.33,.71-.89,1.37-.96,.1,0,.2,0,.29,0l.43-1.47c-.59-.31-1.2-.73-1.84-1.3-.09-.08-.15-.2-.17-.32-.07-.66-.45-1.53-.86-2.45l-.11-.25c-.46-1.05-.74-1.61-1.49-1.79-.14-.03-.25-.12-.32-.25s-.08-.27-.03-.41c.18-.5,.36-.99,.54-1.47,.4-1.07,.78-2.08,1.05-3.11,.23-.89-.72-2.72-1.61-3.1-.04-.02-.08-.02-.12-.04v.03c.01,.3,.02,.6-.02,.92-.06,.45-.21,1.49-1.43,1.52-1.05,.02-1.63,.55-1.94,1.77-.09,.35-.26,.65-.42,.94-.1,.18-.21,.36-.28,.56-.21,.56-.41,1.06-.44,1.53-.07,1-.35,2.15-1.89,2.39l-.1,.42c-.15,.61-.3,1.22-.44,1.83-.01,.06-.01,.13-.02,.19-.01,.23-.03,.55-.28,.77-.51,.45-.64,.97-.44,1.81,.07,.3-.07,.56-.17,.75-.03,.05-.05,.1-.07,.14h0c.41,.5,.82,1.02,1.1,1.63,.32,.68,.73,1.32,1.16,1.99,.41,.64,.83,1.29,1.17,1.99,.39,.8,.49,1.85,.26,2.61-.31,.99-.13,1.73,.65,2.51l2.42-2.6c.16-.18,.43-.21,.63-.08,1.25,.77,1.62,2.01,1.99,3.21l.1,.33c.35-.97,.36-1.77-.26-2.59Z"/><path class="b" d="M175.25,173.24l-.41-.52c-.04-.05-.07-.11-.08-.17,.03,.09,.04,.19,.02,.29-.17,.64,.05,1.2,.42,1.75-.06-.4-.07-.87,.09-1.33,0,0-.02-.01-.02-.02Z"/><path class="b" d="M174.74,172.33l.28-1.71-1.18,.98s-.1,.07-.15,.1l.88,.6c.08,.06,.14,.14,.18,.23-.02-.07-.02-.13,0-.2Z"/><path class="b" d="M186.49,194.35c-.08,.75-.13,1.51-.16,2.28l.81-.49c.07-.04,.14-.06,.22-.06,.02-.05,.03-.1,.05-.15-.14-.07-.24-.2-.26-.37-.03-.19-.05-.38-.07-.57-.05-.4-.09-.8-.17-1.19-.07-.33-.12-.65-.17-.98-.19-1.14-.37-2.23-1.05-3.12,0,.12,0,.23,.04,.3,.68,1.51,.93,2.89,.77,4.36Z"/><path class="b" d="M111.47,172.19c.07-.03,.15-.03,.22-.02l1.77-3.44c-.07-.08-.13-.17-.14-.27l-.28-2.22-2.56,3.21c-.08,.1-.21,.17-.34,.19l-1.04,.11c-.72,.08-1.33,.15-1.95,.19-.06,0-.12,0-.19,0-.24,0-.47-.03-.7-.06,.17,.43,.4,.81,.73,1.16,1.04,1.08,3.13,1.62,4.48,1.15Z"/><path class="b" d="M104.93,167.89c0-.67-.02-1.19-.37-1.65l-.35,1.03,.72,.65v-.03Z"/><path class="b" d="M193.48,189.3c.07-.06,.16-.11,.26-.12l3.37-.5s0-.02,0-.03c.72-.99,.78-1.75,.21-2.62-.46-.7-.84-1.5-1.14-2.39-.36-1.09-.8-1.72-1.47-2.11l-.97,.49c-.18,.09-.39,.06-.54-.06-.58-.48-.85-.31-1.54,.27-.28,.23-.57,.47-.91,.64-.16,.08-.34,.07-.49-.02-.15-.09-.24-.25-.24-.43v-.65c0-.45,0-.85,0-1.26,0-.1,0-.21,0-.32,0-.3,0-.6-.09-.79-.24-.51-.55-.99-.87-1.5-.13-.21-.27-.42-.4-.63-.03-.04-.04-.09-.05-.14-.12-.09-.23-.13-.32-.13-.24,.03-.51,.36-.69,.58-.66,.82-1.41,1.23-2.29,1.27l-.62,2.16c.09,.95,.54,1.99,1.31,3.01,1.21,1.6,.65,3.15-.01,4.49,1.25,1.19,1.5,2.68,1.73,4.12,.05,.32,.1,.63,.17,.95,.06,.27,.08,.55,.12,.83,.17-.41,.32-.82,.28-1.12-.19-1.21,.22-1.9,1.4-2.29,.23-.08,.48,.02,.59,.23l.67,1.18c.54,.16,1.02,.4,1.45,.7-.53-1.67-.26-2.62,1.08-3.81Z"/><path class="b" d="M135.43,167.82l1.16,.56,1.32-.67s0-.05,.01-.07c.03-.15,.07-.41,.04-.49-.53-1.19-1-2.06-1.51-2.81-.6-.89-.93-1.57-.75-2.25,.19-.69,.88-1.13,1.92-1.62,.13-.06,.28-.06,.41,0q1.32,.59,1.95-.45l.19-.31c.48-.79,1-1.62,1.58-2.43,.21-.3,.44-.59,.66-.88,1.19-1.58,2.32-3.07,2.37-5.08,0-.13,.04-.24,.09-.34-.02-.03-.04-.06-.07-.08-.18-.23-.36-.44-.55-.59-.78-.57-1.12-1.35-1.04-2.37,.02-.26,.01-.52,0-.79,0-.17,0-.33,0-.5,.01-1,.42-1.46,.75-1.66,.31-.19,.85-.34,1.64,.05,.98,.48,1.81,.23,2.9-.25l.12-1.23c-.11-.05-.23-.1-.34-.15-.57-.25-1.15-.5-1.36-1.03-.33-.83-.86-1.31-1.56-1.78-.17-.11-.31-.23-.44-.36-.57,.46-1.17,.62-1.75,.62-.46,0-.92-.09-1.36-.17-.26-.05-.53-.1-.79-.13h0c-.65,.63-1.25,1.28-1.57,2.2l.77,.77c.16,.16,.19,.39,.09,.59l-.35,.66c-.41,.78-.86,1.64-1.34,2.48-.16,.29-.47,.34-.72,.37h-.01c-.2,.52-.51,1-.81,1.46-.63,.97-1.22,1.89-.89,3.15,.04,.14,.01,.28-.07,.4-.08,.12-.2,.2-.34,.22l-2.1,.32c-.07,.06-.15,.15-.23,.24-.32,.35-.88,.98-1.8,.66-.53,.38-.7,.56-.57,1.11,.1,.4,0,.86-.28,1.28-.39,.61-1.08,1.09-1.76,1.22-1.27,.24-2.51,.46-3.76,.46h-.06c-.57,0-1.08-.28-1.57-.55-.18-.1-.37-.2-.55-.28-.3-.13-.6-.27-.91-.41l-.08-.04-.02,.03c.1,.16,.21,.33,.31,.5,.33,.55,.65,1.06,1.05,1.5,.16,.17,.32,.34,.49,.5,.69,.68,1.47,1.45,1.45,2.75,.04,.04,.11,.09,.15,.12,.1,.08,.19,.15,.27,.23,.07,.07,.11,.16,.13,.25,.19,.2,.19,.5,0,.7-.08,.08-.15,.17-.22,.26-.22,.27-.46,.57-.84,.68-1.33,.38-1.68,.83-1.46,1.84,.04,.2-.02,.37-.09,.52,.33,.04,.68,.1,1,.14,.22,.03,.56-.11,.89-.25,.15-.06,.29-.12,.43-.18,.17-.06,.33-.14,.5-.22,.32-.15,.65-.32,1.04-.38,.81-.13,1.63-.2,2.43-.27,.33-.03,.66-.06,1-.09,.18-.02,.36,.07,.46,.22,.19,.28,.38,.56,.58,.84,.48,.7,.98,1.42,1.42,2.18,.25,.42,.38,.58,.55,.61l1.18-1.39c.15-.17,.4-.23,.6-.13Z"/><path class="b" d="M104.39,181.44c-2.53,.17-4.04,1.12-4.91,3.1-.09,.2-.29,.32-.52,.29-.33-.04-.64-.09-.96-.13-.68-.1-1.32-.19-1.96-.22l-.65-.04c-.91-.06-1.85-.12-2.67,.07-.7,.16-1.15,.83-1.42,2.09-.11,.5-.14,1.03-.17,1.46,0,.15-.02,.28-.03,.41l1.22,4.66c1.04,.53,1.75,.39,2.71-.5,.51-.47,1.15-.78,1.72-.84l.25-.02q1.18-.11,2.08-.93c.13-.12,.32-.16,.48-.11,.99,.3,1.47-.2,2.22-1.12,.11-.13,.22-.26,.33-.39,.09-.1,.21-.16,.34-.17,1.71-.13,2.77-.79,3.43-2.15,.3-.61,.83-1.04,1.35-1.46,.12-.1,.24-.2,.36-.29l-1.47-4.04c-.58,.18-1.17,.3-1.73,.34Z"/><path class="b" d="M103.62,165.9l.12-.35s-.04-.03-.06-.05c-.03,.16-.05,.29-.06,.4Z"/><path class="b" d="M108.35,163.73c-2.23-1.18-3.97-3.12-5.03-5.61-.42-.98-1.14-1.43-2.33-1.48-.63-.01-.77,.15-.82,.51-.08,.6-.2,1.19-.31,1.75l-.09,.46c.21,.28,.4,.55,.6,.82,.51,.7,.99,1.36,1.51,1.97l.44,.51c.73,.86,1.49,1.75,2.37,2.36,1.22,.83,1.23,1.91,1.24,2.86,0,.35,.03,.67,.07,.96,.1,.01,.19,.02,.29,.03,.29,.04,.56,.07,.81,.06,.6-.04,1.19-.1,1.9-.18l.84-.09,4.17-5.22-1.03-.12c-1.95,1.65-2.4,1.58-4.62,.4Z"/><path class="b" d="M242.64,118.85l1.72,.18,.14-.34c.19-.43,.36-.83,.5-1.24,.14-.38,.25-.78,.36-1.18,.24-.85,.48-1.72,.95-2.48,.39-.64,.52-1.06,.2-1.74-.17,.02-.35,.03-.54,.04-.5,.03-1.18,.07-1.37,.28-.97,1.12-2.02,1.08-3.03,1.05-.21,0-.42-.01-.64-.01-.21,0-.41-.13-.48-.33-.11-.3-.18-.61-.26-.92-.24-.96-.42-1.57-1.17-1.9-.78-.35-1.54-.76-2.27-1.16-.2-.11-.41-.22-.61-.33-.1,.1-.25,.15-.4,.14-.17-.02-.32-.12-.39-.27-.09-.18-.19-.35-.28-.52-.21-.39-.44-.8-.61-1.23l-.45-1.09c-.63-1.53-1.28-3.11-1.83-4.7-.42-1.26-1.4-1.78-2.64-2.33-1.03-.46-1.72-.7-2.52-.1-.51,.38-1.37,.23-1.84,.1-1-.27-1.82-.05-2.62,.7l1.54,1.81c.1,.12,.14,.27,.11,.42-.03,.15-.12,.28-.26,.35-1.46,.77-2.12,1.85-2.26,3.73-.03,.39-.37,1.4-1.01,1.49-.65,.09-.95,.51-1.38,1.18-.12,.19-.24,.37-.37,.55-.16,.21-.45,.26-.67,.12l-1.84-1.17-1.08,4,1.5,.64,1.73-1.01c.23-.14,.53-.06,.67,.16,.28,.44,.71,.78,1.15,1.13,.86,.68,1.83,1.46,1.8,3.09,0,.27-.23,.49-.5,.49-.14,0-.26,0-.38,.01-.27,.01-.53,.02-.79-.03-1.44-.28-2.63,.15-3.89,1.41-.79,.79-1.79,1.6-3.24,1.52,0,.02-.17,.17-.39,.48-.55,.77-1.35,1.08-2.31,.9-1.57-.29-1.87-.21-2.47,1.06,.28,.37,.53,.82,.49,1.34-.03,.45-.28,.86-.72,1.23-.31,.26-.57,.58-.85,.92l-.17,.21c-.66,.79-1.59,1.72-2.99,1.84-.8,.07-1.66,.07-2.71,0-1.01-.06-1.9,.25-2.78,.97-.4,.33-.92,.69-1.45,.69-.03,0-.06,0-.1,0l-.53-.04c-1.62-.13-3.3-.26-4.77-1.34-.72-.53-1.61-.77-2.81-.74-.53,.01-1.05,.03-1.58,.05-.88,.03-1.75,.06-2.63,.06-.51-.01-.97-.05-1.44-.09-.13-.01-.26-.03-.39-.04l-.11,.12c-.11,.11-.27,.17-.43,.15-.16-.02-.3-.12-.37-.26-.11-.2-.21-.4-.32-.6-.23-.44-.46-.88-.73-1.3l-.15-.23c-.33-.53-.67-1.07-1.1-1.45-.34-.31-.73-.56-1.15-.83-.41-.27-.83-.54-1.21-.88-.62-.54-1.31-.76-2.3-.71-.48,.02-.95,.02-1.45,.01h-.67c-.23,0-.44-.17-.49-.4-.04-.19-.12-.36-.2-.54-.21-.45-.46-1.02-.12-1.82,.3-.7,.14-1.85-.4-2.93-.52-1.03-1.28-1.78-1.99-1.95-1.64-.4-2.37-1.43-2.86-2.52-.09,.01-.18,.03-.27,.03-.1,0-.21-.03-.32-.04-.02,.01-.03,.03-.04,.04l-2.22,1.58,.36,1.8c.02,.12,0,.25-.06,.36-.67,1.1-2.46,1.93-4.07,1.4-.43-.14-.56-.09-.58-.08-.07,.04-.16,.25-.25,.61-.11,.4-.27,.78-.43,1.14-.21,.49-.42,.96-.45,1.41-.11,1.55-1.24,1.6-1.91,1.63h-.18c-.69,.05-1.12,.21-1.41,.54l.22,2.04c0,.06,0,.11,0,.16l.64,1.05c.11,.18,.09,.42-.04,.58-.41,.49-.7,1.07-1.01,1.68-.58,1.15-1.24,2.45-2.84,3.16-.28,.12-.54,.33-.81,.54-.51,.4-1.12,.88-1.92,.78l-1.69,1.57c-.14,.13-.34,.17-.52,.1l-1.75-.67-1.81,2.78c.1,.8,.5,1.18,1.33,1.22,.25,.01,.45,.21,.47,.46,.01,.15,.04,.29,.06,.43,.06,.36,.11,.73,.02,1.1-.18,.72,.01,1.2,.66,1.63,.7,.48,1.48,1.11,1.93,2.24,.06,.15,.52,.35,.83,.48,.15,.07,.29,.14,.44,.21,.01,0,.02,0,.03-.01l3.75-.65c.17-.03,.34,.03,.45,.15l1.75,1.88c.1,.11,.15,.26,.13,.41-.19,1.44-1.29,1.97-2.18,2.4-.11,.05-.22,.11-.33,.16l-.25,1.03,1.05,.74c.22,.16,.28,.46,.13,.69-.12,.19-.23,.35-.32,.51-.2,.32-.37,.59-.6,.84-.44,.48-.64,.82-.62,1.06,.02,.25,.28,.56,.81,.98,.71,.56,1.42,1.13,2.13,1.7l.7,.57c.4-.21,.85-.37,1.37-.49,.16-.04,.32,0,.44,.11l2.22,1.96c.12,.11,.17,.26,.16,.41,.17-.09,.38-.08,.53,.05l1.84,1.41c.88,.68,1.7,1.31,2.74,1.47,.54,.08,1.1,.11,1.7,.14,.28,.01,.58,.03,.87,.05,.12,0,.23,.06,.32,.15,.12-.02,.24-.03,.37-.05,.39-.04,.8-.07,1.02-.23,1.14-.83,2.22-.68,3.22-.41,.61,.17,1.23,.31,1.85,.45l.44,.1c.79-1.52,2.13-2.15,3.31-2.7,.35-.16,.69-.32,1.02-.5,.59-.33,1.32-.3,2.03-.28,.3,.01,.61,.02,.92,0,.13-.01,.27,.04,.37,.14,.1,.09,.16,.23,.16,.36v1.46c.11,.02,.21,.03,.31,.05,.54,.08,1.05,.16,1.53,.37,1.36,.58,2.54,2.9,2.18,4.27-.28,1.08-.67,2.12-1.08,3.21-.12,.32-.25,.65-.37,.99,.87,.42,1.25,1.28,1.64,2.17l.11,.25c.4,.91,.79,1.78,.91,2.55,1.19,1.03,2.18,1.49,3.21,1.5-.02-.09-.05-.2-.08-.3-.11-.36-.24-.8,0-1.23,.18-.32,.52-.54,1.05-.67,.05-.01,.11-.02,.16-.01,.04-.02,.09-.05,.14-.06,.23-.05,.45-.11,.68-.17,.55-.15,1.07-.29,1.71-.29,1.01,.03,1.75-.31,2.35-1.04,.15-.19,.42-.24,.63-.12l1.99,1.1c.09,.05,.17,.13,.21,.23l1.1,2.41c1.34-.75,2.85-.79,4.36-.1,.13,.06,.23,.18,.27,.32l.15,.51c.43-.56,1.09-.95,2.02-1.16l.35-.08c.96-.21,1.86-.42,2.5-1.07l.25-1.7c.02-.14,.1-.26,.21-.34l.46-.32c.11-.08,.25-.1,.38-.08,.13,.03,.25,.11,.32,.22l.75,1.18,2.73-.49c.25-.23,.51-.44,.76-.65,.57-.49,1.12-.95,1.59-1.46,2.01-2.14,3.3-4.8,4.54-7.37,.72-1.48,1.46-3.01,2.33-4.44,.19-.31,.24-.57,.16-.78-.11-.27-.48-.49-1.01-.62-.19-.04-.39-.08-.55-.12l-.2-.04c-.22-.05-.39-.24-.4-.47-.04-1.18,.95-1.26,1.42-1.29,.17-.01,.45-.03,.51-.1,.01-.01,.03-.06,.03-.15l-.93-1.06c-.09-.1-.13-.24-.12-.37,.01-.14,.08-.26,.18-.35l.59-.48c-.1-.11-.2-.22-.31-.33-.52-.55-1.05-1.12-1.12-1.81-.17-1.55-.87-2.75-2.27-3.89-.12-.1-.19-.25-.18-.41,.06-1.57,1.03-2.46,1.89-3.26,.56-.51,1.08-1,1.33-1.62,.04-.11,.13-.21,.24-.26,.42-.21,.85-.15,1.2-.1,.29,.04,.47,.06,.6,0-.48-.4-1.08-.58-1.75-.79-.37-.11-.74-.23-1.12-.39l-1.57,1.29c-.12,.1-.27,.13-.42,.1-.15-.03-.28-.13-.34-.27l-.17-.33c-.13-.26-.25-.5-.36-.74-.11-.25-.21-.51-.31-.76-1.32,.06-1.57-.39-2.13-2.24-.04-.11-.03-.24,.02-.35,.48-1.1,1.43-1.08,2.12-1.07,.18,0,.36,0,.51,0,.51-1.57,1.66-2.6,2.84-3.48,1.03-.77,2.12-.6,2.93,.46,.13,.17,.14,.41,.02,.58-.14,.2-.28,.4-.42,.6-.31,.44-.59,.85-.84,1.28-.21,.35-.26,.68-.17,1.02l.4-.28c.62-.43,1.21-.85,1.79-1.28,.96-.72,1.85-.95,2.69-.74,.06-.08,.11-.17,.17-.25,.21-.32,.42-.66,.69-.96,.38-.43,.79-.82,1.2-1.22l1.88-1.87c.13-.13,.32-.18,.49-.13l1.51,.43,3.1-3.06c.18-.18,.47-.19,.67-.03l.61,.49c.26-.28,.58-.55,.97-.78v-4.44c0-.15,.07-.29,.18-.38l1.06-.89c.1-.09,.24-.12,.37-.11Z"/><path class="b" d="M124.62,163.42c.08-.02,.24-.23,.34-.35h0l-.02-.02c-.25-.2-.56-.44-.54-.83,.05-.93-.48-1.45-1.15-2.11-.18-.18-.36-.36-.53-.54-.46-.51-.81-1.09-1.16-1.65-.15-.24-.29-.48-.45-.71-.1-.15-.11-.34-.03-.5l1.55-3.09-1.33-.08c-.24-.01-.43-.2-.46-.43l-.09-.66c-.07-.52-.16-1.09-.21-1.66-.03-.29-.07-.58-.1-.87-.2-1.51-.41-3.07,.73-4.67,.52-.74,.52-1.86-.02-3.33-.06-.17-.22-.36-.38-.45-.87-.51-1.75-1.02-2.62-1.52-.8-.46-1.61-.92-2.4-1.38-.77-.45-1.41-.67-2.21-.35-.4,.16-.83,.15-1.25,.15-.13,0-.26,0-.38,0l-1.99,1.55c-.01,.13-.06,.26-.17,.34-1.21,.95-2.51,1.44-3.8,1.44-.67,0-1.33-.13-1.98-.4-1.77-.73-3.16-2.12-3.9-3.92-.97-.28-1.07-1.11-1.14-1.68-.04-.36-.08-.63-.2-.83l-.69,1.01c-.09,.13-.23,.21-.38,.22-.17,0-.3-.05-.41-.16-.09-.1-.19-.19-.28-.29,0,.06,0,.13-.01,.19-.05,.17-.2,.29-.37,.33-.26,.06-.5,.08-.72,.08-1.11,0-1.89-.6-2.53-1.16,0,.12,0,.25,0,.37-.02,.7-.04,1.36,.05,2,.07,.48,.27,.95,.49,1.46,.1,.24,.2,.48,.29,.72,.01,.03,0,.06,.01,.08,.02,.03,.05,.05,.07,.08l2.43,4.25c.1,.18,.08,.4-.05,.56-1.62,1.99-1.45,2.22-.64,3.35,.17,.23,.35,.49,.54,.79,.27,.41,.67,.77,1.09,1.14,.12,.11,.25,.22,.37,.33,.86,.79,1.26,1.72,1.31,3.11,.04,.96,.08,1.87,.73,2.46,.25-.11,.57-.18,.99-.16,1.59,.06,2.64,.74,3.22,2.08,.97,2.28,2.55,4.05,4.58,5.12q1.97,1.04,3.67-.42c.11-.09,.25-.14,.38-.12l1.49,.17c.16,.02,.3,.11,.38,.25,.09,.15,.18,.29,.27,.42,.22,.33,.45,.67,.5,1.07,.12,.93,.63,1.36,1.9,1.59,1.65,.3,3.27,.55,4.86,.77h0c.03-.08,.08-.15,.13-.22l.04-.05c-.41-2.16,1.4-2.68,2.18-2.9Z"/><path class="b" d="M186.91,200.13c-.3-.98-.2-1.86,.03-2.69l-.48,.29c-.05,.03-.11,.03-.16,.04,0,.18-.01,.37-.02,.56-.02,.62-.03,1.25-.06,1.87-.02,.33-.05,.67-.08,1.01v.13c1.02,.58,1.56,1.53,2.09,2.45,.18,.31,.35,.62,.55,.91,.13,.19,.24,.38,.34,.58,1.23-.25,1.65,.68,1.9,1.26,.04,.1,.09,.2,.13,.29l.24-.63c-.09-.08-.17-.16-.26-.23-.34-.31-.64-.58-.96-.73-1.08-.52-1.32-1.33-1.33-1.91-.03-1.44-.55-2.35-1.66-2.86-.13-.06-.23-.17-.27-.31Z"/><path class="b" d="M94.52,134.19l-.43,.22c.41,.35,.81,.65,1.3,.77l-.87-.99Z"/><path class="b" d="M148.94,52.43l.45-.62-.36-.43c-.41-.48-.78-.93-1.14-1.38-.31-.39-.62-.37-1.27-.18,.11,.1,.21,.2,.3,.23,1.22,.52,1.77,1.39,2.02,2.37Z"/><path class="b" d="M78.05,120.76c-1.23-.16-2.07-.97-2.87-1.89-.03,.08-.08,.16-.16,.22l-1.27,.95,1.57,2.08c.78-.94,1.8-1.16,2.72-1.36Z"/><path class="b" d="M65.06,113.23l-.34-.37-.57,.28,1.72,5.49,.6-1.14c.09-.17,.25-.27,.46-.27,.1,0,.2,.04,.28,.1l1.13-.46c-.67-.76-1.35-1.52-2.03-2.28-.41-.46-.83-.9-1.25-1.36Z"/><path class="b" d="M49.57,112.84c.33-.32,.81-.33,1.24-.33,.14,0,.29,0,.42-.02,.05,0,.11,0,.16,0l.93-.64c.14-.1,.32-.11,.48-.05,.12,.05,.21,.15,.26,.26h1.57c0-.48,.08-.95,.19-1.4h-3.83c-.07,0-.14-.02-.21-.05l-1.34-.62-2.99,2.21,.35,1.21c1.18,.31,2.02,.14,2.77-.59Z"/><path class="b" d="M39.12,109.38c.16,.14,.32,.28,.46,.43,.33,.35,.72,.66,1.18,1.02,.17,.13,.35,.28,.54,.43l1.85-.48c.1-.03,.21-.02,.3,.02l2.16,.81,3.04-2.25c-.59-.93-1.51-1.3-2.77-1.12-.12,.02-.25,0-.35-.08l-3.13-2.08-4.01,2.13c-.02,.47,.25,.76,.74,1.18Z"/><path class="b" d="M45.66,117.41c.03,.06,.04,.13,.04,.2l2.24,1.41,1.09-.09,.59-.68c.09-.11,.23-.17,.38-.17h.33c.22,0,.4-.01,.58,0,1.17,.14,1.85-.27,2.26-1.35,.23-.61,.62-1.13,1-1.64l.13-.17c.19-.25,.39-.5,.61-.74-.1-.37-.17-.74-.21-1.1h-2.04c-.09,0-.17-.02-.25-.06l-.81,.56c-.14,.1-.33,.12-.49,.04-.05-.02-.1-.06-.14-.1-.05,0-.09,0-.14,0-.18,0-.49,0-.57,.06-.71,.69-1.51,1.02-2.45,1.02-.34,0-.7-.06-1.07-.14l-1.5,2,.43,.96Z"/><path class="b" d="M34.94,90.87l-.95-.67c-.2-.14-.27-.41-.16-.63l.66-1.33-.22-.13c-.11,.12-.22,.25-.33,.38-.48,.58-1.02,1.23-2.16,1.24-.31,0-.53,.7-.58,1.38-.08,1.12,.31,2.13,1.31,3.32,.18-1.44,.98-2.62,2.43-3.57Z"/><path class="b" d="M70.84,97.63c-.21-.24-.41-.48-.59-.74-.4-.56-.75-1.22-1.01-1.91-.18-.46-.27-.94-.34-1.32,0-.04-.02-.09-.02-.13l-4-1.63-1.76,1.41c-.01,.08-.04,.15-.09,.21l-1.22,1.62c-.07,.08-.14,.17-.19,.26-.1,.18-.18,.38-.26,.58-.21,.52-.44,1.06-.92,1.35-.62,.37-1.33,.55-2.03,.71-.23,.05-.46,.11-.68,.18-.1,.41,.07,.77,.39,1.3,.13,.22,.26,.45,.37,.68,.07,.16,.05,.35-.05,.49l-.98,1.38c.18,.28,.34,.57,.46,.87l.45-.38c.11-.09,.26-.13,.4-.11,.18,.03,.35,.06,.52,.1,.33,.07,.64,.13,.93,.14,.9,.03,1.86,.1,2.78,.67,.26,.16,.6,.23,.7,.2,1.84-.9,3.29,.08,4.35,.79,.12,.08,.24,.17,.35,.26,.28-.16,.36-.43,.49-.89,.03-.1,.06-.2,.09-.3,.31-.96,.61-1.36,1.19-1.48l.22-2.03c.03-.22,.19-.4,.42-.44l1.01-.17c-.08-.64-.5-1.13-.97-1.68Z"/><path class="b" d="M43.79,118.14c.1-.24,.29-.4,.44-.53,.04-.04,.09-.08,.13-.12,.05-.05,.12-.09,.19-.11l-.09-.21-.19,.1c-.65,.34-1.31,.69-1.96,1.02-.1,.05-.22,.08-.35,.08-.12,0-.23-.02-.33-.07-.42-.2-.93-.24-1.47-.26l-.09,1.03c.14,.09,.28,.2,.41,.32,0,0,.01,0,.02,0,1.85,.38,2.74,.04,3.29-1.26Z"/><path class="b" d="M63.13,82.65c-.3-.11-.59-.22-.87-.37-1.5-.77-3.36-.46-4.44,.74-.41,.46-.42,1.06-.01,1.48l.08,.08s.08,.08,.1,.1c.38,.28,.76,.55,1.13,.81l.18,.13,.76-.22c.16-.05,.34,0,.46,.1,.08,.07,.14,.16,.16,.26l2.61,.57c.4-.6,.36-1.37,.14-2.34-.06-.25-.15-.74-.08-1.27l-.21-.08Z"/><path class="b" d="M67.11,118.43l-.7,1.33c-.03,.06-.08,.1-.13,.14v.03l1.21,.18s.02,0,.03,0c.63-.8,1.25-1.61,1.56-2.44l-.04-.05s-.07,.06-.12,.08l-1.71,.69s-.06,.02-.09,.03Z"/><path class="b" d="M94.92,133.19c-.33-.66-.47-1.39-.61-2.16-.02-.09-.04-.19-.06-.28l-2.11,.4v1.92c.42,.14,.78,.38,1.12,.64l1.16-.58c.17-.09,.36-.04,.51,.06Z"/><path class="b" d="M98.89,158.65c.1-.52,.22-1.07,.29-1.63,.02-.17,.07-.34,.14-.51h-.02l-.97,.22-.54,.94,1.1,.99Z"/><path class="b" d="M98.03,123.09c.34,.47,.75,1.19,.79,1.93,.05,.91,.37,1.72,1.01,2.63,.39,.55,.74,1.13,1.07,1.69,.29,.48,.57,.96,.88,1.42,.09,.14,.29,.26,.5,.4,.11,.07,.22,.14,.32,.21,.18,.13,.36,.25,.55,.37l.27,.18c.15,.1,.24,.28,.22,.46l-.03,.38c-.02,.19-.14,.35-.31,.42l-1.2,.48-1.2,3.23s.05,.06,.07,.11c.64,1.55,1.83,2.76,3.35,3.38,1.46,.6,3.07,.34,4.55-.73-.03-.16-.06-.31-.1-.47-.22-1-.46-2.13,.23-3.2l-2.32-3.27c-.12-.17-.12-.4,0-.58l.62-.88-.79-2.46c-.06-.19,0-.41,.16-.54l.58-.48c-2.27-1.19-3.78-3-4.61-5.54-.04-.13-.03-.27,.04-.39,.07-.12,.18-.21,.31-.25l1.43-.39-.07-.2c-.05-.15-.04-.31,.04-.44,.69-1.11,1.66-.8,2.3-.59,.53,.17,.78,.22,1,.06,.24-1.1-.04-2.11-.85-3.08-2.24-.28-3.93,.07-5.29,1.08-1.26,.93-2.44,2-3.52,3.18-.72,.78-.67,.94,0,1.88Z"/><path class="b" d="M93.37,140.3s-.02-.06-.03-.09l-.31,.03c-1.2,.13-1.61,.18-2.46-.32l-1.29,1.07s-.04,.02-.07,.03c-.01,.01-.02,.03-.03,.03-.97,.74-1.04,1.7-1.02,3.2,.01,1.52-.62,2.63-1.98,3.48-.67,.42-1.32,.87-1.96,1.33,.19,.05,.34,.22,.37,.43l.17,1.77c1.11,.16,2.1,.67,3.16,1.6,.34,.3,.78,.52,1.24,.75,.28,.14,.55,.28,.82,.43,.21,.13,.33,.32,.43,.47,.03,.04,.05,.09,.08,.13,.08,.11,.11,.23,.09,.36l.81,1.02c.07,.02,.14,.04,.2,.09,.21,.16,.41,.31,.62,.47,.49,.36,.97,.73,1.43,1.12,.44,.38,.91,.46,1.57,.25,.42-.13,.84-.27,1.26-.41l.31-.1,.82-1.43c.07-.13,.2-.22,.34-.24l.74-.14c-.31-.71-.35-1.5-.37-2.14-.05-1.2-.33-1.88-.99-2.49l-.35-.31c-.46-.4-.93-.82-1.27-1.35-.18-.29-.36-.53-.52-.75-1.01-1.41-1.23-2.14,.46-4.3l-2.26-3.96Z"/><path class="b" d="M171.49,162.7c.41-.01,.92-.03,1.45,.03,.6,.07,1.08-.07,1.36-.4,.22-.27,.29-.66,.2-1.11l-.34-.08c-.63-.14-1.27-.29-1.89-.46-.85-.24-1.54-.27-2.25,.19,0,1.09,.06,1.63,1.18,1.85,.01,0,.14-.01,.29-.02Z"/><path class="b" d="M86.51,126.39c-.29-.28-.58-.57-.83-.87-.03-.03-.04-.07-.06-.1-.13-.07-.25-.14-.38-.2-.49-.25-1-.51-1.46-.86-.69-.52-1.35-1.09-1.99-1.64-.34-.29-.69-.59-1.04-.88-.48-.4-.99-.48-1.71-.28-.26,.07-.52,.13-.79,.19-1.02,.22-1.89,.41-2.47,1.48-.08,.15-.23,.25-.4,.26-.16,.01-.33-.06-.44-.2l-2.3-3.04c-.08-.11-.12-.24-.1-.37s.09-.25,.2-.33l.57-.43-1.24-.1c-.14-.01-.26-.08-.35-.18-.11-.14-.22-.3-.33-.47-.37-.58-.57-.89-1.3-.57-.34,1.1-1.12,2.08-1.89,3.04-.19,.24-.38,.47-.55,.71-.38,.5-.63,1.05-.9,1.63-.31,.68-.64,1.37-1.17,1.97,.04,.09,.05,.19,.03,.28-.03,.17-.06,.36-.08,.54-.06,.47-.12,1.01-.39,1.47-.33,.57-.3,.89,.1,1.39,.24,.3,.42,.63,.6,.97,.08,.15,.16,.3,.24,.45,.07,.12,.09,.27,.04,.41s-.15,.25-.28,.3c-.14,.06-.28,.11-.42,.17-.73,.29-1.23,.52-1.48,1,.18,.03,.37,.06,.55,.09,1.26,.24,2.11,.34,2.84-.52l-.18-.18h0l-.3,.02c-.29,.03-.52-.17-.55-.44s.17-.52,.44-.55l.93-.1c.76-.08,1.53-.16,2.29-.27,.38-.05,.74-.16,1.04-.31,.49-.25,.97-.51,1.44-.77,.56-.31,1.12-.61,1.69-.89,1.36-.67,2.6-.47,3.59,.57,.21,.22,.52,.42,.92,.61,1.59,.74,3.01,1.11,4.6,1.2,1.87,.11,3.24-.39,4.43-.96,.6-1.5-.19-2.28-1.18-3.25Z"/><path class="b" d="M48.19,96.4c-.53-.29-1.44-.34-1.63-.2-.8,.78-1.76,1.21-2.68,1.62-.63,.29-1.23,.56-1.77,.94l-.24,1.99c.8,.89,.75,2.01,.6,2.91-.06,.35,.02,.76,.1,1.18,.01,.07,.02,.14,.03,.21,.02,.01,.05,0,.07,.02l3.23,2.14c1.62-.19,2.91,.44,3.67,1.76l1.51,.69h4.05c.46-1.08,1.21-2.08,2.29-2.99l-.56-1.4c-.06-.15-.04-.31,.04-.45,.43-.7,.3-1.35-.48-2.48-.12-.17-.12-.4,0-.57l1.01-1.42c-.06-.11-.12-.21-.19-.32-.35-.58-.76-1.3-.48-2.19l-1.01-1.01s-.01-.02-.02-.04c-.27,.02-.55,.05-.82,.08-.7,.07-1.4,.15-2.12,.15s-1.44-.08-2.16-.31c-.96,.47-1.72,.07-2.46-.33Z"/><path class="b" d="M53.93,93.67l1.91,.6c.18,.06,.31,.21,.34,.4l.24,1.44s.04,.02,.05,.04l1.09,1.09c.2-.05,.41-.1,.61-.15,.65-.15,1.26-.3,1.74-.59,.2-.12,.36-.51,.51-.88,.1-.24,.2-.47,.31-.68,.08-.14,.18-.27,.29-.41l.98-1.3s-.06-.06-.08-.09c-.08-.09-.18-.22-.24-.24-.48-.21-.89-.51-1.28-.81-.61-.46-1.15-.86-1.86-.84-.62,.02-1.24,.06-1.86,.1-.86,.05-1.72,.1-2.59,.12-.19,0-.39-.03-.58-.07,0,.07,0,.14,0,.21,0,.32,0,.63,.09,.82,.22,.45,.33,.87,.33,1.26Z"/><path class="b" d="M53.04,95.33c-.12,.1-.28,.13-.44,.1-.43-.11-.91-.11-1.3,.44,1.14,.27,2.3,.15,3.52,.02,.18-.02,.36-.04,.54-.06l-.12-.71-1.59-.5c-.15,.25-.35,.48-.62,.7Z"/><path class="b" d="M53.5,120.52c.14,.18,.27,.37,.39,.57,.46,.79,.64,1.03,1.29,.87,.4-.09,.79,.16,1.33,.87,.29,.38,.54,.79,.74,1.11l.04,.06c.14-.02,.28-.05,.41-.08,.49-.1,.95-.2,1.37-.02,.82,.36,1.51,.04,2.3-.33l.18-.08c.75-.34,1.61-.65,2.39-.35,.43,.16,.8,.5,1.14,1.04,.31-.43,.53-.92,.77-1.44,.27-.57,.54-1.17,.95-1.72l-.99-.15c-.19-.03-.34-.16-.4-.34l-2.23-7.11-.74-.1-1.21,1.28c-.13,.14-.34,.19-.53,.13l-.6-.2c-.42-.14-.8-.26-1.18-.42-1.56-.64-2.6-.26-3.85,1.41l-.13,.18c-.34,.45-.69,.91-.86,1.38-.26,.71-.65,1.23-1.16,1.57,.05,.17,.11,.38,.07,.62-.08,.47,.12,.77,.49,1.27Z"/><path class="b" d="M60.05,86.66c-.1-.02-.18-.07-.25-.14l-.46,.13h0c-.08,.85-.2,1.89-1.38,2.52-.14,.08-.31,.08-.45,0l-2.9-1.42-1.33,2.53c.3,.09,.55,.16,.79,.16,.85-.02,1.7-.07,2.55-.12,.63-.04,1.25-.07,1.88-.1,1.08-.04,1.83,.53,2.5,1.04,.36,.27,.7,.53,1.07,.69,.25,.1,.41,.29,.55,.46l1.67-1.33-1.09-3.74-3.16-.69Z"/><path class="b" d="M6.15,130.16c-.38-.48-.81-.37-1.64-.1l-.14,.05c-.13,.04-.26,.03-.38-.03l-1.21-.6c.29,2.14-.09,4.25-1.16,6.33l1.46,4.69,.84-.39,.24-1.97s-.07-.08-.09-.12c-.07-.14-.07-.31,0-.45l.43-.86-.46-.93c-.08-.17-.07-.37,.05-.52,.85-1.12,.8-2.39,.67-3.37-.02-.15,.03-.3,.14-.41l1.25-1.29Z"/><path class="b" d="M28.74,120.23c.08-.15-.08-.65-.18-.97-.04-.12-.08-.25-.11-.37l-1.49-.22c-.18-.03-.33-.15-.4-.32-.06-.17-.03-.36,.09-.5,.28-.33,.54-.64,.78-.94,.53-.64,1.03-1.25,1.59-1.8,.1-.1,.21-.18,.32-.26,0-.1,.01-.2,.01-.31,0-.33,.02-.7,.15-1.06,.21-.58,.48-1.12,.78-1.75,.04-.08,.08-.16,.12-.25l-1.94-.25c-.11-.01-.22-.07-.29-.15-.37-.38-.81-.69-1.31-.93-.08-.04-.22-.06-.37-.08-.23-.03-.49-.07-.73-.21-1.61-.92-3.25-1.86-4.37-3.5,0,0,0-.01,0-.02-.28,.12-.53,.25-.7,.38l.21,1.03c.04,.21-.05,.42-.24,.53l-4.55,2.68c-.17,.1-.38,.09-.54-.02l-.83-.58c.03,.09,.06,.19,.1,.3,.19,.56,.54,1.59-.79,2.06-.05,.02-.11,.03-.17,.03h-1.58c-.1,0-.2-.03-.28-.08l-.82-.55c-1.32,.31-1.46,.39-1.72,1.49,.31,.11,.63,.21,.97,.32,1.67,.52,3.55,1.11,3.96,3.49h0c.13,.09,.25,.16,.36,.25,1.04,.74,1.63,2.2,1.26,3.11-.51,1.26-.96,2.66-.9,4.32h0c.76,1.12,1.72,1.6,3.03,1.49,.23-.02,1.02-.05,1.46,.4,.51,.52,1.06,.5,1.87,.35v-.05c.06-.21,.12-.44,.22-.66,.4-.86,1.13-1.49,2-1.74,.77-.22,1.57-.1,2.21,.32,.49,.32,1.01,.61,1.47,.87,.09,.05,.17,.1,.26,.14l1.89-1.66c-.91-1.08-1.82-2.41-.81-4.35Z"/><path class="b" d="M20.71,128.44c-.61,0-1.24-.16-1.8-.75-.05-.05-.32-.12-.66-.1-1.58,.12-2.85-.46-3.8-1.73-.18,.03-.36,.07-.54,.1-.63,.13-1.27,.26-1.94,.27-1.19,.03-2.38-.13-3.76-.51-1.46-.39-3.14-.28-4.59-.14-.43,.04-.88,.33-1.36,.64-.11,.07-.21,.14-.32,.2,.26,.61,.46,1.22,.61,1.83,.05,0,.11,.02,.16,.04l1.54,.77c.9-.3,2.12-.66,2.97,.88,.11,.19,.07,.43-.08,.59l-1.36,1.4c.11,1,.1,2.35-.71,3.61l.44,.89c.07,.14,.07,.31,0,.45l-.34,.68c.04,.08,.05,.17,.04,.27l-.26,2.12,.98,.37c.16,.06,.27,.19,.31,.36,.02,.1,.01,.2-.03,.3l.96,1.27c.45-.11,.87-.23,1.27-.34,1.08-.3,2.1-.59,3.14-.65,1.28-.08,1.78-.19,2.38-1.14,.28-.44,.74-.76,1.11-1,.76-.48,1.33-1.15,1.79-2.11-1.12-1.53-.43-2.82,.21-3.67l.11-.14c.97-1.3,1.98-2.65,3.73-3.28,.35-.13,.68-.41,1.02-.72,.07-.06,.13-.11,.2-.17l-.41-.73c-.32,.06-.65,.11-1,.11Z"/><path class="b" d="M26.25,109c.09,.05,.24,.07,.38,.09,.12,.02,.25,.04,.38,.07l.27-1.59-.56-1.81c-.05,0-.11,.02-.16,0-1.11-.35-2.84-.14-4.19,.25,.98,1.33,2.39,2.14,3.88,2.99Z"/><path class="b" d="M36.74,116.75l-1.25,.7s-.09,.03-.14,.04c-.43,.69-.91,1.09-1.46,1.15-.04,0-.09,0-.13,0-.17,0-.37-.04-.58-.14-.25,.45-.6,.97-1.17,1.06-.33,.06-.67-.04-1.03-.29l-1.27,.42c.07,.35,.07,.69-.09,.99-.68,1.29-.23,2.13,.68,3.22l1.41-1.24c.07-.06,.15-.1,.23-.11,.73-.15,1.45,.02,2.04,.46,.71,.53,1.15,1.41,1.25,2.47,.06,.69,.31,1.14,.9,1.57,.25,.18,.51,.35,.77,.53,.89,.58,1.88,1.23,2.35,2.42h.79c.15,0,.28,.06,.38,.17,.55,.64,1.21,1.34,2,1.71,2.16,1.01,3.15,3.2,2.42,5.33-.04,.12-.08,.26-.11,.39,.93-1.04,1.38-1.89,.77-3.25-.19-.43,.02-.89,.22-1.34,.07-.16,.15-.32,.2-.47,.05-.15,.17-.27,.32-.32,.15-.05,.31-.03,.44,.06l1.16,.81c-.43-.77-1.08-1.31-1.82-1.47-1.12-.25-1.66-.73-1.83-1.68l-.18-.05c-.38-.1-.75-.2-1.12-.3-1.69-.46-2.13-1.26-2.42-2.78-.1-.51-.3-.96-.5-1.09-1.5-.98-3.17-2.46-2.79-5.14,.01-.09,.05-.18,.11-.25,.78-.93,1.25-1.4,1.78-1.5l.07-.85c-.87-.08-1.75-.31-2.42-1.24Z"/><path class="b" d="M41.73,120.55c-.4,0-.79-.06-1.18-.13-.04,.1-.06,.2-.04,.29,.04,.13,.18,.25,.33,.34l1.01-.17c0-.11-.01-.22-.02-.34-.03,0-.07,0-.1,0Z"/><path class="b" d="M26.53,104.72l1.63-1.95,.45-2.32s.01-.05,.02-.07l-.42-.76s0-.03-.01-.04h-.42l-.89,.67-.15,1.11c-.01,.09-.05,.16-.1,.23v.02c.17,.22,.12,.54-.1,.7-.23,.16-.54,.11-.7-.11l-.52-.73c-.23,1.23-.63,2.28-1.21,3.19,.88-.09,1.74-.08,2.42,.07Z"/><path class="b" d="M43.81,116.38l.42-.22s.01-.06,.03-.08l1.63-2.17-.37-1.28h0l-2.27-.85-1.86,.49c-.07,.02-.15,.02-.24,.01,0,0,0,.02-.02,.03l-1.94,2.11s-.07,.06-.11,.09l-2,1.23c.14,.06,.28,.13,.38,.29,.56,.9,1.31,.97,2.5,1.01,.66,.02,1.35,.04,1.99,.31,.62-.32,1.24-.64,1.85-.97Z"/><path class="b" d="M184.66,107.88c-.08,.16-.24,.26-.42,.27-.41,.02-.81,.05-1.21,.08-1.01,.07-2.06,.14-3.08,.12-.65-.02-1.25-.58-1.64-.95-.28-.26-.45-.6-.58-.87,0-.02-.02-.04-.03-.06-.23-.05-.45-.1-.67-.14-.62-.14-1.22-.27-1.79-.3-.56-.04-1.13,.08-1.5,.29-1.21,.7-2.42,1.48-3.58,2.23-.45,.29-.89,.57-1.34,.86-.08,.05-.17,.1-.25,.15-.11,.06-.27,.15-.31,.2-.17,.25-.37,.44-.57,.59,.46,1,1,1.64,2.17,1.93,1,.24,1.99,1.17,2.64,2.48,.68,1.35,.84,2.79,.43,3.77-.17,.41-.07,.62,.11,1.02,.05,.11,.1,.22,.15,.35h.32c.48,0,.93,.01,1.39,0,1.24-.06,2.2,.24,3.01,.95,.33,.29,.71,.54,1.1,.8,.43,.28,.87,.57,1.27,.93,.53,.48,.91,1.08,1.27,1.66l.14,.23c.28,.44,.53,.9,.77,1.37l.03,.05c.05-.01,.11-.02,.16-.01,.21,.02,.43,.04,.64,.06,.46,.05,.91,.09,1.34,.09,.87,0,1.73-.03,2.6-.06,.53-.02,1.06-.03,1.59-.05,1.44-.03,2.52,.26,3.43,.93,1.24,.91,2.7,1.02,4.26,1.15l.53,.04c.07,0,.27-.01,.83-.47,1.08-.88,2.22-1.26,3.48-1.19,1,.06,1.82,.06,2.56,0,1.02-.09,1.73-.8,2.3-1.48l.17-.2c.3-.36,.61-.74,.99-1.06,.23-.19,.35-.37,.37-.54,.02-.21-.13-.48-.46-.85-.13-.15-.16-.36-.08-.54,.88-1.95,1.57-2.31,3.7-1.91,.59,.11,.99-.05,1.31-.5,.45-.63,.85-.92,1.26-.9,1.04,.04,1.82-.56,2.49-1.23,1.49-1.5,3.02-2.04,4.79-1.69,.13,.02,.27,.02,.45,.02-.14-.82-.7-1.26-1.39-1.81-.38-.3-.76-.6-1.09-.99l-1.56,.91c-.13,.08-.3,.09-.45,.03l-2.06-.88c-.23-.1-.43-.38-.36-.62l1.1-4.06-2.92-.72-.16,.12c-.34,.24-.77,.55-1.2,.87-.96,.72-1.84,1.2-3.06,1.21-1,.01-2.02,.14-3.02,.27-.46,.06-.92,.12-1.38,.17-.81,.09-1.44-.18-2.02-.87-1.09-1.3-2.25-2.07-3.54-2.33-.47-.1-1.13,.03-1.5,.28-1,.69-2.17,.76-3.38,.2-1.5-.7-2.48-1.67-2.91-2.89-.19-.54-.46-.77-1.08-.9-.76-.16-1.49-.39-2.27-.64-.27-.09-.55-.18-.84-.26-.8,.35-1.24,1.07-1.75,2.11l.96,1.35c.11,.15,.12,.35,.04,.52l-.72,1.38Z"/><path class="b" d="M27.56,105.1l.7,2.28c.02,.07,.03,.15,.02,.23l-.34,2.01c.29,.19,.57,.4,.82,.64l2.46,.31c.16,.02,.3,.11,.38,.25s.08,.31,.02,.45c-.15,.31-.29,.61-.42,.88-.29,.61-.54,1.13-.74,1.67-.06,.17-.08,.4-.08,.63,.33-.05,.66-.06,.98-.06,.62,0,1.15,0,1.6-.33,.21-.15,.51-.12,.68,.09l.49,.61c.05-.01,.11-.03,.17-.04,.64,0,1.29,.07,1.85,.12l.41,.04,1.95-1.2,1.8-1.95s-.11-.09-.16-.12c-.49-.38-.91-.71-1.29-1.11-.12-.13-.26-.24-.39-.36-.52-.46-1.24-1.09-1.07-2.2,.03-.17,.14-.3,.29-.37,.04-.1,.11-.18,.21-.24l3.77-2c-.02-.1-.03-.2-.05-.3-.09-.49-.19-1.01-.11-1.53,.17-1.09,.04-1.73-.48-2.2-.12-.11-.18-.27-.16-.43l.25-2.13-2.24-1.79-2.19,1.53c-.18,.13-.43,.12-.6-.02l-3.2-2.61-.36,.61,.36,1.46c.05,.18-.02,.38-.16,.5l-1.47,1.25c-.14,.12-.33,.15-.5,.09-.09-.04-.17-.1-.23-.18h-1.22l.4,.73c.09,.16,.08,.35-.01,.5-.05,.08-.12,.14-.2,.19l-.41,2.1c-.02,.08-.05,.16-.11,.23l-1.46,1.75s.02,.02,.02,.04Z"/><path class="b" d="M33.12,117.18c.14,.18,.42,.49,.67,.46,.21-.02,.46-.26,.7-.65l-1.23-.74c-.14-.08-.23-.23-.24-.4-.01-.16,.06-.32,.19-.42,.04-.03,.06-.06,.1-.09l-.18-.23c-.59,.27-1.2,.27-1.76,.28-.75,0-1.23,.03-1.63,.42-.52,.51-.98,1.07-1.52,1.72-.07,.09-.14,.18-.22,.26l.93,.14c.21,.03,.38,.19,.42,.4,.02,.12,.07,.26,.11,.39l1.47-.49c.17-.06,.36-.02,.49,.1,.21,.19,.36,.25,.42,.24,.17-.03,.43-.5,.55-.72-.02-.03-.04-.04-.07-.07-.17-.22-.13-.53,.09-.7,.22-.17,.53-.13,.7,.09Z"/><path class="b" d="M36.26,115.87l-.22-.02c-.52-.05-1.12-.11-1.69-.12h0l1.03,.63,.88-.49Z"/><path class="b" d="M335.04,55.14c-.17-.01-.32,.14-.29,.31l.25,1.57c.04,.24-.1,.47-.33,.55l-.34,.12c-.17,.06-.35,.03-.49-.09-.98-.81-1.65-1.8-1.94-2.88-.35-1.33-1.21-2.27-2.76-3.04-.46-.23-.94-.45-1.41-.67-1.15-.53-2.34-1.08-3.42-1.79-3.41-2.22-6.79-3.33-10.32-3.4-1.03-.02-2.04-.22-3.03-.4-.53-.1-1.06-.2-1.59-.28-.27-.04-.56-.03-.93-.02h-.09l.88,4.49c.04,.18-.03,.36-.17,.48-.14,.12-.33,.15-.5,.09-.44-.16-.84-.31-1.22-.46-.78-.3-1.45-.55-2.14-.76-1.22-.37-1.47-1.38-1.67-2.19-.05-.18-.09-.36-.14-.53l-1.44,.89-.45,.11-3.26-.2c-.21-.01-.43,0-.65,0-.56,.01-1.14,.03-1.67-.21-1.02-.47-1.89-.32-2.89,.04-.83,.3-1.53,.38-2.08,.24-1.51-.39-1.63-1.54-1.51-2.85,0-.09-.03-.18-.1-.24-1.34-1.06-2.5-1.53-3.8-1.55-.64,0-1.27-.06-1.89-.12-.5-.04-.99-.09-1.49-.1-1.07-.04-2.15-.06-3.22-.08-.73-.01-1.45-.03-2.18-.05h-.28c-.39,0-.83,0-1.23-.19-1.03-.49-2.02-1.01-3.06-1.56l-1.17-.61c-.12-.06-.21-.17-.25-.3-.04-.13-.02-.27,.04-.39l.58-1.04c-1.1-1.02-2.16-.54-3.72,.3l-.22,.12c-.16,.09-.36,.08-.51-.02l-.19-.13c-.13-.09-.24-.16-.34-.23-.04-.03-.08-.05-.12-.08-.16-.1-.36-.22-.49-.44-.72-1.2-1.89-1.71-3.47-1.52-.95,.12-1.84,0-2.7-.13-.41-.06-.83-.12-1.24-.15-1.12-.08-2.01,.2-2.76,.84-.49,.42-.42,.87-.25,1.64,.03,.13,.06,.27,.08,.4,.04,.22-.07,.44-.27,.54-.17,.09-.35,.16-.53,.24-.32,.13-.62,.26-.82,.44-1.53,1.39-3.19,1.49-5.08,.31-.1-.05-.51-.01-.79,.13-1.84,.95-3.31,.71-4.47-.75,0,0-.04-.01-.1-.04l-.09-.04c-.56,.21-.8,.73-1.12,1.51-.28,.68-.6,1.44-1.32,1.91-.17,.11-.38,.13-.57,.07-1.28-.36-2.82-1.01-3.59-2.8-.06-.15-.04-.3,.02-.43-.02,0-.03,.01-.05,.01-.09,0-.18-.02-.26-.07-.33-.21-.53-.46-.6-.76-.1-.47,.17-.85,.37-1.13l.08-.12c.7-1.06,.7-1.31,0-2.17l-.3-.38c-.71-.9-1.38-1.75-2.44-2.12-.09-.03-.19,0-.27,.05l-.89,.73c-.15,.12-.35,.15-.53,.07l-.55-.26c-.5-.23-1.02-.48-1.55-.72-.18-.08-.37-.19-.57-.3-.22-.13-.59-.34-.72-.34-.47,.23-.78,.83-.8,1.63,0,.44-.19,.85-.33,1.15-.04,.09-.08,.18-.11,.26-.08,.22-.3,.36-.54,.33l-7.41-1.04c-.28-.04-.52-.24-.62-.51l-.2-.58c-.04-.1-.13-.17-.24-.18l-1.34-.08c-1.84-.11-3.75-.21-5.66-.27-.21-.03-.43,.14-.68,.29-.17,.1-.35,.19-.53,.28-.15,.07-.33,.05-.48-.04l-3.96-2.58-.88,.48c-.06,.03-.1,.08-.12,.14l-.6,1.67c-.08,.23-.27,.4-.5,.47l-3.11,.93c-.41,.12-.8,.29-1.22,.48-.59,.26-1.2,.52-1.87,.65-.23,.04-.44-.07-.54-.27l-.22-.45c-.1-.21-.05-.46,.14-.61,.29-.23,.57-.47,.86-.71,.62-.53,1.27-1.08,1.98-1.53,1.2-.77,2.42-1.52,3.63-2.26,1.6-.98,3.26-2,4.85-3.06,1.47-.98,2.02-2.07,1.73-3.41-.26-1.21-3-3.17-4.1-2.96-1.25,.24-2.6,.45-4.09,.04-.26-.07-.72,.11-1.17,.29-.27,.11-.56,.22-.84,.3-.12,.03-.25,.02-.37-.04l-.71-.37c-.24-.13-.34-.42-.22-.66l.46-.93c-.35-.04-.7-.09-1.03-.15-1-.16-1.87-.3-2.75,.04-.26,.1-.55-.03-.65-.29-.1-.26,.03-.55,.29-.65,.38-.15,.76-.22,1.13-.25l.52-.87c-.7-.45-1.55-.44-2.52-.42-.34,0-.68,.01-1.02,0-1.16-.06-1.69,.61-2.4,1.7-.19,.29-.39,.6-.62,.88l.24,.92c.09,.36-.09,.74-.43,.89-.43,.2-.85,.4-1.27,.61-1.17,.58-2.38,1.18-3.67,1.5-.97,.25-2,.06-3-.12-.34-.06-.67-.12-1-.16-1.91-.24-3.73,.12-5.73,1.13-1.88,.94-3.83,1.81-5.71,2.65-1.12,.5-2.23,.99-3.34,1.51-.32,.15-.61,.33-.9,.53-.14,.09-.27,.18-.4,.27l.78,2.55c.04,.14,.02,.28-.05,.4-.07,.12-.19,.21-.33,.23-3.59,.7-6.59,1.12-9.42,1.31-.33,.02-.75,.1-.91,.32-.17,.24-.08,.71,.02,1.06,.1,.35,.18,.71,.26,1.12l.09,.44,1.31,1.22s.07,.08,.09,.13l.52,.52c.07,.04,.14,.09,.18,.16l.06,.09,.08,.09-.02,.02,.65,.96,.1-.03c.26-.08,.54,.06,.63,.33s-.06,.54-.33,.63l-.45,.14s-.1,.02-.15,.02c-.12,0-.23-.05-.32-.13l-1.93,.24c-.25,.03-.5-.07-.68-.26-1.43-1.59-3.04-2.45-5.26-2.78l.38,.93c.16,.39-.02,.86-.42,.99s-.83,.06-1.18,0c-.47-.08-.76-.13-1.02,.13,.1,.08,.2,.17,.3,.26,.46,.39,.89,.76,1.33,.85,1.26,.27,1.87,1.02,2.52,1.82,.11,.13,.14,.31,.08,.48-.06,.16-.19,.28-.36,.32-.14,.03-.26,.07-.37,.11-.18,.06-.37,.12-.57,.12-.08,0-.17-.01-.25-.04-1.39-.44-2.64-.84-3.87-1.33-.69-.28-1.17-1.03-1.32-1.61-.12-.47-.06-.88,.18-1.17,.44-.54,.41-1.1,.36-1.8-.01-.22-.03-.45-.03-.69l-.18-.03-.33,1.49c-.04,.16-.15,.3-.31,.36-.09,.04-.19,.04-.28,.02l-1.96,1.96c.01,.06,.02,.13,.03,.19,.04,.22,.07,.43,.15,.58,.17,.33,.43,.66,.73,.95,.61,.58,1.18,1.59,.44,3.1-.48,.98-.62,1.93-.44,2.95,.02,.1,.1,.19,.2,.22l1.73,.46c.09,.02,.16,.08,.22,.14,.25-.15,.52-.28,.83-.37l.22-.07c.71-.22,1.68-.52,2.48,.47,.36,.45,.73,.89,1.13,1.36l.48,.57c.23,.27,.24,.66,.03,.94l-1.15,1.57s-.02,.02-.04,.03c0,.09,.01,.17,.01,.26,0,.28-.21,.5-.49,.51h-.01c-.27,0-.49-.22-.5-.49-.03-1.54-.32-2.61-1.61-3.16-.27-.12-.48-.31-.66-.48-.06-.06-.13-.12-.19-.18-.03-.03-.05-.06-.07-.09-.6,.38-1.02,1.01-1.43,1.84,.03,.1,.06,.2,.09,.31,.12,.41,.25,.88,.29,1.36,.07,.84-.06,1.44-.37,1.79-.64,.71-1.33,1.4-2,2.06-.57,.56-1.14,1.12-1.68,1.71-.58,.62-1.24,.77-1.87,.77-.2,0-.4-.01-.6-.03-1.37-.13-2.96-.4-4.33-1.4-.22-.16-.27-.48-.11-.7,.16-.22,.48-.27,.7-.11,.02,.01,.04,.03,.06,.04,.44-.55,1.03-.73,1.83-.51,.35,.1,.81,.07,1-.05,1.94-1.31,3.46-2.48,3.99-4.49,.1-.37,.02-.9-.09-1.01-1.34-1.14-1.15-2.49-.91-3.7,0-.03,0-.06,0-.09l-.31-1.86,.14-.02s0-.01,0-.02c.47-1.8,.2-3.12-.88-4.25-.22-.23-.3-.57-.17-.86l1.33-3.03c.03-.06,.03-.13,.01-.2-.19-.6-.61-.84-1.52-.93-.79-.08-1.53-.36-2.32-.67-.24-.09-.49-.19-.75-.28-.06,.08-.11,.15-.17,.23-.27,.36-.53,.7-.67,1.07-.76,1.92-1.52,3.61-3.19,4.79-.2,.14-.37,.35-.59,.63-.02,.02-.04,.05-.06,.07l.74,.55c.15,.11,.23,.3,.19,.49-.03,.17-.14,.31-.3,.37l-.2,3.08c0,.08,.03,.16,.08,.21l2.63,2.5c.24,.23,.31,.6,.16,.9l-.87,1.76c-.06,.13-.17,.22-.31,.26-.13,.04-.28,.02-.4-.05-.46-.28-.9-.56-1.35-.84-.99-.62-1.92-1.22-2.92-1.71-1.65-.83-3.44-1.6-5.47-2.37-.3-.12-.72-.08-1.15-.04-.23,.02-.47,.04-.7,.04h-1.44c-.17,0-.32-.08-.41-.22-.07-.1-.1-.23-.08-.35l-1.57-1.31-.08,.62,2.94,2.62c.31,.28,.34,.75,.08,1.06l-2.03,2.43c-.1,.12-.24,.17-.4,.18-1.21-.03-1.25-1.02-1.27-1.49-.02-.36-.04-.54-.12-.64l-1.75,1.55c-.11,.1-.26,.14-.4,.12-.29-.04-.56-.09-.83-.13-.58-.1-1.12-.19-1.65-.22-.77-.05-1.33,.12-1.82,.55-.43,.39-.88,.58-1.3,.58-.33,0-.65-.14-.93-.38-.13,.07-.29,.09-.44,.03-.25-.11-.37-.41-.25-.66l.47-1.06c-.37,.02-.57,.23-.83,.58l-.08,.12c-.41,.56-1.1,1.51-2.47,.82-.07-.02-.34,.05-1.06,.44-.43,.23-.85,.49-1.26,.76-.65,.41-1.31,.83-2.04,1.14-1.1,.47-1.6,1.22-1.74,2.68-.02,.25-.15,.48-.37,.6-.52,.27-1,.39-1.46,.39-1.11,0-2.04-.67-2.89-1.28l-.26-.18c-.14-.1-.22-.27-.21-.45,.15-1.94,.78-2.26,2.06-2.21l.24-.62-1-1.48c-.06-.08-.16-.13-.26-.12l-1.9,.26c-.15,.02-.26,.17-.22,.32l.26,1.2c.04,.16-.02,.31-.12,.43-.01,.07-.03,.13-.07,.19-.47,.74-.18,1.22,.34,1.94,.11,.15,.21,.29,.3,.44,.08,.12,.1,.27,.05,.41l-.86,2.74c-.04,.13-.13,.24-.25,.3-.12,.06-.26,.07-.39,.03l-2.26-.77c-.09-.03-.18-.01-.25,.04l-3.65,2.88c-.11,.09-.13,.24-.06,.36,.56,.83,1.06,1.71,.57,2.84-.08,.19-.27,.3-.46,.3-.07,0-.13-.01-.2-.04-.1-.04-.17-.12-.22-.21-1.8-.03-3.39-.59-4.82-1.71l-.25,.41,2.03,1.83c.27,.25,.33,.65,.14,.96l-.58,.97c-.09,.15-.25,.24-.43,.24-.02,0-.04,0-.06,0-.15-.02-.32-.02-.5-.02-.6,0-1.16-.02-1.38-.47-.39-.8-1.11-1.16-1.88-1.53-.37-.18-.75-.37-1.11-.61-.12-.08-.19-.2-.21-.34-.02-.11-.04-.21-.06-.31-.05-.25-.1-.5-.08-.78,.12-2.36-.64-3.77-2.46-4.57-.97-.42-1.41-1.17-1.26-2.09,0,0,0-.01,0-.02-.17-.11-.35-.21-.52-.32-.23-.16-.28-.47-.13-.7,.16-.23,.47-.28,.7-.13,1.45,1,3,1.69,4.75,2.1,1.51,.35,3,.83,4.12,1.21,1.47,.49,4.7-.76,5.24-2.03,.16-.37,.2-.82,.25-1.3,.02-.16,.03-.33,.05-.49-1.69-1.55-3.63-2.92-5.93-4.16-.42-.23-.84-.48-1.25-.73-.71-.42-1.37-.82-2.09-1.13-.65-.28-1.51-.31-2.2-.34-1.47-.05-2.57-.48-3.46-1.34-.43-.41-.92-.5-1.83-.3-1.18,.25-2.16,.9-2.99,1.49-.27,.19-1.12,.9-.85,1.92,.12,.43,.05,.86-.14,1.37-.04,.11,0,.23,.08,.3l1.82,1.47c.32,.26,.38,.73,.12,1.06l-1.11,1.44c.02,.08,.04,.15,.07,.23,.08,.3,.16,.58,.3,.74,1.17,1.31,1.42,2.93,.76,4.93-.28,.84-.04,1.4,.45,2.09,.24,.33,.46,.67,.69,1.03l.31,.47c.1,.14,.11,.33,.04,.48l-.49,1.08c-.05,.11-.02,.24,.08,.32l2.35,1.84c.11,.09,.18,.21,.19,.35s-.03,.27-.13,.38l-5.39,5.97c-.1,.11-.09,.27,0,.37l1.45,1.45c.1,.1,.15,.23,.15,.35,.22-.05,.45,.05,.55,.27,.12,.25,0,.55-.24,.66-.16,.07-.32,.14-.48,.21-.36,.16-.71,.31-1.02,.49-.11,.06-.22,.18-.34,.31-.19,.19-.39,.4-.68,.53-.82,.37-1.04,.91-.8,1.98,.23,1.04,.36,2.12-.21,3.04-.04,.06-.05,.14-.03,.2l1.12,3.85c.02,.08,.08,.14,.16,.17l4.06,1.65c.15,.06,.26,.19,.3,.35,.03,.12,.06,.26,.08,.42,.07,.36,.15,.77,.29,1.15,.23,.61,.54,1.19,.9,1.69,.16,.23,.35,.45,.54,.67,.57,.67,1.21,1.42,1.23,2.52,0,.37-.28,.7-.64,.76l-.65,.11c-.12,.02-.21,.11-.22,.23l-.15,1.34c.09,0,.17,.01,.26,.03,.33,.04,.7-.03,1.09-.11,.06-.01,.12-.02,.19-.04,.02-.14,.1-.26,.21-.34,.13-.09,.3-.11,.45-.06l2.13,.76c.32,.11,.53,.42,.51,.76l-.05,1.01c0,.11,.06,.21,.16,.25,1.15,.48,1.95,1.22,2.41,2.23,.05,.1,.15,.16,.27,.15,1.34-.17,2.4,.5,3.2,1.14,.11,.09,.28,.14,.33,.13,1.63-.21,2.89,.45,3.87,2.02,.1,.16,.14,.37,.1,.56l-.44,2.11,.07,.05c.14,.1,.21,.26,.21,.43,0,.17-.1,.32-.24,.41-.22,.13-.44,.28-.66,.42-.54,.36-1.1,.73-1.73,.94-.32,.11-.46,.23-.54,.46l1.04,.71c.13,.09,.21,.23,.22,.39,0,.16-.06,.31-.18,.41l-.91,.75s0,.03,0,.05c0,.1-.01,.2-.01,.3,0,.3,0,.64-.18,.95-.38,.64-.8,1.26-1.21,1.86l-.29,.43c.34,.28,.68,.57,1.01,.86,.63,.54,1.28,1.1,1.95,1.6,.39,.29,.84,.52,1.31,.77,.13,.07,.25,.14,.38,.2l.21-.18c.14-.12,.33-.15,.5-.08,.22,.08,.44,.2,.66,.3,.29,.15,.66,.34,.83,.3,1.22-.27,2.11,.26,2.88,.73l.36,.22c.3,.17,.6,.35,.89,.53l.17,.1c1.49-.45,2.7,.11,4.11,1.85,.05,.01,.09,.03,.14,.05l1.9,1.24,.59-.89c-.1-.16-.2-.32-.31-.47-.76-1.07-1.13-2.04-1.19-3.15-.02-.39-.24-.89-.61-1.41-.86-1.21-1.04-1.91,.08-3.14,.94-1.02,1.96-1.94,3.03-2.79,.09-.07,.12-.19,.09-.3-.55-1.59-1.26-2.79-2.74-3.5-1.14-.54-1.65-1.55-1.57-3.09,.08-1.69,.67-3.03,1.89-4.33,.11-.12,.27-.18,.43-.15,.16,.02,.3,.12,.38,.27l.79,1.54,.41-.27s0-.06,0-.09c-.03-.31-.05-.64,.07-.95,.56-1.43,1.91-2.64,3.61-3.24,1.7-.6,3.44-.52,4.76,.23,.8,.46,1.46,.91,2,1.38,.95,.83,1.89,.88,3.17,.18,.92-.5,1.99-1.09,3.25-.38,.79,.45,1.65,.68,2.63,.69,.95,0,1.41-.08,1.65-.93l-1.71-1.13c-.22-.14-.29-.43-.17-.66,.13-.25,.27-.5,.4-.76,.38-.72,.77-1.47,1.25-2.18,.1-.16,.25-.24,.42-.29l-.53-2.25c-.06-.26,.09-.51,.34-.59,.17-.05,.3-.1,.43-.15,.27-.1,.51-.19,.79-.19,2.36-.03,4.47-.85,6.71-1.72,.71-.27,1.42-.55,2.13-.8,.27-.09,.54-.19,.8-.29,1.35-.51,2.75-1.03,4.39-.69,.85,.18,1.89,.56,2.3,1.91,.12,.4,.37,.58,1.09,.82,1.01,.34,1.93,.85,2.91,1.4,.31,.17,.62,.35,.95,.52,.05-.05,.11-.1,.16-.15,.97-.94,2.18-2.12,3.8-1.61l.27,.16c2.35,2.04,3.62,4.48,4.97,7.07,.28,.53,.55,1.07,.84,1.6l.9-1.08c.09-.11,.22-.17,.35-.18,.14,0,.27,.04,.37,.13l1.42,1.33c.13-.01,.26-.03,.39-.04,.48-.05,.99-.09,1.43-.25,.71-.24,1.52-.36,2.15,.58,.12,.17,.25,.33,.38,.49,.16,.19,.32,.39,.46,.6,.74,1.13,1.42,1.54,2.43,1.47,1.43-.11,1.84,.92,2.17,1.81,.58,.12,.97-.02,1.31-.52,.18-.26,.44-.4,.66-.52,.07-.04,.13-.07,.19-.11,.45-.28,.89-.57,1.33-.85,1.17-.76,2.39-1.54,3.62-2.25,.54-.31,1.31-.47,2.06-.42,.65,.04,1.28,.18,1.94,.33,.28,.06,.57,.13,.88,.19,.14,.03,.26,.11,.34,.24,.05,.09,.11,.2,.16,.31,.11,.22,.22,.45,.37,.59,.23,.22,.71,.67,.97,.68,.98,.02,1.96-.04,2.99-.11,.31-.02,.62-.04,.94-.06l.45-.85-.86-1.21c-.16-.23-.19-.52-.07-.78,.52-1.08,1.13-2.26,2.43-2.77,.15-.06,.33-.06,.48-.01,.32,.1,.63,.2,.93,.29,.75,.24,1.45,.47,2.16,.61,.95,.19,1.51,.67,1.82,1.54,.34,.97,1.12,1.72,2.39,2.31,.88,.41,1.68,.37,2.39-.12,.6-.41,1.53-.59,2.27-.44,1.5,.31,2.88,1.21,4.1,2.67,.37,.44,.68,.57,1.15,.52,.45-.05,.9-.11,1.36-.17,1.02-.13,2.08-.27,3.13-.28,.95-.01,1.65-.4,2.47-1.01,.43-.33,.88-.64,1.22-.89l.35-.25c.12-.09,.27-.12,.41-.08l3.17,.78v-.05c.05-.15,.17-.28,.31-.34,.15-.06,.32-.04,.45,.04l2,1.28s.05-.07,.07-.11c.41-.63,.92-1.42,1.99-1.61,.09-.11,.23-.4,.24-.59,.1-1.31,.43-2.89,2.02-4.06,.12-.09,.15-.27,.05-.39l-1.11-1.31c-.26-.31-.23-.76,.06-1.05,1.1-1.12,2.32-1.47,3.73-1.1,.58,.16,.91,.11,.98,.07,1.33-.99,2.6-.43,3.53-.01,1.36,.61,2.62,1.29,3.18,2.92,.53,1.56,1.18,3.13,1.8,4.64l.45,1.1c.16,.38,.35,.75,.57,1.13h0c.1-.01,.2,0,.3,.06,.33,.17,.66,.35,.99,.53,.72,.39,1.46,.79,2.21,1.13,1.23,.55,1.5,1.63,1.73,2.57,.04,.16,.08,.33,.13,.49,.1,0,.21,0,.31,0,.92,.03,1.58,.05,2.24-.71,.46-.54,1.28-.58,2.07-.62,.21-.01,.41-.02,.6-.04,.34-.04,.66,.12,.82,.42,.6,1.15,.38,1.95-.18,2.85-.4,.64-.61,1.41-.84,2.22-.12,.42-.24,.84-.38,1.24-.15,.43-.33,.85-.53,1.31l-.29,.67c-.08,.2-.28,.33-.51,.31l-1.88-.19-.72,.6v3.78c.2-.05,.42-.1,.65-.12,1.02-.1,1.68,.31,2.2,.81l.08-.02c.15-.03,.25-.06,.32-.09,1.36-.62,2.17-1.81,3.03-3.08l.14-.21c.95-1.4,1.93-2.79,2.9-4.17,1.33-1.89,2.71-3.85,4-5.82,.71-1.09,1.11-2.27,1.08-3.16-.09-2.34,.24-4.36,1.04-6.34,.87-2.17,.03-4.42-2.15-5.74-.43-.26-.58-.21-.83,.05-.3,.31-.61,.62-.92,.92l-.42,.42c-.11,.11-.27,.17-.42,.14-.16-.02-.29-.11-.37-.25l-.79-1.41-.73,.59c-.21,.17-.53,.14-.7-.08-.13-.16-.14-.38-.05-.55-.03-.05-.05-.1-.06-.16l-.13-.88-.87,.17c-.34,.07-.68-.11-.84-.42-.47-.93-.25-1.87,.66-2.78,.41-.42,.83-.83,1.25-1.25,.55-.54,1.09-1.09,1.63-1.64,.77-.79,1.53-1.58,2.29-2.37l.95-.98c.31-.33,.63-.65,.95-.97,.72-.73,1.46-1.48,2.14-2.26,.91-1.06,1.94-1.73,3.14-2.06,2.66-.74,5.37-.58,7.99-.44l.58,.03c.54,.02,1.09-.14,1.21-.3,.85-1.09,1.93-1.17,2.88-1.1,1.49,.1,2.25,.73,2.37,1.95,.01,.12,.09,.22,.21,.25,1.2,.26,2.56,.08,3.78-.47,.14-.06,.19-.23,.12-.37-.5-1.01-.43-2.21,.25-3.05,1.19-1.47,2.66-3.12,4.6-4.19,.14-.07,.3-.08,.44-.02,.1,.04,.18,.11,.23,.2l4.46-.67c.27-.03,.53,.15,.57,.42,.02,.16-.03,.3-.13,.41,0,.04,0,.08-.03,.11-.2,.43-.65,1.44-.54,1.71,.04,.09,.24,.2,.43,.29,.36-.26,.7-.55,1.06-.85,.89-.75,1.81-1.53,3.01-1.89,.11-.03,.19-.13,.19-.25v-1.4c0-.27,.14-.52,.37-.66l1.24-.75c.29-.18,.67-.14,.92,.1l.63,.59c.09-.03,.17-.07,.26-.1,.27-.08,.54,.07,.62,.33,.08,.26-.07,.54-.33,.62-.91,.28-1.31,.82-1.34,1.81-.05,1.85-.66,3.19-1.88,4.1-.15,.12-.32,.15-.48,.15-.08,0-.16,0-.23-.02-.3,.14-.58,.27-.77,.46-.84,.83-1.65,1.69-2.46,2.55-.78,.83-1.56,1.65-2.37,2.46-.59,.59-1.23,1.13-1.85,1.66-.35,.3-.7,.59-1.04,.9-.09,.08-.19,.16-.28,.24-.28,.23-.54,.45-.66,.69-.25,.52-.56,1-.86,1.47-.59,.91-1.14,1.77-1.25,2.8-.21,1.98-.08,3.72,.42,5.32,.52,1.66,1.04,3.43,1.31,5.24,.13,.85,.16,1.71,.16,2.56,.5-.67,1.01-1.36,1.47-2.06,.33-.5,.51-.95,.5-1.25-.06-1.4,.98-1.77,1.67-2.02h0c.75-.27,1.25-.99,1.25-1.78v-.64c0-.18,.1-.35,.25-.44l2.68-1.52c.1-.05,.15-.17,.13-.28-.4-2.65-.05-3.52,1.83-4.42,.1-.05,.16-.15,.16-.26l-.32-3.69-.61-.06c-.24-.02-.46-.15-.57-.35-.58-1.07-.22-2.02,.22-2.81,.48-.88,.92-1.78,1.39-2.72,.18-.36,.36-.73,.54-1.1,.14-.29,.46-.46,.78-.42l2.31,.29c.1,.01,.2-.04,.26-.12l.91-1.47c.1-.15,.28-.24,.45-.24,.18,0,.34,.11,.42,.27l.71,1.4,1-1.18c.08-.1,.2-.16,.33-.17,.19-.02,.38-.04,.56-.05,.36-.03,.69-.06,1-.13,.85-.21,1.75-.28,2.56,.62,.16,.17,.39,.31,.66,.45l.59-.46c.26-.21,.52-.41,.79-.62l.42-.53c.11-.14,.28-.2,.45-.18,.31-.26,.62-.52,.93-.79,.86-.75,1.74-1.54,2.75-2.11,.55-.31,1.11-.6,1.67-.88,1.36-.69,2.65-1.35,3.6-2.27,.2-.2,.48-.29,.75-.22l3.18,.81-.43-1.06c-.07-.17-.15-.35-.22-.52-.18-.43-.38-.87-.51-1.33-.27-.97-.68-2.05-1.63-2.7-.3-.2-.67-.33-1.03-.46-.17-.06-.34-.12-.48-.18-.18-.07-.3-.25-.31-.44l-.06-1.25c-.01-.28,.2-.51,.48-.52,.27-.02,.51,.2,.52,.48v.05l3.53,.74c.1,.02,.2-.02,.26-.09l1.49-1.86c.07-.09,.08-.21,.02-.31l-.59-.92c-.15-.23-.16-.52-.04-.76l.8-1.6c.07-.15,.22-.25,.38-.27,.17-.02,.33,.04,.44,.16,.19,.22,.38,.41,.56,.59,.37,.38,.73,.74,.98,1.17q.73,1.24,2.01,.97c.52-.11,1.03-.13,1.57-.15,.23,0,.47-.02,.72-.04,.14-.01,.27,.04,.38,.13s.16,.23,.16,.37v1.45c0,.1,.06,.19,.14,.24l4.07,2.1c.03-.06,.05-.12,.08-.19,.22-.52,.44-1.06,.49-1.57,.08-.79,.2-1.99,1.53-2.56l.45-.03,.92,.21c.06-.07,.13-.13,.19-.2,.3-.32,.62-.64,.83-1,.13-.22,.18-.62,.14-.74-1.48-1.69-3.26-2.61-5.4-2.78Z"/></svg>