<?xml version="1.0" encoding="UTF-8"?><svg id="a" xmlns="http://www.w3.org/2000/svg" viewBox="0 0 585 367.47"><defs><style>.b{fill:none;}.c{fill:#fff;}.d{fill:#aed5b2;}</style></defs><path class="d" d="M268.06,190.76h-.77c-55.45-.06-124.45-.13-202.61-33.28-25.03-10.62-49.2-23.79-71.84-39.16l3.37-4.96c22.32,15.15,46.14,28.14,70.82,38.6,77.04,32.67,145.37,32.74,200.27,32.8h.76c109.47,0,193.86-24.87,239.26-38.25,32.2-9.49,64.18-20.74,95.07-33.45l2.28,5.55c-31.08,12.79-63.27,24.11-95.66,33.66-45.68,13.46-130.64,38.49-240.96,38.49Z"/><path class="d" d="M360.57,229.32l-.77-5.95c7.83-1.02,15.79-2.18,23.65-3.45l.96,5.92c-7.93,1.28-15.95,2.45-23.84,3.48Zm47.56-7.7l-1.14-5.89c7.71-1.49,15.58-3.14,23.41-4.89l1.31,5.86c-7.88,1.77-15.82,3.42-23.58,4.93Zm47-10.52l-1.47-5.82c7.45-1.88,15.02-3.89,23.13-6.14l1.6,5.78c-8.16,2.26-15.77,4.28-23.26,6.18Zm46.38-12.8l-1.69-5.76,4.3-1.27c6.18-1.82,12.44-3.73,18.61-5.69l1.81,5.72c-6.21,1.96-12.51,3.89-18.72,5.72l-4.3,1.27Zm45.89-14.53l-1.95-5.67c7.53-2.59,15.11-5.3,22.53-8.05l2.09,5.62c-7.47,2.77-15.09,5.5-22.67,8.1Zm45.13-16.76l-2.23-5.57c3.11-1.25,6.08-2.45,8.89-3.61l2.28,5.55c-2.83,1.16-5.81,2.38-8.94,3.63Z"/><g><path class="d" d="M385.64,338.08c-2.63,0-5.27-.02-7.9,.05-.89,.02-1.27-.33-1.57-1.09-1.3-3.36-2.65-6.7-3.98-10.04-.15-.38-.33-.76-.72-1.1v12.11h-8.51v-28.97c1.67,0,3.39,.19,5.06-.04,2.65-.37,3.99,.56,4.83,3.12,1.04,3.14,2.59,6.11,4.17,9.14v-12.18h8.64v29.01Z"/><path class="d" d="M186.68,338.79c-1.58-.36-3.2-.61-4.74-1.12-3.42-1.13-4.73-2.97-4.87-6.51-.05-1.1-.12-2.21-.18-3.4h9.61c0,1.42,0,2.8,0,4.17,0,1.02,.33,1.79,1.55,1.84,1.17,.05,1.83-.45,2.1-1.65,.49-2.21-.31-3.91-2.32-4.94-2.34-1.2-4.68-2.4-7-3.62-3.98-2.08-5.57-7.62-3.3-11.5,1-1.7,2.67-2.51,4.47-2.96,4.51-1.14,9.01-1.07,13.41,.58,2.36,.88,3.55,2.59,3.57,5.08,0,.98,0,1.97,0,3.02h-9.44c0-.91,0-1.84,0-2.77,0-.88-.23-1.57-1.29-1.64-1.03-.07-1.68,.4-1.97,1.36-.44,1.5,.26,3.17,1.71,3.93,2.33,1.22,4.64,2.49,7.03,3.55,3.84,1.71,5.05,4.78,4.91,8.67-.16,4.29-1.41,5.95-5.59,7.11-1.26,.35-2.56,.53-3.84,.78h-3.84Z"/><path class="d" d="M325.16,309.11h17.41v6.68h-8.25v4.01h8.25v6.62h-8.22v4.8h8.2v6.78h-17.39v-28.88Z"/><path class="d" d="M305.11,309.12v7.24h-7.76v3.93h7.77v7.06h-7.81v10.66h-9.18v-28.88h16.98Z"/><path class="d" d="M269.73,329.71v8.32h-18.65v-28.88h9.02v20.56h9.62Z"/><path class="d" d="M220.49,309.1h9.51v28.93h-9.51v-28.93Z"/></g><g><path class="b" d="M302.77,152.7c-.09-.18-.31-.34-.65-.45-1.03-.35-3.17-.31-6.03,.59,.08,.93,.15,1.87,.19,2.81,.05,1.14,.12,2.32,.21,3.53,4.82-2.67,6.71-5.61,6.28-6.48Z"/><path class="b" d="M291.23,154.94c-2.03,1.12-3.77,2.41-4.97,3.71-1.26,1.36-1.61,2.39-1.4,2.82,.36,.74,2.92,1.07,6.78-.16-.16-1.77-.28-3.59-.35-5.45-.01-.31-.04-.61-.06-.91Z"/><path class="c" d="M304.98,151.62c1.56,3.19-2.91,7.49-8.26,10.22,.06,.64,.14,1.29,.22,1.95l8.35-3.56c2.69-1.04,4.73-3.14,5.64-5.78,.77-2.22,.62-4.56-.39-6.25-.8-1.34-2.18-2.39-3.88-2.97-.26-.09-.53-.17-.81-.23-2.5-.6-5.1-.16-7.34,1.25l-.06,.03-2.99,1.66c.13,.8,.25,1.61,.35,2.42,4.15-1.22,7.97-1.15,9.15,1.27Z"/><path class="c" d="M288.15,164.54c-1.36,.12-2.52,.01-3.44-.3-.97-.33-1.68-.9-2.06-1.69-.75-1.53-.11-3.5,1.8-5.57,1.57-1.7,3.89-3.36,6.56-4.71-.06-.59-.13-1.17-.21-1.75l-122.18,67.93,123.52-52.63c-.09-.67-.18-1.35-.25-2.03-1.32,.39-2.58,.65-3.74,.75Z"/><path class="d" d="M302.13,152.25c.34,.12,.56,.27,.65,.45,.43,.87-1.46,3.81-6.28,6.48,.03,.44,.07,.89,.11,1.34,5.05-2.69,8.27-6.33,7.28-8.36-.79-1.61-4-1.75-7.9-.58,.04,.42,.09,.83,.13,1.25,2.86-.9,5-.94,6.03-.59Z"/><path class="d" d="M284.86,161.47c-.21-.43,.14-1.46,1.4-2.82,1.2-1.3,2.94-2.59,4.97-3.71-.03-.45-.05-.9-.09-1.35-5.11,2.69-8.38,6.37-7.38,8.42,.8,1.63,4.06,1.75,8.01,.54-.04-.41-.09-.82-.12-1.24-3.86,1.24-6.42,.9-6.78,.16Z"/><path class="d" d="M159.09,223.86c-.77,.33-1.3-.78-.58-1.18l132.11-73.46c-.07-.43-.14-.86-.22-1.28l-132.49,73.67c-.89,.5-1.23,1.56-.78,2.48,.23,.47,.62,.81,1.08,.96,.42,.15,.9,.14,1.35-.06l132.94-56.64c-.07-.41-.13-.83-.19-1.25l-133.24,56.77Z"/><path class="d" d="M297.86,145.2c5.11-3.21,11.41-1.53,13.73,2.38,2.54,4.27,.42,11.37-5.82,13.79l-8.67,3.7c.06,.42,.11,.84,.17,1.26l8.94-3.81c3.33-1.29,5.89-3.93,7.04-7.25,1.01-2.94,.79-5.97-.6-8.31-1.26-2.11-3.53-3.69-6.22-4.34-3.14-.76-6.4-.21-9.19,1.54l-2.24,1.24c.09,.42,.17,.84,.25,1.27l2.61-1.45Z"/><path class="d" d="M311.59,147.57c-2.32-3.9-8.62-5.59-13.73-2.38l-2.61,1.45c.08,.43,.15,.85,.22,1.28l2.99-1.66,.06-.03c2.24-1.4,4.84-1.85,7.34-1.25,.28,.07,.54,.14,.81,.23,1.69,.58,3.08,1.64,3.88,2.97,1.01,1.7,1.16,4.03,.39,6.25-.91,2.64-2.95,4.73-5.64,5.78l-8.35,3.56c.05,.42,.1,.84,.16,1.27l8.67-3.7c6.25-2.42,8.37-9.51,5.82-13.79Z"/><path class="d" d="M284.45,156.98c-1.91,2.06-2.55,4.04-1.8,5.57,.38,.79,1.09,1.35,2.06,1.69,.92,.32,2.08,.42,3.44,.3,1.16-.1,2.42-.36,3.74-.75-.05-.41-.08-.83-.12-1.24-3.95,1.21-7.22,1.09-8.01-.54-1-2.05,2.27-5.72,7.38-8.42-.04-.44-.07-.88-.12-1.32-2.67,1.35-4.99,3.01-6.56,4.71Z"/><path class="d" d="M303.88,152.16c.99,2.03-2.22,5.67-7.28,8.36,.04,.44,.08,.87,.12,1.32,5.35-2.73,9.82-7.03,8.26-10.22-1.18-2.42-5.01-2.49-9.15-1.27,.05,.41,.1,.82,.15,1.23,3.9-1.18,7.12-1.04,7.9,.58Z"/><path class="d" d="M168.63,218.46l122.18-67.93c-.06-.43-.12-.87-.19-1.3l-132.11,73.46c-.73,.4-.19,1.51,.58,1.18l133.24-56.77c-.06-.42-.12-.84-.18-1.26l-123.52,52.63Z"/><path class="d" d="M297.1,165.06l-4.77,2.03c.06,.42,.12,.84,.19,1.25l4.76-2.03c-.06-.42-.12-.84-.17-1.26Z"/><path class="d" d="M296.6,160.53c-.04-.45-.08-.9-.11-1.34-.42,.23-.85,.46-1.31,.69-1.27,.62-2.45,1.09-3.54,1.43,.04,.42,.08,.83,.12,1.24,1.27-.39,2.6-.91,3.95-1.57,.3-.15,.59-.3,.88-.45Z"/><path class="d" d="M295.72,160.98c-1.35,.66-2.68,1.18-3.95,1.57,.04,.41,.08,.83,.12,1.24,1.42-.42,2.9-1,4.37-1.72,.16-.08,.31-.16,.46-.24-.04-.44-.08-.88-.12-1.32-.29,.15-.58,.31-.88,.45Z"/><g><path class="d" d="M296.49,159.19c-.09-1.21-.16-2.39-.21-3.53-.04-.94-.11-1.88-.19-2.81-.04-.42-.08-.83-.13-1.25-.04-.41-.1-.82-.15-1.23-.1-.81-.22-1.62-.35-2.42-.07-.43-.14-.86-.22-1.28-.08-.42-.16-.85-.25-1.27-2.82-13.5-10.02-25.88-20.58-34.97-13.19-11.35-29.91-16.56-47.1-14.67-11.69,1.28-24.45,4.47-37.93,9.48-13.81,5.13-28.96,4.5-41.57-1.74-17.75-8.78-23.5-24.46-17.11-46.6l-4.8-1.39c-8.93,30.91,5.78,45.59,19.69,52.47,13.84,6.84,30.43,7.55,45.53,1.94,13.1-4.86,25.46-7.96,36.74-9.19,15.79-1.74,31.17,3.06,43.29,13.49,10.12,8.71,16.89,20.71,19.25,33.73,.08,.43,.15,.85,.22,1.28,.07,.43,.13,.86,.19,1.3,.08,.58,.15,1.17,.21,1.75,.05,.44,.08,.88,.12,1.32,.04,.45,.06,.9,.09,1.35,.02,.3,.05,.61,.06,.91,.08,1.86,.2,3.68,.35,5.45,1.08-.35,2.27-.81,3.54-1.43,.46-.23,.89-.46,1.31-.69Z"/><path class="d" d="M317.31,209.64c-12.74-13.38-18.04-29.61-20.04-43.32l-4.76,2.03c3.47,22.04,13.17,36.4,21.36,44.93,10.51,10.96,20.69,14.92,21.12,15.08l1.78-4.67c-.1-.04-9.73-3.82-19.47-14.06Z"/></g><path class="d" d="M292.15,165.83c.06,.42,.12,.84,.18,1.26l4.77-2.03c-.06-.43-.11-.85-.16-1.27l-4.79,2.04Z"/></g></svg>