<?xml version="1.0" encoding="UTF-8"?><svg id="a" xmlns="http://www.w3.org/2000/svg" viewBox="0 0 540.79 494.54"><defs><style>.b{fill:none;}.b,.c{stroke:#aed5b2;stroke-miterlimit:10;stroke-width:6px;}.c{fill:#fff;}</style></defs><g><path class="c" d="M136.83,35.72V476.64c0,8.23-4.7,14.9-10.5,14.9h0c-5.8,0-10.5-6.67-10.5-14.9V35.72c0-8.23,4.7-14.9,10.5-14.9h0c5.8,0,10.5,6.67,10.5,14.9Z"/><line class="b" x1="115.83" y1="437.07" x2="136.87" y2="417.77"/><line class="b" x1="115.83" y1="411.75" x2="136.87" y2="392.44"/><line class="b" x1="115.83" y1="385.32" x2="136.87" y2="366.01"/><line class="b" x1="115.83" y1="351.74" x2="136.87" y2="332.43"/><line class="b" x1="115.83" y1="314.85" x2="136.87" y2="295.54"/><line class="b" x1="115.83" y1="254.29" x2="136.87" y2="234.98"/><line class="b" x1="115.83" y1="233.92" x2="136.87" y2="214.61"/><line class="b" x1="115.83" y1="165.65" x2="136.87" y2="146.35"/><line class="b" x1="115.83" y1="135.92" x2="136.87" y2="116.62"/><line class="b" x1="115.83" y1="106.19" x2="136.87" y2="86.89"/></g><g><path class="c" d="M434,35.41V476.33c0,8.23-4.7,14.9-10.5,14.9h0c-5.8,0-10.5-6.67-10.5-14.9V35.41c0-8.23,4.7-14.9,10.5-14.9h0c5.8,0,10.5,6.67,10.5,14.9Z"/><line class="c" x1="413" y1="436.76" x2="434.04" y2="417.45"/><line class="c" x1="413" y1="385.01" x2="434.04" y2="365.7"/><line class="c" x1="413" y1="351.42" x2="434.04" y2="332.12"/><line class="c" x1="413" y1="270.43" x2="434.04" y2="251.12"/><line class="c" x1="413" y1="253.98" x2="434.04" y2="234.67"/><line class="c" x1="413" y1="233.61" x2="434.04" y2="214.3"/><line class="c" x1="413" y1="165.34" x2="434.04" y2="146.04"/><line class="c" x1="413" y1="135.61" x2="434.04" y2="116.31"/><line class="c" x1="413" y1="105.88" x2="434.04" y2="86.58"/></g><g><path class="c" d="M515.95,389.68H19.77c-9.26,0-16.77-4.7-16.77-10.5h0c0-5.8,7.51-10.5,16.77-10.5h496.18c9.26,0,16.77,4.7,16.77,10.5h0c0,5.8-7.51,10.5-16.77,10.5Z"/><line class="b" x1="64.3" y1="368.68" x2="86.02" y2="389.72"/><line class="b" x1="122.53" y1="368.68" x2="144.26" y2="389.72"/><line class="b" x1="160.33" y1="368.68" x2="182.05" y2="389.72"/><line class="b" x1="251.47" y1="368.68" x2="273.2" y2="389.72"/><line class="b" x1="269.99" y1="368.68" x2="291.71" y2="389.72"/><line class="b" x1="292.91" y1="368.68" x2="314.63" y2="389.72"/><line class="b" x1="369.73" y1="368.68" x2="391.46" y2="389.72"/><line class="b" x1="403.19" y1="368.68" x2="424.91" y2="389.72"/><line class="b" x1="436.64" y1="368.68" x2="458.37" y2="389.72"/></g><g><path class="c" d="M481.68,234.7H38.91c-8.26,0-14.96-4.7-14.96-10.5h0c0-5.8,6.7-10.5,14.96-10.5H481.68c8.26,0,14.96,4.7,14.96,10.5h0c0,5.8-6.7,10.5-14.96,10.5Z"/><line class="b" x1="78.64" y1="213.71" x2="98.03" y2="234.75"/><line class="b" x1="130.61" y1="213.71" x2="150" y2="234.75"/><line class="b" x1="448.23" y1="213.71" x2="467.62" y2="234.75"/><line class="b" x1="201.38" y1="213.71" x2="220.76" y2="234.75"/><line class="b" x1="262.19" y1="213.71" x2="281.58" y2="234.75"/><line class="b" x1="282.65" y1="213.71" x2="302.03" y2="234.75"/><line class="b" x1="351.2" y1="213.71" x2="370.59" y2="234.75"/><line class="b" x1="381.06" y1="213.71" x2="400.44" y2="234.75"/><line class="b" x1="410.91" y1="213.71" x2="430.3" y2="234.75"/></g><g><path class="c" d="M288.01,17.9V458.82c0,8.23-4.7,14.9-10.5,14.9h0c-5.8,0-10.5-6.67-10.5-14.9V17.9c0-8.23,4.7-14.9,10.5-14.9h0c5.8,0,10.5,6.67,10.5,14.9Z"/><line class="b" x1="267.02" y1="419.25" x2="288.06" y2="399.94"/><line class="b" x1="267.02" y1="367.5" x2="288.06" y2="348.19"/><line class="b" x1="267.02" y1="51.21" x2="288.06" y2="31.9"/><line class="b" x1="267.02" y1="297.03" x2="288.06" y2="277.72"/><line class="b" x1="267.02" y1="236.47" x2="288.06" y2="217.16"/><line class="b" x1="267.02" y1="216.1" x2="288.06" y2="196.79"/><line class="b" x1="267.02" y1="147.83" x2="288.06" y2="128.52"/><line class="b" x1="267.02" y1="118.1" x2="288.06" y2="98.8"/><line class="b" x1="267.02" y1="88.37" x2="288.06" y2="69.07"/></g><g><path class="c" d="M521.03,312.19H24.85c-9.26,0-16.77-4.7-16.77-10.5h0c0-5.8,7.51-10.5,16.77-10.5h496.18c9.26,0,16.77,4.7,16.77,10.5h0c0,5.8-7.51,10.5-16.77,10.5Z"/><line class="b" x1="69.37" y1="291.19" x2="91.1" y2="312.24"/><line class="b" x1="127.61" y1="291.19" x2="149.34" y2="312.24"/><line class="b" x1="165.4" y1="291.19" x2="187.13" y2="312.24"/><line class="b" x1="256.55" y1="291.19" x2="278.28" y2="312.24"/><line class="b" x1="275.06" y1="291.19" x2="296.79" y2="312.24"/><line class="b" x1="297.99" y1="291.19" x2="319.71" y2="312.24"/><line class="b" x1="374.81" y1="291.19" x2="396.54" y2="312.24"/><line class="b" x1="408.27" y1="291.19" x2="429.99" y2="312.24"/><line class="b" x1="441.72" y1="291.19" x2="463.45" y2="312.24"/></g><g><path class="c" d="M517.66,157.22H21.48c-9.26,0-16.77-4.7-16.77-10.5h0c0-5.8,7.51-10.5,16.77-10.5h496.18c9.26,0,16.77,4.7,16.77,10.5h0c0,5.8-7.51,10.5-16.77,10.5Z"/><line class="b" x1="66.01" y1="136.22" x2="87.73" y2="157.26"/><line class="b" x1="94.51" y1="136.22" x2="116.23" y2="157.26"/><line class="b" x1="124.25" y1="136.22" x2="145.97" y2="157.26"/><line class="b" x1="162.04" y1="136.22" x2="183.76" y2="157.26"/><line class="b" x1="203.55" y1="136.22" x2="225.27" y2="157.26"/><line class="b" x1="271.7" y1="136.22" x2="293.42" y2="157.26"/><line class="b" x1="294.62" y1="136.22" x2="316.35" y2="157.26"/><line class="b" x1="371.45" y1="136.22" x2="393.17" y2="157.26"/><line class="b" x1="404.9" y1="136.22" x2="426.63" y2="157.26"/><line class="b" x1="438.36" y1="136.22" x2="460.08" y2="157.26"/></g></svg>