<?xml version="1.0" encoding="UTF-8"?><svg id="a" xmlns="http://www.w3.org/2000/svg" viewBox="0 0 352.49 174.36"><defs><style>.b{fill:#aed5b2;}</style></defs><path class="b" d="M341.13,128.99c5.92,1.39,9.81,4.67,11.07,10.57,1.71,8.01-4.39,15.69-12.62,15.83-6.12,.1-12.25,.02-18.47,.02-1.4,4.16-3.48,7.87-6.55,10.98-13.61,13.82-36.86,8.91-43.68-9.26-.51-1.36-1.12-1.76-2.55-1.75-37.4,.04-74.79,.05-112.19,0-1.46,0-2.02,.48-2.52,1.79-3.93,10.44-13.82,17.23-24.86,17.19-11-.04-20.9-6.95-24.75-17.38-.45-1.22-.96-1.62-2.26-1.6-7.71,.07-15.41,.04-23.12,.03-7.62,0-13.26-4.7-14.15-11.75-.85-6.75,3.54-12.65,10.8-14.49,.11-.03,.21-.12,.41-.23v-34.17c-2.9,0-5.72,0-8.54,0-3.1,0-6.19,0-9.29,0-3.06,0-4.84-1.44-4.81-3.84,.03-2.35,1.77-3.73,4.72-3.74,5.31,0,10.61,0,15.92,0h1.97v-18.95h-2.29c-22.61,0-45.23,0-67.84,0-.63,0-1.27,.03-1.89-.02-2.15-.17-3.69-1.8-3.66-3.84,.04-1.97,1.54-3.53,3.6-3.7,.63-.05,1.26-.02,1.89-.02,22.61,0,45.23,0,67.84,0h2.35v-22.74c-.6,0-1.26,0-1.92,0-5.37,0-10.74,0-16.11,0-2.87,0-4.64-1.51-4.59-3.87,.05-2.29,1.76-3.7,4.56-3.71,5.37-.01,10.74,0,16.11,0h2.06v-2.18c0-7.83,0-15.67,0-23.5,0-3.26,1.36-4.64,4.58-4.64,50.03,0,100.06,0,150.09,0,3.12,0,4.52,1.39,4.53,4.51,.01,7.83,0,15.67,0,23.5v2.31c.78,0,1.45,0,2.11,0,10.3,0,20.59,.04,30.89-.03,2.2-.02,3.66,.79,4.9,2.55,10.59,15.01,21.25,29.97,31.84,44.99,.88,1.25,1.76,1.79,3.34,1.85,16.77,.58,30.88,13.76,32.69,30.46,.22,2,.31,4.03,.33,6.04,.05,4.23,.02,8.45,.02,12.81Zm-113.84-.11V7.67H83.49V30.32h2.36c20.15,0,40.3,0,60.46,0,.69,0,1.4-.04,2.08,.06,1.84,.29,3.18,1.87,3.21,3.68,.02,1.89-1.38,3.53-3.3,3.78-.68,.09-1.39,.05-2.08,.05-20.15,0-40.3,0-60.46,0h-2.24v22.74h2.19c6.25,0,12.51,0,18.76,0,.44,0,.88-.01,1.33,0,2.44,.07,4.11,1.61,4.12,3.77,0,2.17-1.66,3.78-4.09,3.79-6.76,.03-13.52,.01-20.28,.01-.67,0-1.34,0-2.01,0v18.95h2.4c16.3,0,32.6,0,48.9,0,.63,0,1.27-.03,1.89,.03,2.04,.2,3.53,1.82,3.52,3.78-.01,1.96-1.51,3.55-3.56,3.74-.63,.06-1.26,.03-1.89,.03-16.36,0-32.72,0-49.09,0h-2.15v34.11c8.42,0,16.7,.04,24.97-.05,1.06-.01,2.33-.5,3.14-1.2,9.9-8.44,24.59-8.43,34.47,.02,.81,.69,2.09,1.18,3.15,1.18,25.33,.06,50.66,.05,76,.05h2.02Zm106.22,0c0-5.44,.2-10.62-.04-15.78-.69-14.71-12.46-25.88-27.1-25.9-7.52-.01-15.03,0-22.55,0-10.99,0-21.98,0-32.97,0-2.77,0-4.44-1.34-4.45-3.8-.05-10.04-.05-20.08,0-30.13,.01-2.14,1.57-3.59,3.58-3.67,2.41-.1,3.96,1.53,3.97,4.25,.02,7.9,0,15.79,0,23.69,0,.66,0,1.33,0,1.98h42.62c-.25-.42-.38-.69-.55-.93-9.38-13.24-18.75-26.48-28.19-39.67-.4-.57-1.45-.95-2.19-.95-9.47-.06-18.95-.04-28.42-.04-.68,0-1.35,0-2.11,0v90.83c.28,.06,.46,.13,.64,.13,13.45,0,26.91,.02,40.36-.03,.66,0,1.44-.41,1.96-.86,10.32-8.93,24.81-8.95,35.14-.02,.45,.39,1.05,.87,1.58,.88,6.18,.06,12.36,.04,18.73,.04Zm-64.82,18.86c.87-3.83,1.71-7.52,2.54-11.15h-117.92c.84,3.73,1.67,7.38,2.53,11.15h112.86Zm-139.84,19.04c10.4,0,18.94-8.49,18.96-18.89,.03-10.41-8.45-18.96-18.84-19.01-10.49-.05-19.07,8.49-19.06,18.98,0,10.39,8.54,18.91,18.93,18.92Zm185.75-19.04c-.04-10.39-8.58-18.88-18.99-18.86-10.4,.02-18.9,8.54-18.9,18.94,0,10.47,8.61,19.02,19.08,18.95,10.39-.06,18.85-8.63,18.81-19.04Zm-210.13-11.28c-8.65,0-17.41,0-26.16,0-3.69,0-6.25,2.32-6.29,5.61-.04,3.36,2.57,5.74,6.34,5.75,7.44,.01,14.88,0,22.32,0,.54,0,1.07-.07,1.2-.08,.89-3.89,1.72-7.48,2.59-11.29Zm218.18,11.37c.27,0,.77,0,1.26,0,5.23,0,10.46,.07,15.69-.04,2.97-.07,5.29-2.67,5.32-5.6,.02-2.92-2.27-5.46-5.23-5.69-1.32-.1-2.64-.04-3.97-.04-5.28,0-10.55,0-15.67,0,.86,3.77,1.7,7.42,2.6,11.37Z"/><path class="b" d="M128.84,136.46c6.24-.01,11.36,5.06,11.39,11.29,.03,6.31-5.12,11.47-11.44,11.44-6.22-.03-11.31-5.16-11.3-11.39,.01-6.23,5.1-11.33,11.34-11.34Zm3.8,11.43c.04-2.01-1.6-3.76-3.61-3.85-2.08-.09-3.9,1.62-3.94,3.7-.04,2.02,1.6,3.76,3.61,3.85,2.08,.09,3.9-1.61,3.94-3.71Z"/><path class="b" d="M295.67,159.2c-6.23,0-11.36-5.08-11.38-11.3-.03-6.32,5.13-11.46,11.44-11.43,6.22,.03,11.3,5.16,11.29,11.39-.01,6.22-5.12,11.33-11.35,11.34Zm.06-15.14c-2.01-.04-3.76,1.59-3.85,3.61-.1,2.08,1.61,3.9,3.7,3.95,2.08,.04,3.86-1.71,3.85-3.8-.01-2.02-1.69-3.71-3.7-3.76Z"/></svg>