<?xml version="1.0" encoding="UTF-8"?><svg id="a" xmlns="http://www.w3.org/2000/svg" viewBox="0 0 599.2 271.33"><defs><style>.b{fill:#aed5b2;}</style></defs><path class="b" d="M129.92,120.35c.22-.6,.5-1.34,.72-2.67,.69-4.21,.05-7.45-.61-9.43-.06-.19-.13-.37-.19-.55-.24-.69-.44-1.24-.5-2.09-.07-1.04,.11-1.8,.28-2.53l.06-.26c.47-2.03,1.58-6.79,.04-11.18-.24-.67-.48-1.19-.68-1.6-.34-.71-.39-.85-.36-1.22,.03-.36,.13-.61,.36-1.13,.23-.53,.52-1.18,.74-2.11,.33-1.41,.35-2.89,.06-4.39,.15-10.22-5.66-20.04-14.63-24.88v-4.66c.97-.14,1.72-1.01,1.72-2.09s-.75-1.95-1.72-2.09v-7.46c0-2.29-1.86-4.15-4.15-4.15h-14.03c-2.29,0-4.15,1.86-4.15,4.15v7.58c-1,.31-1.72,1.07-1.72,1.97s.71,1.66,1.72,1.97v4.78c-8.96,4.85-14.77,14.65-14.63,24.88-.29,1.51-.27,2.98,.06,4.39,.22,.93,.51,1.58,.74,2.11,.23,.52,.34,.77,.36,1.13,.03,.37-.02,.51-.36,1.22-.2,.41-.44,.93-.68,1.6-1.54,4.4-.44,9.15,.04,11.18l.06,.26c.17,.73,.36,1.49,.28,2.53-.06,.85-.25,1.4-.5,2.09-.06,.18-.13,.37-.19,.55-.65,1.98-1.29,5.22-.61,9.43,.22,1.33,.49,2.07,.72,2.67,.2,.54,.35,.93,.46,1.85,.27,2.31-.16,4.12-.32,4.8l-.03,.13c-.88,3.78-.89,14.26-.02,32.03l.02,.35,.13,.33c.1,.26,.2,.55,.31,.87,.68,1.96,1.82,5.25,5.13,6.57,6.43,2.55,13.18,3.93,20.12,4.09h.21c6.88-.17,13.63-1.54,20.07-4.09,3.32-1.31,4.45-4.6,5.13-6.57,.11-.32,.21-.61,.31-.87l.13-.33,.02-.35c.87-17.77,.86-28.25-.02-32.03l-.03-.13c-.16-.68-.6-2.49-.32-4.8,.11-.92,.25-1.31,.46-1.85Zm-18.93-80.27v7.35h-13.86v-7.35h13.86Zm15.47,76.93c-.15,.92-.31,1.36-.5,1.87-.19,.52-.41,1.1-.57,2.03h-17.67c-1.17,0-2.12,.95-2.12,2.12s.95,2.12,2.12,2.12h17.49c.11,1.37,.35,2.39,.47,2.85l.03,.11c.53,2.29,.95,9.45-.07,30.53-.08,.22-.16,.45-.25,.7-.67,1.93-1.29,3.46-2.69,4.01-5.97,2.36-12.23,3.64-18.56,3.79h-.1c-6.38-.15-12.64-1.43-18.61-3.79-1.4-.55-2.02-2.08-2.69-4.01-.09-.25-.17-.48-.25-.7-1.02-21.08-.6-28.24-.07-30.53l.03-.11c.12-.5,.4-1.66,.49-3.22h3.29c1.17,0,2.12-.95,2.12-2.12s-.95-2.12-2.12-2.12h-3.56c-.15-.72-.33-1.21-.5-1.66-.19-.51-.35-.95-.5-1.87-.55-3.36-.06-5.89,.45-7.42,.05-.16,.11-.32,.16-.48,.13-.36,.27-.77,.39-1.23h3.56c1.17,0,2.12-.95,2.12-2.12s-.95-2.12-2.12-2.12h-3.31c-.08-.6-.21-1.11-.31-1.55l-.06-.24c-.39-1.67-1.3-5.59-.16-8.83,.16-.46,.34-.82,.5-1.18,.16-.34,.33-.69,.47-1.09h2.87c1.16,0,2.11-.94,2.11-2.11v-.02c0-1.16-.94-2.11-2.11-2.11h-3.05c-.08-.2-.16-.39-.24-.57-.19-.44-.36-.81-.48-1.35-.2-.88-.2-1.82,0-2.81l.05-.25v-.29c-.21-9.1,5.19-17.85,13.41-21.76l1.21-.57v-7.27h13.86v7.27l1.21,.57c8.22,3.92,13.61,12.66,13.42,21.71v.34l.04,.25c.21,.98,.21,1.93,0,2.81-.12,.53-.29,.91-.48,1.35-.22,.49-.46,1.03-.6,1.72h-16.87c-1.17,0-2.12,.95-2.12,2.12s.95,2.12,2.12,2.12h17.54c.16,.34,.32,.69,.47,1.11,1.13,3.24,.22,7.15-.16,8.83l-.06,.24c-.12,.52-.27,1.15-.35,1.92h-17.44c-1.17,0-2.12,.95-2.12,2.12s.95,2.12,2.12,2.12h17.85c.1,.31,.2,.6,.29,.86,.06,.16,.11,.32,.16,.48,.51,1.53,.99,4.06,.45,7.42Z"/><path class="b" d="M223.56,120.35c.22-.6,.5-1.34,.72-2.67,.69-4.21,.05-7.45-.61-9.43-.06-.19-.13-.37-.19-.55-.24-.69-.44-1.24-.5-2.09-.07-1.04,.11-1.8,.28-2.53l.06-.26c.47-2.03,1.58-6.79,.04-11.18-.24-.67-.48-1.19-.68-1.6-.34-.71-.39-.85-.36-1.22,.03-.36,.13-.61,.36-1.13,.23-.53,.52-1.18,.74-2.11,.33-1.41,.35-2.89,.06-4.39,.15-10.22-5.66-20.04-14.63-24.88v-4.66c.97-.14,1.72-1.01,1.72-2.09s-.75-1.95-1.72-2.09v-7.46c0-2.29-1.86-4.15-4.15-4.15h-14.03c-2.29,0-4.15,1.86-4.15,4.15v7.58c-1,.31-1.72,1.07-1.72,1.97s.71,1.66,1.72,1.97v4.78c-8.96,4.85-14.77,14.65-14.63,24.88-.29,1.51-.27,2.98,.06,4.39,.22,.93,.51,1.58,.74,2.11,.23,.52,.34,.77,.36,1.13,.03,.37-.02,.51-.36,1.22-.2,.41-.44,.93-.68,1.6-1.54,4.4-.44,9.15,.04,11.18l.06,.26c.17,.73,.36,1.49,.28,2.53-.06,.85-.25,1.4-.5,2.09-.06,.18-.13,.37-.19,.55-.65,1.98-1.29,5.22-.61,9.43,.22,1.33,.49,2.07,.72,2.67,.2,.54,.35,.93,.46,1.85,.27,2.31-.16,4.12-.32,4.8l-.03,.13c-.88,3.78-.89,14.26-.02,32.03l.02,.35,.13,.33c.1,.26,.2,.55,.31,.87,.68,1.96,1.82,5.25,5.13,6.57,6.43,2.55,13.18,3.93,20.12,4.09h.21c6.88-.17,13.63-1.54,20.07-4.09,3.32-1.31,4.45-4.6,5.13-6.57,.11-.32,.21-.61,.31-.87l.13-.33,.02-.35c.87-17.77,.86-28.25-.02-32.03l-.03-.13c-.16-.68-.6-2.49-.32-4.8,.11-.92,.25-1.31,.46-1.85Zm-18.93-80.27v7.35h-13.86v-7.35h13.86Zm15.47,76.93c-.15,.92-.31,1.36-.5,1.87-.19,.52-.41,1.1-.57,2.03h-17.67c-1.17,0-2.12,.95-2.12,2.12s.95,2.12,2.12,2.12h17.49c.11,1.37,.35,2.39,.47,2.85l.03,.11c.53,2.29,.95,9.45-.07,30.53-.08,.22-.16,.45-.25,.7-.67,1.93-1.29,3.46-2.69,4.01-5.97,2.36-12.23,3.64-18.56,3.79h-.1c-6.38-.15-12.64-1.43-18.61-3.79-1.4-.55-2.02-2.08-2.69-4.01-.09-.25-.17-.48-.25-.7-1.02-21.08-.6-28.24-.07-30.53l.03-.11c.12-.5,.4-1.66,.49-3.22h3.29c1.17,0,2.12-.95,2.12-2.12s-.95-2.12-2.12-2.12h-3.56c-.15-.72-.33-1.21-.5-1.66-.19-.51-.35-.95-.5-1.87-.55-3.36-.06-5.89,.45-7.42,.05-.16,.11-.32,.16-.48,.13-.36,.27-.77,.39-1.23h3.56c1.17,0,2.12-.95,2.12-2.12s-.95-2.12-2.12-2.12h-3.31c-.08-.6-.21-1.11-.31-1.55l-.06-.24c-.39-1.67-1.3-5.59-.16-8.83,.16-.46,.34-.82,.5-1.18,.16-.34,.33-.69,.47-1.09h2.87c1.16,0,2.11-.94,2.11-2.11v-.02c0-1.16-.94-2.11-2.11-2.11h-3.05c-.08-.2-.16-.39-.24-.57-.19-.44-.36-.81-.48-1.35-.2-.88-.2-1.82,0-2.81l.05-.25v-.29c-.21-9.1,5.19-17.85,13.41-21.76l1.21-.57v-7.27h13.86v7.27l1.21,.57c8.22,3.92,13.61,12.66,13.42,21.71v.34l.04,.25c.21,.98,.21,1.93,0,2.81-.12,.53-.29,.91-.48,1.35-.22,.49-.46,1.03-.6,1.72h-16.87c-1.17,0-2.12,.95-2.12,2.12s.95,2.12,2.12,2.12h17.54c.16,.34,.32,.69,.47,1.11,1.13,3.24,.22,7.15-.16,8.83l-.06,.24c-.12,.52-.27,1.15-.35,1.92h-17.44c-1.17,0-2.12,.95-2.12,2.12s.95,2.12,2.12,2.12h17.85c.1,.31,.2,.6,.29,.86,.06,.16,.11,.32,.16,.48,.51,1.53,.99,4.06,.45,7.42Z"/><path class="b" d="M522.31,120.35c.22-.6,.5-1.34,.72-2.67,.69-4.21,.05-7.45-.61-9.43-.06-.19-.13-.37-.19-.55-.24-.69-.44-1.24-.5-2.09-.07-1.04,.11-1.8,.28-2.53l.06-.26c.47-2.03,1.58-6.79,.04-11.18-.24-.67-.48-1.19-.68-1.6-.34-.71-.39-.85-.36-1.22,.03-.36,.13-.61,.36-1.13,.23-.53,.52-1.18,.74-2.11,.33-1.41,.35-2.89,.06-4.39,.15-10.22-5.66-20.04-14.63-24.88v-4.66c.97-.14,1.72-1.01,1.72-2.09s-.75-1.95-1.72-2.09v-7.46c0-2.29-1.86-4.15-4.15-4.15h-14.03c-2.29,0-4.15,1.86-4.15,4.15v7.58c-1,.31-1.72,1.07-1.72,1.97s.71,1.66,1.72,1.97v4.78c-8.96,4.85-14.77,14.65-14.63,24.88-.29,1.51-.27,2.98,.06,4.39,.22,.93,.51,1.58,.74,2.11,.23,.52,.34,.77,.36,1.13,.03,.37-.02,.51-.36,1.22-.2,.41-.44,.93-.68,1.6-1.54,4.4-.44,9.15,.04,11.18l.06,.26c.17,.73,.36,1.49,.28,2.53-.06,.85-.25,1.4-.5,2.09-.06,.18-.13,.37-.19,.55-.65,1.98-1.29,5.22-.61,9.43,.22,1.33,.49,2.07,.72,2.67,.2,.54,.35,.93,.46,1.85,.27,2.31-.16,4.12-.32,4.8l-.03,.13c-.88,3.78-.89,14.26-.02,32.03l.02,.35,.13,.33c.1,.26,.2,.55,.31,.87,.68,1.96,1.82,5.25,5.13,6.57,6.43,2.55,13.18,3.93,20.12,4.09h.21c6.88-.17,13.63-1.54,20.07-4.09,3.32-1.31,4.45-4.6,5.13-6.57,.11-.32,.21-.61,.31-.87l.13-.33,.02-.35c.87-17.77,.86-28.25-.02-32.03l-.03-.13c-.16-.68-.6-2.49-.32-4.8,.11-.92,.25-1.31,.46-1.85Zm-18.93-80.27v7.35h-13.86v-7.35h13.86Zm15.47,76.93c-.15,.92-.31,1.36-.5,1.87-.19,.52-.41,1.1-.57,2.03h-17.67c-1.17,0-2.12,.95-2.12,2.12s.95,2.12,2.12,2.12h17.49c.11,1.37,.35,2.39,.47,2.85l.03,.11c.53,2.29,.95,9.45-.07,30.53-.08,.22-.16,.45-.25,.7-.67,1.93-1.29,3.46-2.69,4.01-5.97,2.36-12.23,3.64-18.56,3.79h-.1c-6.38-.15-12.64-1.43-18.61-3.79-1.4-.55-2.02-2.08-2.69-4.01-.09-.25-.17-.48-.25-.7-1.02-21.08-.6-28.24-.07-30.53l.03-.11c.12-.5,.4-1.66,.49-3.22h3.29c1.17,0,2.12-.95,2.12-2.12s-.95-2.12-2.12-2.12h-3.56c-.15-.72-.33-1.21-.5-1.66-.19-.51-.35-.95-.5-1.87-.55-3.36-.06-5.89,.45-7.42,.05-.16,.11-.32,.16-.48,.13-.36,.27-.77,.39-1.23h3.56c1.17,0,2.12-.95,2.12-2.12s-.95-2.12-2.12-2.12h-3.31c-.08-.6-.21-1.11-.31-1.55l-.06-.24c-.39-1.67-1.3-5.59-.16-8.83,.16-.46,.34-.82,.5-1.18,.16-.34,.33-.69,.47-1.09h2.87c1.16,0,2.11-.94,2.11-2.11v-.02c0-1.16-.94-2.11-2.11-2.11h-3.05c-.08-.2-.16-.39-.24-.57-.19-.44-.36-.81-.48-1.35-.2-.88-.2-1.82,0-2.81l.05-.25v-.29c-.21-9.1,5.19-17.85,13.41-21.76l1.21-.57v-7.27h13.86v7.27l1.21,.57c8.22,3.92,13.61,12.66,13.42,21.71v.34l.04,.25c.21,.98,.21,1.93,0,2.81-.12,.53-.29,.91-.48,1.35-.22,.49-.46,1.03-.6,1.72h-16.87c-1.17,0-2.12,.95-2.12,2.12s.95,2.12,2.12,2.12h17.54c.16,.34,.32,.69,.47,1.11,1.13,3.24,.22,7.15-.16,8.83l-.06,.24c-.12,.52-.27,1.15-.35,1.92h-17.44c-1.17,0-2.12,.95-2.12,2.12s.95,2.12,2.12,2.12h17.85c.1,.31,.2,.6,.29,.86,.06,.16,.11,.32,.16,.48,.51,1.53,.99,4.06,.45,7.42Z"/><g><path class="b" d="M392.19,0h-7.48c-3.23,0-6.31,1.4-8.43,3.83l-15.26,17.49c-1.47,1.69-3.6,2.65-5.84,2.65h-27.63c-3.5,0-6.97,.76-10.15,2.18l-1.25-2.21,.24-.14c.65-.37,1.12-.97,1.32-1.7,.2-.73,.11-1.49-.26-2.14l-3.71-6.54c-.37-.65-.97-1.12-1.7-1.32-.72-.2-1.48-.11-2.14,.26l-25.09,14.24c-1.35,.77-1.82,2.49-1.06,3.84l3.71,6.54c.37,.65,.97,1.12,1.7,1.32,.25,.07,.5,.1,.76,.1,.48,0,.95-.12,1.38-.37l.24-.14,1.24,2.19c-4.4,3.22-7.07,8.38-7.08,13.9l-.18,100.66c0,9.21,7.49,16.7,16.7,16.7h89.97c9.21,0,16.7-7.49,16.7-16.7V16.7c0-9.21-7.49-16.7-16.7-16.7Zm-102.22,35.35l-3.53-6.22,24.77-14.06,3.53,6.22-12.39,7.03-12.31,6.98h0l-.08,.05Zm13.87-4.42l9.7-5.5,1.19,2.1-19.41,10.99-1.18-2.08,9.7-5.5Zm102.05,123.73c0,7.55-6.15,13.7-13.7,13.7h-89.97c-7.55,0-13.7-6.15-13.7-13.7l.18-100.66c0-4.72,2.37-9.12,6.23-11.75l22.74-12.9c3.06-1.55,6.46-2.37,9.9-2.37h27.63c3.1,0,6.06-1.34,8.1-3.68l15.26-17.49c1.56-1.78,3.81-2.81,6.17-2.81h7.48c7.55,0,13.7,6.15,13.7,13.7V154.66Z"/><path class="b" d="M389.86,59.2c.59-.59,.59-1.53,0-2.12s-1.53-.59-2.12,0l-18.88,18.88h-44.51l-18.88-18.88c-.59-.59-1.53-.59-2.12,0s-.59,1.53,0,2.12l18.88,18.88v44.51l-18.88,18.88c-.59,.59-.59,1.53,0,2.12s1.53,.59,2.12,0l18.88-18.88h44.51l18.88,18.88c.59,.59,1.53,.59,2.12,0s.59-1.53,0-2.12l-18.88-18.88v-44.51l18.88-18.88Zm-21.88,21.88v40.64h-42.76v-42.76h42.76v2.12Z"/></g><g><path class="b" d="M546.52,165.97H52.68c-29.05,0-52.68,23.63-52.68,52.68s23.63,52.68,52.68,52.68h493.84c29.05,0,52.68-23.63,52.68-52.68s-23.63-52.68-52.68-52.68Zm0,96.36H52.68c-24.08,0-43.68-19.59-43.68-43.68s19.59-43.68,43.68-43.68h493.84c24.08,0,43.68,19.59,43.68,43.68s-19.59,43.68-43.68,43.68Z"/><path class="b" d="M544.87,191.21H54.33c-15.13,0-27.44,12.31-27.44,27.44s12.31,27.44,27.44,27.44h490.53c15.13,0,27.44-12.31,27.44-27.44s-12.31-27.44-27.44-27.44Zm-206.5,9h68.98v36.89h-68.98v-36.89Zm-77.54,36.89h-68.98v-36.89h68.98v36.89Zm-224.94-18.44c0-10.17,8.27-18.44,18.44-18.44h59.97v36.89H54.33c-10.17,0-18.44-8.27-18.44-18.44Zm508.98,18.44h-59.97v-36.89h59.97c10.17,0,18.44,8.27,18.44,18.44s-8.27,18.44-18.44,18.44Z"/></g></svg>